<?xml version="1.0" encoding="utf-8"?>
<!-- Generator: Adobe Illustrator 25.2.0, SVG Export Plug-In . SVG Version: 6.00 Build 0)  -->
<svg version="1.1" id="레이어_1" xmlns="http://www.w3.org/2000/svg" xmlns:xlink="http://www.w3.org/1999/xlink" x="0px"
	 y="0px" viewBox="0 0 1920 108" style="enable-background:new 0 0 1920 108;" xml:space="preserve">
<style type="text/css">
	.st0{fill:#C2E3DE;}
	.st1{fill:#A8B476;}
	.st2{fill:#6F8646;}
	.st3{fill:#AFC366;}
	.st4{fill:#D7E592;}
	.st5{fill:#8BA146;}
	.st6{fill:#A4B567;}
	.st7{fill:#E3EEEB;}
	.st8{fill:#FAFAF9;}
	.st9{fill:#8A9B4B;}
	.st10{fill:#E7C670;}
	.st11{fill:#9BB350;}
	.st12{fill:#E6D17D;}
	.st13{fill:#BC6D4F;}
	.st14{fill:#D1CCC8;}
	.st15{fill:#EFEAE7;}
	.st16{fill:#674845;}
	.st17{fill:#B1D3D6;stroke:#F7F8F8;stroke-width:2;stroke-miterlimit:10;}
	.st18{fill:none;stroke:#EFEAE7;stroke-width:2;stroke-miterlimit:10;}
	.st19{fill:#674945;}
	.st20{fill:#8CA247;}
	.st21{fill:#A4B667;}
	.st22{fill:#7D9342;}
	.st23{fill:#B8946F;}
</style>
<rect class="st0" width="1920" height="56.67"/>
<g>
	<circle class="st1" cx="557.23" cy="29.28" r="15.29"/>
	<circle class="st1" cx="536.43" cy="36.25" r="11.65"/>
	<circle class="st1" cx="571.66" cy="39.36" r="8.89"/>
	<ellipse class="st1" cx="557.23" cy="45.62" rx="15.29" ry="9.37"/>
	<ellipse class="st1" cx="575.7" cy="47.87" rx="10.35" ry="7.12"/>
</g>
<g>
	<circle class="st2" cx="1632.75" cy="52.51" r="15.29"/>
	<circle class="st2" cx="1611.95" cy="59.48" r="11.65"/>
	<circle class="st2" cx="1647.18" cy="62.59" r="8.89"/>
	<ellipse class="st2" cx="1632.75" cy="68.85" rx="15.29" ry="9.37"/>
	<ellipse class="st2" cx="1651.22" cy="71.1" rx="10.35" ry="7.12"/>
</g>
<path class="st3" d="M213.49,54c-16.67-10.16-69.4-39.35-137.26-28.96C41.91,30.3,15.94,43.81,0,54"/>
<g>
	<circle class="st4" cx="209.51" cy="41.65" r="10.26"/>
	<ellipse class="st4" cx="195.26" cy="48.78" rx="8.89" ry="7.12"/>
	<circle class="st4" cx="224.52" cy="49.16" r="7.51"/>
	<circle class="st4" cx="218.01" cy="42.29" r="6.51"/>
	<ellipse class="st4" cx="209.51" cy="52.22" rx="10.26" ry="6.74"/>
</g>
<rect y="71" class="st5" width="1920" height="41.06"/>
<path class="st3" d="M276,51.56c54.1-23.41,181.92-69.67,278.48-10.27c6.11,3.76,12.15,7.97,18.1,12.71"/>
<path class="st3" d="M639.98,50.78"/>
<path class="st6" d="M675.48,57.77c50.77-21.01,174.94-65.27,243.88-7.97c2.96,2.46,5.82,5.11,8.58,7.97"/>
<path class="st6" d="M1920,55.33c-22.74-13.64-92.63-51.47-182.6-37.99c-46.33,6.94-81.42,25-102.94,38.6"/>
<circle class="st1" cx="580.14" cy="45.18" r="1.32"/>
<g>
	<ellipse class="st7" cx="675.28" cy="14.19" rx="10.08" ry="10.52"/>
	<ellipse class="st7" cx="685.85" cy="16.74" rx="7.84" ry="8.18"/>
	<ellipse class="st7" cx="665.9" cy="14.19" rx="9.38" ry="8.18"/>
	<ellipse class="st7" cx="659.24" cy="17.72" rx="7.28" ry="6.99"/>
	<ellipse class="st7" cx="679.62" cy="21.64" rx="7.28" ry="6.72"/>
	<ellipse class="st7" cx="669.74" cy="20.89" rx="9.87" ry="8.4"/>
</g>
<g>
	<ellipse class="st7" cx="299.32" cy="15.52" rx="10.08" ry="10.52"/>
	<ellipse class="st7" cx="309.89" cy="18.07" rx="7.84" ry="8.18"/>
	<ellipse class="st7" cx="289.94" cy="15.52" rx="9.38" ry="8.18"/>
	<ellipse class="st7" cx="283.28" cy="19.05" rx="7.28" ry="6.99"/>
	<ellipse class="st7" cx="303.65" cy="22.97" rx="7.28" ry="6.72"/>
	<ellipse class="st7" cx="293.78" cy="22.22" rx="9.87" ry="8.4"/>
</g>
<g>
	<ellipse class="st7" cx="1208" cy="14.45" rx="10.08" ry="10.52"/>
	<ellipse class="st7" cx="1218.57" cy="17" rx="7.84" ry="8.18"/>
	<ellipse class="st7" cx="1198.62" cy="14.45" rx="9.38" ry="8.18"/>
	<ellipse class="st7" cx="1191.96" cy="17.98" rx="7.28" ry="6.99"/>
	<ellipse class="st7" cx="1212.33" cy="21.9" rx="7.28" ry="6.72"/>
	<ellipse class="st7" cx="1202.46" cy="21.15" rx="9.87" ry="8.4"/>
</g>
<g>
	<circle class="st8" cx="652.77" cy="17.39" r="9.87"/>
	<circle class="st8" cx="639.62" cy="19.88" r="7.77"/>
	<circle class="st8" cx="662.64" cy="21.64" r="8.65"/>
	<circle class="st8" cx="647.26" cy="25.93" r="8.53"/>
	<circle class="st8" cx="657.54" cy="28.05" r="6.41"/>
</g>
<g>
	<circle class="st8" cx="23.06" cy="14.3" r="7.71"/>
	<circle class="st8" cx="12.8" cy="16.24" r="6.06"/>
	<circle class="st8" cx="30.77" cy="17.61" r="6.75"/>
	<circle class="st8" cx="18.76" cy="20.96" r="6.66"/>
	<circle class="st8" cx="26.79" cy="22.62" r="5"/>
</g>
<g>
	
		<ellipse transform="matrix(0.9015 -0.4329 0.4329 0.9015 94.9503 511.4341)" class="st9" cx="1170.76" cy="47.17" rx="9.66" ry="11.67"/>
	
		<ellipse transform="matrix(0.9015 -0.4329 0.4329 0.9015 88.7122 509.1497)" class="st9" cx="1162.63" cy="59.73" rx="10.42" ry="12.59"/>
	
		<ellipse transform="matrix(0.9015 -0.4329 0.4329 0.9015 93.1364 516.1257)" class="st9" cx="1180.16" cy="53.5" rx="8.09" ry="9.77"/>
	
		<ellipse transform="matrix(0.9015 -0.4329 0.4329 0.9015 98.4319 517.3091)" class="st9" cx="1185.41" cy="42.46" rx="7.48" ry="9.04"/>
	
		<ellipse transform="matrix(0.9015 -0.4329 0.4329 0.9015 96.1479 520.6622)" class="st9" cx="1191.63" cy="49.16" rx="7.22" ry="8.73"/>
</g>
<g>
	<circle class="st8" cx="895.93" cy="14.51" r="7.14"/>
	<circle class="st8" cx="886.42" cy="16.31" r="5.62"/>
	<circle class="st8" cx="903.07" cy="17.59" r="6.26"/>
	<circle class="st8" cx="891.94" cy="20.69" r="6.17"/>
	<circle class="st8" cx="899.38" cy="22.22" r="4.64"/>
</g>
<g>
	<circle class="st8" cx="1227.01" cy="15.45" r="9.87"/>
	<circle class="st8" cx="1213.86" cy="17.94" r="7.77"/>
	<circle class="st8" cx="1236.88" cy="19.7" r="8.65"/>
	<circle class="st8" cx="1221.5" cy="23.99" r="8.53"/>
	<circle class="st8" cx="1231.78" cy="26.11" r="6.41"/>
</g>
<g>
	<circle class="st8" cx="1635.43" cy="17.28" r="8.03"/>
	<circle class="st8" cx="1624.72" cy="19.3" r="6.32"/>
	<circle class="st8" cx="1643.46" cy="20.74" r="7.04"/>
	<circle class="st8" cx="1630.94" cy="24.22" r="6.95"/>
	<circle class="st8" cx="1639.31" cy="25.95" r="5.22"/>
</g>
<g>
	<ellipse class="st7" cx="1908.77" cy="18.45" rx="10.08" ry="10.52"/>
	<ellipse class="st7" cx="1919.33" cy="21" rx="7.84" ry="8.18"/>
	<ellipse class="st7" cx="1899.39" cy="18.45" rx="9.38" ry="8.18"/>
	<ellipse class="st7" cx="1892.73" cy="21.98" rx="7.28" ry="6.99"/>
	<ellipse class="st7" cx="1913.1" cy="25.9" rx="7.28" ry="6.72"/>
	<ellipse class="st7" cx="1903.23" cy="25.14" rx="9.87" ry="8.4"/>
</g>
<circle class="st10" cx="1540.28" cy="21.54" r="8.72"/>
<g>
	<circle class="st4" cx="594.63" cy="40.41" r="10.26"/>
	<ellipse class="st4" cx="580.39" cy="47.53" rx="8.89" ry="7.12"/>
	<circle class="st4" cx="609.65" cy="47.92" r="7.51"/>
	<circle class="st4" cx="603.14" cy="41.05" r="6.51"/>
	<ellipse class="st4" cx="594.63" cy="50.98" rx="10.26" ry="6.74"/>
</g>
<g>
	<ellipse class="st2" cx="1244.6" cy="45.04" rx="9.98" ry="10.4"/>
	<ellipse class="st2" cx="1234.63" cy="48.05" rx="11.12" ry="11.6"/>
	<ellipse class="st2" cx="1253.27" cy="51.85" rx="8.43" ry="8.79"/>
	<ellipse class="st2" cx="1220.04" cy="53.36" rx="7.98" ry="8.32"/>
</g>
<path class="st3" d="M892.44,54c54.1-23.41,181.92-69.67,278.48-10.27c6.11,3.76,12.15,7.97,18.1,12.71"/>
<path class="st3" d="M1242.94,56.5c21.88-11.29,155.58-78.18,240.82-18.59c7.32,5.11,14.55,11.35,21.45,19"/>
<g>
	<circle class="st11" cx="1505.51" cy="44.89" r="10.26"/>
	<ellipse class="st11" cx="1491.26" cy="52.01" rx="8.89" ry="7.12"/>
	<circle class="st11" cx="1520.52" cy="52.4" r="7.51"/>
	<circle class="st11" cx="1514.01" cy="45.53" r="6.51"/>
	<ellipse class="st11" cx="1505.51" cy="55.46" rx="10.26" ry="6.74"/>
</g>
<path class="st12" d="M1920,71H0V54c146.13-2.07,370.89-4.22,648.56-2.61C774.35,52.12,862.5,53.35,915.07,54
	c214.72,2.66,540.02,4.51,1004.93,0C1920,59.67,1920,65.33,1920,71z"/>
<g>
	<rect x="173.97" y="31.93" class="st13" width="35" height="30.84"/>
	<path class="st14" d="M176.35,62.77h-14.81V16.11c0-4.09,3.32-7.41,7.41-7.41h0c4.09,0,7.41,3.32,7.41,7.41V62.77z"/>
	<polygon class="st15" points="172.55,36 105.69,36 109.91,14.36 139.12,7.51 169.23,14.36 	"/>
	<polygon class="st15" points="213.85,37.45 176.35,37.45 176.35,26.41 209.46,26.41 	"/>
	<rect x="124.28" y="36" class="st16" width="31.08" height="27.03"/>
	<rect x="182.4" y="42.97" class="st17" width="21.81" height="6.25"/>
	<circle class="st18" cx="139.82" cy="26.41" r="3.7"/>
	<path class="st18" d="M155.49,63.67"/>
	<path class="st18" d="M155.49,36.05"/>
	<path class="st18" d="M168.18,63.67"/>
	<path class="st18" d="M168.18,36.05"/>
	<g>
		<g>
			<g>
				<rect x="110.31" y="36" class="st13" width="13.97" height="27.61"/>
				<polygon class="st18" points="110.69,36.43 123.77,36.36 110.69,63.25 123.94,63.19 				"/>
			</g>
			<line class="st18" x1="124.28" y1="36" x2="124.28" y2="63.61"/>
		</g>
		<line class="st18" x1="110.45" y1="36.11" x2="110.45" y2="63.72"/>
	</g>
	<g>
		<g>
			<g>
				<rect x="154.97" y="35.94" class="st13" width="13.97" height="27.61"/>
				<polygon class="st18" points="155.35,36.38 168.43,36.31 155.35,63.19 168.59,63.14 				"/>
			</g>
			<line class="st18" x1="168.94" y1="35.94" x2="168.94" y2="63.56"/>
		</g>
		<line class="st18" x1="155.11" y1="36.05" x2="155.11" y2="63.66"/>
	</g>
	<polygon class="st16" points="171.13,36 107.11,36 111.15,16.57 139.12,10.42 167.95,16.57 	"/>
	<polygon class="st13" points="169.72,36 108.86,36 112.7,18.56 139.29,13.04 166.7,18.56 	"/>
	<circle class="st17" cx="139.82" cy="26.41" r="3.7"/>
</g>
<g>
	<path class="st15" d="M247.09,49.03h-30.12c-1.07,0-1.94-0.87-1.94-1.94v0c0-1.07,0.87-1.94,1.94-1.94h30.12
		c1.07,0,1.94,0.87,1.94,1.94v0C249.03,48.16,248.16,49.03,247.09,49.03z"/>
	<path class="st15" d="M223.25,56.13h-3.8V42.37c0-1.05,0.85-1.9,1.9-1.9h0c1.05,0,1.9,0.85,1.9,1.9V56.13z"/>
	<path class="st15" d="M243.95,56.13h-3.8V42.37c0-1.05,0.85-1.9,1.9-1.9l0,0c1.05,0,1.9,0.85,1.9,1.9V56.13z"/>
</g>
<g>
	<path class="st15" d="M61.51,50.64H31.39c-1.07,0-1.94-0.87-1.94-1.94v0c0-1.07,0.87-1.94,1.94-1.94h30.12
		c1.07,0,1.94,0.87,1.94,1.94v0C63.45,49.77,62.58,50.64,61.51,50.64z"/>
	<path class="st15" d="M37.67,57.74h-3.8V43.98c0-1.05,0.85-1.9,1.9-1.9h0c1.05,0,1.9,0.85,1.9,1.9V57.74z"/>
	<path class="st15" d="M58.37,57.74h-3.8V43.98c0-1.05,0.85-1.9,1.9-1.9h0c1.05,0,1.9,0.85,1.9,1.9V57.74z"/>
</g>
<g>
	<path class="st15" d="M99.39,50.24H69.27c-1.07,0-1.94-0.87-1.94-1.94v0c0-1.07,0.87-1.94,1.94-1.94h30.12
		c1.07,0,1.94,0.87,1.94,1.94v0C101.33,49.37,100.46,50.24,99.39,50.24z"/>
	<path class="st15" d="M75.56,57.35h-3.8V43.58c0-1.05,0.85-1.9,1.9-1.9h0c1.05,0,1.9,0.85,1.9,1.9V57.35z"/>
	<path class="st15" d="M96.25,57.35h-3.8V43.58c0-1.05,0.85-1.9,1.9-1.9l0,0c1.05,0,1.9,0.85,1.9,1.9V57.35z"/>
</g>
<path class="st19" d="M250.47,34.92"/>
<g>
	<path class="st19" d="M459.22,59.97h-7.32c1.13-6.6,1.13-13.2,1.13-19.81c0-1.9,0-4.95,0-6.85c2.97,0.63,2.27,10.56,4,9.73
		L459.22,59.97z"/>
	<path class="st19" d="M455.56,45.74c-0.8-0.6-1.66-1.38-2.52-2.4c-2.96-3.49-4.14-7.76-4.63-10.14c1.54,2.21,3.09,4.42,4.63,6.63"
		/>
	<path class="st19" d="M460.17,32.71c0.16,0.53,1.37,1-2.69,9.84c-0.78,1.69-2.56,4.48-3.1,4.05c-0.66-0.52,1.04-3.77,2.64-6.53"/>
</g>
<g>
	<path class="st19" d="M989.69,62.28h-7.32c1.13-6.6,1.13-13.2,1.13-19.81c0-1.9,0-4.95,0-6.85c2.97,0.63,2.27,10.56,4,9.73
		L989.69,62.28z"/>
	<path class="st19" d="M986.03,48.05c-0.8-0.6-1.66-1.38-2.52-2.4c-2.96-3.49-4.14-7.76-4.63-10.14c1.54,2.21,3.09,4.42,4.63,6.63"
		/>
	<path class="st19" d="M990.64,35.02c0.16,0.53,1.37,1-2.69,9.84c-0.78,1.69-2.56,4.48-3.1,4.05c-0.66-0.52,1.04-3.77,2.64-6.53"/>
</g>
<g>
	<g>
		<ellipse class="st20" cx="448.58" cy="13.49" rx="13.39" ry="10.68"/>
		<ellipse class="st20" cx="440.47" cy="18.75" rx="7.93" ry="6.33"/>
		<ellipse class="st20" cx="465.86" cy="23.29" rx="9.64" ry="7.69"/>
		<ellipse class="st20" cx="445.7" cy="30.98" rx="10.51" ry="8.39"/>
		<ellipse class="st20" cx="463.06" cy="11.98" rx="8.62" ry="6.88"/>
		<ellipse class="st20" cx="458.32" cy="30.95" rx="10.48" ry="8.36"/>
	</g>
	
		<ellipse transform="matrix(0.6418 -0.7668 0.7668 0.6418 142.7264 354.6139)" class="st20" cx="450.99" cy="24.51" rx="7.93" ry="7.71"/>
</g>
<g>
	<g>
		<ellipse class="st6" cx="976.79" cy="14.63" rx="14.02" ry="10.68"/>
		<ellipse class="st21" cx="968.3" cy="19.89" rx="8.3" ry="6.33"/>
		<ellipse class="st6" cx="994.88" cy="24.43" rx="10.09" ry="7.69"/>
		<ellipse class="st6" cx="973.78" cy="32.12" rx="11.01" ry="8.39"/>
		<ellipse class="st6" cx="991.94" cy="13.12" rx="9.03" ry="6.88"/>
		<ellipse class="st6" cx="986.99" cy="32.09" rx="10.97" ry="8.36"/>
	</g>
	
		<ellipse transform="matrix(0.9574 -0.2889 0.2889 0.9574 34.3344 283.9738)" class="st6" cx="979.31" cy="25.66" rx="8.2" ry="7.81"/>
</g>
<g>
	<path class="st19" d="M1332.35,63.8h-7.32c1.13-6.6,1.13-13.2,1.13-19.81c0-1.9,0-4.95,0-6.85c2.97,0.63,2.27,10.56,4,9.73
		L1332.35,63.8z"/>
	<path class="st19" d="M1328.69,49.57c-0.8-0.6-1.66-1.38-2.52-2.4c-2.96-3.49-4.14-7.76-4.63-10.14c1.54,2.21,3.09,4.42,4.63,6.63"
		/>
	<path class="st19" d="M1333.3,36.55c0.16,0.53,1.37,1-2.69,9.84c-0.78,1.69-2.56,4.48-3.1,4.05c-0.66-0.52,1.04-3.77,2.64-6.53"/>
</g>
<g>
	<g>
		<ellipse class="st6" cx="1319.01" cy="8.1" rx="16.7" ry="13.83"/>
		<ellipse class="st21" cx="1308.9" cy="14.92" rx="9.89" ry="8.19"/>
		<ellipse class="st6" cx="1340.57" cy="20.79" rx="12.03" ry="9.96"/>
		<ellipse class="st6" cx="1315.42" cy="30.75" rx="13.11" ry="10.86"/>
		<ellipse class="st6" cx="1337.07" cy="6.16" rx="10.76" ry="8.9"/>
		<ellipse class="st6" cx="1331.16" cy="30.71" rx="13.07" ry="10.82"/>
	</g>
	
		<ellipse transform="matrix(0.2829 -0.9592 0.9592 0.2829 926.574 1284.0648)" class="st6" cx="1322.02" cy="22.38" rx="10.19" ry="9.69"/>
</g>
<g>
	<path class="st19" d="M1746.37,69.08h7.32c-1.13-6.6-1.13-13.2-1.13-19.81c0-1.9,0-4.95,0-6.85c-2.97,0.63-2.27,10.56-4,9.73
		L1746.37,69.08z"/>
	<path class="st19" d="M1750.02,54.85c0.8-0.6,1.66-1.38,2.52-2.4c2.96-3.49,4.14-7.76,4.63-10.14c-1.54,2.21-3.09,4.42-4.63,6.63"
		/>
	<path class="st19" d="M1745.41,41.83c-0.16,0.53-1.37,1,2.69,9.84c0.78,1.69,2.56,4.48,3.1,4.05c0.66-0.52-1.04-3.77-2.64-6.53"/>
</g>
<g>
	<g>
		<ellipse class="st2" cx="1758.49" cy="14.39" rx="16.78" ry="13.83"/>
		<ellipse class="st2" cx="1768.65" cy="21.2" rx="9.94" ry="8.19"/>
		<ellipse class="st2" cx="1736.83" cy="27.07" rx="12.09" ry="9.96"/>
		<ellipse class="st2" cx="1762.1" cy="37.03" rx="13.18" ry="10.86"/>
		<ellipse class="st2" cx="1740.34" cy="12.44" rx="10.81" ry="8.9"/>
		<ellipse class="st2" cx="1746.28" cy="36.99" rx="13.13" ry="10.82"/>
	</g>
	
		<ellipse transform="matrix(0.9504 -0.3111 0.3111 0.9504 78.2117 547.603)" class="st2" cx="1755.47" cy="28.66" rx="9.73" ry="10.19"/>
</g>
<polygon class="st16" points="261.46,57.89 256.49,57.89 257.68,35.64 261.02,35.64 "/>
<g>
	<path class="st19" d="M88.2,61.03h-5.67c0.88-5.15,0.88-10.29,0.88-15.44c0-1.48,0-3.86,0-5.34c2.3,0.49,1.76,8.23,3.11,7.58
		L88.2,61.03z"/>
	<path class="st19" d="M85.36,49.94c-0.62-0.47-1.29-1.08-1.96-1.87c-2.3-2.72-3.21-6.05-3.59-7.9c1.2,1.72,2.39,3.45,3.59,5.17"/>
	<path class="st19" d="M88.94,39.79c0.12,0.41,1.06,0.78-2.09,7.67c-0.6,1.32-1.99,3.49-2.4,3.16c-0.51-0.41,0.81-2.94,2.05-5.09"/>
</g>
<g>
	<g>
		<ellipse class="st21" cx="80.55" cy="24.13" rx="9.31" ry="8.33"/>
		<ellipse class="st21" cx="74.91" cy="28.23" rx="5.52" ry="4.93"/>
		<ellipse class="st21" cx="92.57" cy="31.77" rx="6.71" ry="6"/>
		<ellipse class="st21" cx="78.55" cy="37.77" rx="7.31" ry="6.54"/>
		<ellipse class="st21" cx="90.62" cy="22.96" rx="6" ry="5.36"/>
		<ellipse class="st21" cx="87.32" cy="37.74" rx="7.29" ry="6.52"/>
	</g>
	
		<ellipse transform="matrix(0.1116 -0.9938 0.9938 0.1116 40.527 110.7864)" class="st21" cx="82.22" cy="32.73" rx="6.12" ry="5.42"/>
</g>
<g>
	<ellipse class="st22" cx="258.97" cy="27.45" rx="6.99" ry="14.06"/>
	
		<ellipse transform="matrix(0.9933 -0.1156 0.1156 0.9933 -1.8562 29.5959)" class="st22" cx="254.29" cy="30.81" rx="5.23" ry="12.06"/>
	
		<ellipse transform="matrix(0.0411 -0.9992 0.9992 0.0411 225.2786 292.23)" class="st22" cx="264.89" cy="28.75" rx="12.45" ry="3.14"/>
	<ellipse class="st22" cx="258.97" cy="36.85" rx="7.26" ry="8.1"/>
</g>
<polygon class="st16" points="802.51,58 799.22,58 800.01,27.35 802.22,27.35 "/>
<g>
	<ellipse class="st22" cx="801.71" cy="23.31" rx="6.99" ry="19.36"/>
	
		<ellipse transform="matrix(0.9971 -0.0759 0.0759 0.9971 0.1783 60.5589)" class="st22" cx="797.02" cy="27.93" rx="5.25" ry="16.56"/>
	
		<ellipse transform="matrix(0.0289 -0.9996 0.9996 0.0289 759.1741 831.6567)" class="st22" cx="807.62" cy="25.1" rx="17.13" ry="3.14"/>
	<ellipse class="st22" cx="801.71" cy="36.25" rx="7.26" ry="11.15"/>
</g>
<polygon class="st16" points="1145.09,65.1 1141.8,65.1 1142.59,34.45 1144.8,34.45 "/>
<g>
	<ellipse class="st22" cx="1144.29" cy="30.41" rx="6.99" ry="19.36"/>
	
		<ellipse transform="matrix(0.9971 -0.0759 0.0759 0.9971 0.6271 86.5746)" class="st22" cx="1139.6" cy="35.03" rx="5.25" ry="16.56"/>
	
		<ellipse transform="matrix(0.0289 -0.9996 0.9996 0.0289 1084.7504 1180.9904)" class="st22" cx="1150.2" cy="32.2" rx="17.13" ry="3.14"/>
	<ellipse class="st22" cx="1144.29" cy="43.35" rx="7.26" ry="11.15"/>
</g>
<path class="st23" d="M509.36-109.77h-42.94c-8.52,0-15.42-6.9-15.42-15.42v-7.15c0-8.52,6.9-15.42,15.42-15.42h42.94
	c8.52,0,15.42,6.9,15.42,15.42v7.15C524.78-116.67,517.87-109.77,509.36-109.77z"/>
</svg>
