<?xml version="1.0" encoding="utf-8"?>
<!-- Generator: Adobe Illustrator 25.2.0, SVG Export Plug-In . SVG Version: 6.00 Build 0)  -->
<svg version="1.1" id="레이어_1" xmlns="http://www.w3.org/2000/svg" xmlns:xlink="http://www.w3.org/1999/xlink" x="0px"
	 y="0px" viewBox="0 0 1920 108" style="enable-background:new 0 0 1920 108;" xml:space="preserve">
<style type="text/css">
	.st0{fill:#C2E3DE;}
	.st1{fill:#6A4C4B;}
	.st2{fill:#8BA146;}
	.st3{fill:#6B7744;}
	.st4{fill:#6E524F;}
	.st5{fill:#E3EEEB;}
	.st6{fill:#AFC366;}
	.st7{fill:#A4B567;}
	.st8{fill:#FAFAF9;}
	.st9{fill:#8A9B4B;}
	.st10{fill:#F8DF80;}
	.st11{fill:#2D313A;}
	.st12{fill:#664744;}
	.st13{fill:#B05131;}
	.st14{fill:#7D9E9D;}
	.st15{fill:#43372F;}
	.st16{fill:#453831;}
	.st17{fill:#EFEBE7;}
	.st18{fill:#B66243;}
</style>
<rect y="-7.97" class="st0" width="1920" height="56.67"/>
<rect x="0.6" y="49.12" class="st1" width="1920" height="41.06"/>
<rect x="0.14" y="75.02" class="st2" width="1920" height="41.06"/>
<rect x="27.94" y="75.02" class="st2" width="1920" height="41.06"/>
<rect x="55.74" y="75.02" class="st2" width="1920" height="41.06"/>
<g>
	<path class="st2" d="M74.77,33.34c1.54,0.83,1.05,8.89-4.99,11.9c-1.31,0.65-4.44,1.83-5.31,0.94
		C62.51,44.15,72.54,32.13,74.77,33.34z"/>
	<path class="st2" d="M55.92,33.34c-1.54,0.83-1.05,8.89,4.99,11.9c1.31,0.65,4.44,1.83,5.31,0.94
		C68.18,44.15,58.15,32.13,55.92,33.34z"/>
</g>
<g>
	<path class="st2" d="M147.55,33.34c1.54,0.83,1.05,8.89-4.99,11.9c-1.31,0.65-4.44,1.83-5.31,0.94
		C135.29,44.15,145.32,32.13,147.55,33.34z"/>
	<path class="st2" d="M128.7,33.34c-1.54,0.83-1.05,8.89,4.99,11.9c1.31,0.65,4.44,1.83,5.31,0.94
		C140.96,44.15,130.93,32.13,128.7,33.34z"/>
</g>
<g>
	<path class="st2" d="M181.27,33.34c1.54,0.83,1.05,8.89-4.99,11.9c-1.31,0.65-4.44,1.83-5.31,0.94
		C169.01,44.15,179.04,32.13,181.27,33.34z"/>
	<path class="st2" d="M162.42,33.34c-1.54,0.83-1.05,8.89,4.99,11.9c1.31,0.65,4.44,1.83,5.31,0.94
		C174.68,44.15,164.65,32.13,162.42,33.34z"/>
</g>
<g>
	<path class="st2" d="M314.24,32.64c1.54,0.83,1.05,8.89-4.99,11.9c-1.31,0.65-4.44,1.83-5.31,0.94
		C301.98,43.45,312.01,31.43,314.24,32.64z"/>
	<path class="st2" d="M295.39,32.64c-1.54,0.83-1.05,8.89,4.99,11.9c1.31,0.65,4.44,1.83,5.31,0.94
		C307.65,43.45,297.62,31.43,295.39,32.64z"/>
</g>
<g>
	<path class="st2" d="M381.65,32.64c1.54,0.83,1.05,8.89-4.99,11.9c-1.31,0.65-4.44,1.83-5.31,0.94
		C369.38,43.45,379.41,31.43,381.65,32.64z"/>
	<path class="st2" d="M362.79,32.64c-1.54,0.83-1.05,8.89,4.99,11.9c1.31,0.65,4.44,1.83,5.31,0.94
		C375.06,43.45,365.03,31.43,362.79,32.64z"/>
</g>
<g>
	<path class="st2" d="M416.27,32.64c1.54,0.83,1.05,8.89-4.99,11.9c-1.31,0.65-4.44,1.83-5.31,0.94
		C404.01,43.45,414.03,31.43,416.27,32.64z"/>
	<path class="st2" d="M397.41,32.64c-1.54,0.83-1.05,8.89,4.99,11.9c1.31,0.65,4.44,1.83,5.31,0.94
		C409.68,43.45,399.65,31.43,397.41,32.64z"/>
</g>
<g>
	<path class="st2" d="M484.25,32.64c1.54,0.83,1.05,8.89-4.99,11.9c-1.31,0.65-4.44,1.83-5.31,0.94
		C471.99,43.45,482.02,31.43,484.25,32.64z"/>
	<path class="st2" d="M465.4,32.64c-1.54,0.83-1.05,8.89,4.99,11.9c1.31,0.65,4.44,1.83,5.31,0.94
		C477.66,43.45,467.64,31.43,465.4,32.64z"/>
</g>
<g>
	<path class="st2" d="M564.53,32.64c1.54,0.83,1.05,8.89-4.99,11.9c-1.31,0.65-4.44,1.83-5.31,0.94
		C552.26,43.45,562.29,31.43,564.53,32.64z"/>
	<path class="st2" d="M545.67,32.64c-1.54,0.83-1.05,8.89,4.99,11.9c1.31,0.65,4.44,1.83,5.31,0.94
		C557.94,43.45,547.91,31.43,545.67,32.64z"/>
</g>
<g>
	<path class="st2" d="M599.15,32.64c1.54,0.83,1.05,8.89-4.99,11.9c-1.31,0.65-4.44,1.83-5.31,0.94
		C586.89,43.45,596.91,31.43,599.15,32.64z"/>
	<path class="st2" d="M580.29,32.64c-1.54,0.83-1.05,8.89,4.99,11.9c1.31,0.65,4.44,1.83,5.31,0.94
		C592.56,43.45,582.53,31.43,580.29,32.64z"/>
</g>
<g>
	<path class="st3" d="M111.16,33.34c1.54,0.83,1.05,8.89-4.99,11.9c-1.31,0.65-4.44,1.83-5.31,0.94
		C98.9,44.15,108.93,32.13,111.16,33.34z"/>
	<path class="st3" d="M92.31,33.34c-1.54,0.83-1.05,8.89,4.99,11.9c1.31,0.65,4.44,1.83,5.31,0.94
		C104.57,44.15,94.54,32.13,92.31,33.34z"/>
</g>
<g>
	<path class="st3" d="M214.11,33.34c1.54,0.83,1.05,8.89-4.99,11.9c-1.31,0.65-4.44,1.83-5.31,0.94
		C201.84,44.15,211.87,32.13,214.11,33.34z"/>
	<path class="st3" d="M195.25,33.34c-1.54,0.83-1.05,8.89,4.99,11.9c1.31,0.65,4.44,1.83,5.31,0.94
		C207.52,44.15,197.49,32.13,195.25,33.34z"/>
</g>
<g>
	<path class="st3" d="M246.48,33.34c1.54,0.83,1.05,8.89-4.99,11.9c-1.31,0.65-4.44,1.83-5.31,0.94
		C234.22,44.15,244.25,32.13,246.48,33.34z"/>
	<path class="st3" d="M227.63,33.34c-1.54,0.83-1.05,8.89,4.99,11.9c1.31,0.65,4.44,1.83,5.31,0.94
		C239.89,44.15,229.86,32.13,227.63,33.34z"/>
</g>
<g>
	<path class="st3" d="M280.9,32.64c1.54,0.83,1.05,8.89-4.99,11.9c-1.31,0.65-4.44,1.83-5.31,0.94
		C268.64,43.45,278.66,31.43,280.9,32.64z"/>
	<path class="st3" d="M262.04,32.64c-1.54,0.83-1.05,8.89,4.99,11.9c1.31,0.65,4.44,1.83,5.31,0.94
		C274.31,43.45,264.28,31.43,262.04,32.64z"/>
</g>
<g>
	<path class="st3" d="M346.46,32.64c1.54,0.83,1.05,8.89-4.99,11.9c-1.31,0.65-4.44,1.83-5.31,0.94
		C334.2,43.45,344.23,31.43,346.46,32.64z"/>
	<path class="st3" d="M327.61,32.64c-1.54,0.83-1.05,8.89,4.99,11.9c1.31,0.65,4.44,1.83,5.31,0.94
		C339.87,43.45,329.85,31.43,327.61,32.64z"/>
</g>
<g>
	<path class="st3" d="M449.41,32.64c1.54,0.83,1.05,8.89-4.99,11.9c-1.31,0.65-4.44,1.83-5.31,0.94
		C437.15,43.45,447.17,31.43,449.41,32.64z"/>
	<path class="st3" d="M430.56,32.64c-1.54,0.83-1.05,8.89,4.99,11.9c1.31,0.65,4.44,1.83,5.31,0.94
		C442.82,43.45,432.79,31.43,430.56,32.64z"/>
</g>
<g>
	<path class="st3" d="M522.63,32.64c1.54,0.83,1.05,8.89-4.99,11.9c-1.31,0.65-4.44,1.83-5.31,0.94
		C510.37,43.45,520.4,31.43,522.63,32.64z"/>
	<path class="st3" d="M503.78,32.64c-1.54,0.83-1.05,8.89,4.99,11.9c1.31,0.65,4.44,1.83,5.31,0.94
		C516.04,43.45,506.02,31.43,503.78,32.64z"/>
</g>
<g>
	<path class="st3" d="M637.22,32.64c1.54,0.83,1.05,8.89-4.99,11.9c-1.31,0.65-4.44,1.83-5.31,0.94
		C624.96,43.45,634.99,31.43,637.22,32.64z"/>
	<path class="st3" d="M618.37,32.64c-1.54,0.83-1.05,8.89,4.99,11.9c1.31,0.65,4.44,1.83,5.31,0.94
		C630.63,43.45,620.6,31.43,618.37,32.64z"/>
</g>
<path class="st4" d="M577.82,63.76c0.21-1.23-2.11-2.86-4.31-3.26c-2.38-0.44-5.13,0.48-5.24,1.51c-0.09,0.87,1.71,1.75,3.14,2.44
	c1.24,0.6,2.15,1.03,3.37,0.93C575.91,65.3,577.65,64.74,577.82,63.76z"/>
<path class="st4" d="M531.36,66.27c0.21-1.23-2.11-2.86-4.31-3.26c-2.38-0.44-5.13,0.48-5.24,1.51c-0.09,0.87,1.71,1.75,3.14,2.44
	c1.24,0.6,2.15,1.03,3.37,0.93C529.45,67.81,531.19,67.25,531.36,66.27z"/>
<path class="st4" d="M626.75,67.73c1.87-0.6,3.39-3.59,3.17-5.68c-0.23-2.27-2.57-4-4.12-3.43c-1.3,0.48-1.92,2.54-2.41,4.18
	c-0.43,1.43-0.72,2.46-0.12,3.42C623.81,67.1,625.26,68.21,626.75,67.73z"/>
<path class="st4" d="M483.16,59.15c-0.33-1.2-3.13-1.69-5.28-1.12c-2.34,0.62-4.44,2.61-4.1,3.6c0.29,0.83,2.29,0.85,3.88,0.88
	c1.38,0.02,2.39,0.02,3.45-0.59C482.09,61.35,483.43,60.1,483.16,59.15z"/>
<path class="st4" d="M441.97,64.66c-0.5-1.69-4.11-2.54-6.83-1.88c-2.95,0.71-5.51,3.33-5.01,4.72c0.42,1.17,2.98,1.33,5.02,1.46
	c1.77,0.11,3.05,0.18,4.37-0.6C440.74,67.64,442.37,66,441.97,64.66z"/>
<path class="st4" d="M388.5,63.08c0.45-1.29-2.18-3.44-4.83-4.25c-2.88-0.88-6.42-0.38-6.7,0.72c-0.24,0.93,1.85,2.18,3.52,3.18
	c1.45,0.87,2.51,1.48,4.03,1.59C385.91,64.4,388.15,64.1,388.5,63.08z"/>
<path class="st4" d="M314.83,60.47c0.54-1.97-1.96-5.04-4.58-6.07c-2.84-1.12-6.45-0.11-6.82,1.57c-0.31,1.41,1.71,3.15,3.33,4.54
	c1.4,1.2,2.43,2.06,3.96,2.11C312.12,62.66,314.4,62.05,314.83,60.47z"/>
<path class="st4" d="M263.22,64.43c0.58-2.39-1.58-5.96-3.93-7.1c-2.55-1.23-5.89,0.13-6.29,2.16c-0.34,1.71,1.44,3.71,2.85,5.31
	c1.23,1.39,2.13,2.37,3.53,2.36C260.65,67.16,262.76,66.33,263.22,64.43z"/>
<path class="st4" d="M137.82,58.39c0.32-1.15-1.14-2.93-2.67-3.53c-1.65-0.65-3.76-0.07-3.97,0.91c-0.18,0.82,1,1.83,1.94,2.64
	c0.81,0.7,1.41,1.2,2.31,1.22C136.24,59.66,137.57,59.3,137.82,58.39z"/>
<path class="st4" d="M49.01,64.71c0.49-1.38-2.44-3.71-5.38-4.6c-3.19-0.96-7.12-0.44-7.43,0.74c-0.26,0.99,2.06,2.35,3.92,3.43
	c1.61,0.94,2.79,1.61,4.48,1.73C46.14,66.12,48.63,65.81,49.01,64.71z"/>
<path class="st4" d="M83.54,61.75c-0.24-1.43-2.61-2.71-4.46-2.65c-2.01,0.06-3.88,1.72-3.62,2.91c0.22,1,1.92,1.56,3.28,2.01
	c1.18,0.39,2.03,0.66,2.96,0.26C82.54,63.92,83.73,62.89,83.54,61.75z"/>
<path class="st4" d="M24.3,69.45c-0.24-1.43-2.61-2.71-4.46-2.65c-2.01,0.06-3.88,1.72-3.62,2.91c0.22,1,1.92,1.56,3.28,2.01
	c1.18,0.39,2.03,0.66,2.96,0.26C23.3,71.61,24.49,70.58,24.3,69.45z"/>
<path class="st4" d="M221.14,64.28c0.53-1.64-2.42-4.33-5.41-5.3c-3.25-1.06-7.29-0.36-7.63,1.04c-0.29,1.18,2.06,2.73,3.94,3.96
	c1.63,1.07,2.82,1.83,4.55,1.94C218.17,66.01,220.72,65.59,221.14,64.28z"/>
<path class="st4" d="M188.68,65.39c0.28-1.3-0.54-3.18-1.48-3.75c-1.02-0.62-2.41,0.18-2.61,1.28c-0.17,0.93,0.52,1.97,1.07,2.8
	c0.48,0.72,0.83,1.24,1.4,1.21C187.58,66.91,188.46,66.42,188.68,65.39z"/>
<path class="st4" d="M288.45,68.37c0.28-1.3-0.54-3.18-1.48-3.75c-1.02-0.62-2.41,0.18-2.61,1.28c-0.17,0.93,0.52,1.97,1.07,2.8
	c0.48,0.72,0.83,1.24,1.4,1.21C287.34,69.89,288.22,69.41,288.45,68.37z"/>
<path class="st4" d="M335.46,68.88c-0.67-1.15-2.54-1.99-3.62-1.77c-1.17,0.23-1.66,1.76-1.07,2.71c0.5,0.8,1.71,1.11,2.68,1.35
	c0.84,0.21,1.44,0.36,1.85-0.05C335.67,70.74,335.99,69.79,335.46,68.88z"/>
<path class="st4" d="M402.22,59.26c-1.3-0.25-3.16,0.62-3.71,1.58c-0.59,1.04,0.24,2.41,1.35,2.58c0.93,0.15,1.96-0.57,2.78-1.14
	c0.71-0.5,1.21-0.86,1.17-1.43C403.76,60.32,403.25,59.45,402.22,59.26z"/>
<path class="st4" d="M418.88,68.27c0.33-0.01,0.69,0.57,0.74,1.08c0.05,0.55-0.26,1.15-0.53,1.15c-0.23-0.01-0.41-0.44-0.55-0.79
	c-0.13-0.3-0.21-0.52-0.16-0.8C418.43,68.65,418.62,68.27,418.88,68.27z"/>
<path class="st4" d="M148.24,71.13c0.28-1.3-0.54-3.18-1.48-3.75c-1.02-0.62-2.41,0.18-2.61,1.28c-0.17,0.93,0.52,1.97,1.07,2.8
	c0.48,0.72,0.83,1.24,1.4,1.21C147.14,72.64,148.02,72.16,148.24,71.13z"/>
<path class="st4" d="M173.51,57.34c0.18-0.83-0.32-2.04-0.9-2.4c-0.63-0.39-1.49,0.12-1.62,0.83c-0.11,0.59,0.31,1.26,0.65,1.8
	c0.29,0.46,0.51,0.79,0.86,0.77C172.83,58.31,173.37,58,173.51,57.34z"/>
<path class="st4" d="M164.77,61.72c-0.53-0.67-1.77-1.05-2.42-0.84c-0.7,0.23-0.85,1.22-0.39,1.77c0.39,0.46,1.17,0.57,1.8,0.65
	c0.54,0.07,0.93,0.12,1.14-0.17C165.09,62.87,165.19,62.25,164.77,61.72z"/>
<path class="st4" d="M60.57,64.11c-0.53-0.67-1.77-1.05-2.42-0.84c-0.7,0.23-0.85,1.22-0.39,1.77c0.39,0.46,1.17,0.57,1.8,0.65
	c0.54,0.07,0.93,0.12,1.14-0.17C60.88,65.26,60.99,64.64,60.57,64.11z"/>
<path class="st4" d="M267.72,69c-0.53-0.67-1.77-1.05-2.42-0.84c-0.7,0.23-0.85,1.22-0.39,1.77c0.39,0.46,1.17,0.57,1.8,0.65
	c0.54,0.07,0.93,0.12,1.14-0.17C268.03,70.15,268.14,69.53,267.72,69z"/>
<path class="st4" d="M114.98,67.85c-0.53-0.67-1.77-1.05-2.42-0.84c-0.7,0.23-0.85,1.22-0.39,1.77c0.39,0.46,1.17,0.57,1.8,0.65
	c0.54,0.07,0.93,0.12,1.14-0.17C115.3,69,115.41,68.38,114.98,67.85z"/>
<path class="st4" d="M232,66.33c-0.69-0.5-1.99-0.54-2.56-0.16c-0.61,0.41-0.49,1.41,0.1,1.81c0.5,0.34,1.28,0.23,1.91,0.14
	c0.54-0.08,0.93-0.14,1.05-0.47C232.61,67.35,232.55,66.73,232,66.33z"/>
<path class="st4" d="M244.54,60.08c-0.69-0.5-1.99-0.54-2.56-0.16c-0.61,0.41-0.49,1.41,0.1,1.81c0.5,0.34,1.28,0.23,1.91,0.14
	c0.54-0.08,0.93-0.14,1.05-0.47C245.16,61.1,245.09,60.48,244.54,60.08z"/>
<path class="st4" d="M296.78,67.48c-0.69-0.5-1.99-0.54-2.56-0.16c-0.61,0.41-0.49,1.41,0.1,1.81c0.5,0.34,1.28,0.23,1.91,0.14
	c0.54-0.08,0.93-0.14,1.05-0.47C297.4,68.5,297.33,67.88,296.78,67.48z"/>
<path class="st4" d="M353.92,59.41c-0.69-0.5-1.99-0.54-2.56-0.16c-0.61,0.41-0.49,1.41,0.1,1.81c0.5,0.34,1.28,0.23,1.91,0.14
	c0.54-0.08,0.93-0.14,1.05-0.47C354.54,60.44,354.47,59.81,353.92,59.41z"/>
<path class="st4" d="M485.51,71.05c-0.69-0.5-1.99-0.54-2.56-0.16c-0.61,0.41-0.49,1.41,0.1,1.81c0.5,0.34,1.28,0.23,1.91,0.14
	c0.54-0.08,0.93-0.14,1.05-0.47C486.13,72.07,486.06,71.45,485.51,71.05z"/>
<path class="st4" d="M434.91,55.91c-0.69-0.5-1.99-0.54-2.56-0.16c-0.61,0.41-0.49,1.41,0.1,1.81c0.5,0.34,1.28,0.23,1.91,0.14
	c0.54-0.08,0.93-0.14,1.05-0.47C435.53,56.93,435.46,56.3,434.91,55.91z"/>
<path class="st4" d="M505.88,58.45c-0.9-0.68-2.75-0.52-3.63,0.18c-0.95,0.76-0.94,2.33-0.17,2.87c0.65,0.46,1.79,0.15,2.7-0.1
	c0.79-0.22,1.35-0.38,1.58-0.93C506.59,59.98,506.6,58.99,505.88,58.45z"/>
<path class="st4" d="M609.29,69.17c-0.9-0.68-2.75-0.52-3.63,0.18c-0.95,0.76-0.94,2.33-0.17,2.87c0.65,0.46,1.79,0.15,2.7-0.1
	c0.79-0.22,1.35-0.38,1.58-0.93C609.99,70.7,610,69.72,609.29,69.17z"/>
<path class="st4" d="M601.02,55.22c-0.9-0.68-2.75-0.52-3.63,0.18c-0.95,0.76-0.94,2.33-0.17,2.87c0.65,0.46,1.79,0.15,2.7-0.1
	c0.79-0.22,1.35-0.38,1.58-0.93C601.72,56.75,601.73,55.76,601.02,55.22z"/>
<path class="st4" d="M558.1,62.94c-0.9-0.68-2.75-0.52-3.63,0.18c-0.95,0.76-0.94,2.33-0.17,2.87c0.65,0.46,1.79,0.15,2.7-0.1
	c0.79-0.22,1.35-0.38,1.58-0.93C558.8,64.47,558.81,63.49,558.1,62.94z"/>
<path class="st4" d="M614.19,65.76c-0.9-0.63-2.46-0.88-3.07-0.58c-0.66,0.33-0.36,1.37,0.41,1.89c0.65,0.43,1.56,0.45,2.29,0.46
	c0.63,0.01,1.08,0.01,1.18-0.31C615.09,66.92,614.91,66.26,614.19,65.76z"/>
<path class="st4" d="M590.79,59.47c-0.42,0.03-0.88,0.58-0.94,1.04c-0.06,0.5,0.33,1,0.68,0.96c0.29-0.03,0.52-0.44,0.71-0.76
	c0.16-0.28,0.27-0.49,0.19-0.73C591.37,59.76,591.12,59.44,590.79,59.47z"/>
<path class="st4" d="M553.37,58.87c-0.44-0.31-1.22-0.4-1.54-0.23c-0.34,0.19-0.22,0.74,0.16,0.99c0.32,0.21,0.78,0.2,1.15,0.18
	c0.32-0.01,0.55-0.02,0.6-0.2C553.79,59.46,553.72,59.12,553.37,58.87z"/>
<path class="st4" d="M490.94,67.47c-0.4-1.05-2.07-1.89-3.18-1.76c-1.2,0.15-2.03,1.48-1.66,2.35c0.31,0.74,1.44,1.07,2.34,1.34
	c0.78,0.23,1.35,0.39,1.84,0.05C490.73,69.14,491.26,68.31,490.94,67.47z"/>
<path class="st4" d="M344,65.03c0.37-1.37-1.3-3.49-3.05-4.2c-1.9-0.77-4.33-0.06-4.59,1.11c-0.21,0.98,1.14,2.19,2.22,3.14
	c0.94,0.83,1.62,1.42,2.65,1.45C342.17,66.56,343.71,66.12,344,65.03z"/>
<g>
	<ellipse class="st5" cx="1695.79" cy="12.18" rx="10.08" ry="10.52"/>
	<ellipse class="st5" cx="1706.35" cy="14.73" rx="7.84" ry="8.18"/>
	<ellipse class="st5" cx="1686.4" cy="12.18" rx="9.38" ry="8.18"/>
	<ellipse class="st5" cx="1679.74" cy="15.71" rx="7.28" ry="6.99"/>
	<ellipse class="st5" cx="1700.12" cy="19.63" rx="7.28" ry="6.72"/>
	<ellipse class="st5" cx="1690.25" cy="18.87" rx="9.87" ry="8.4"/>
</g>
<path class="st6" d="M800.52,47.53c54.1-23.41,181.92-69.67,278.48-10.27c6.11,3.76,12.15,7.97,18.1,12.71"/>
<path class="st7" d="M1310.74,47.39c-22.74-13.64-92.63-51.47-182.6-37.99c-46.33,6.94-81.42,25-102.94,38.6"/>
<path class="st6" d="M1687.02,47.18C1708.9,35.89,1842.6-31,1927.84,28.59c7.32,5.11,14.55,11.35,21.45,19"/>
<path class="st7" d="M1920.14,50.78H0.14v-4.25c146.13-0.52,370.89-1.06,648.56-0.65c125.79,0.18,213.94,0.49,266.51,0.65
	c214.72,0.67,540.02,1.13,1004.93,0C1920.14,47.95,1920.14,49.36,1920.14,50.78z"/>
<g>
	<circle class="st8" cx="709.57" cy="12.88" r="8.03"/>
	<circle class="st8" cx="698.86" cy="14.9" r="6.32"/>
	<circle class="st8" cx="717.6" cy="16.34" r="7.04"/>
	<circle class="st8" cx="705.08" cy="19.83" r="6.95"/>
	<circle class="st8" cx="713.45" cy="21.55" r="5.22"/>
</g>
<g>
	<ellipse class="st8" cx="49.98" cy="11.84" rx="7.51" ry="6.11"/>
	<ellipse class="st8" cx="39.98" cy="13.38" rx="5.91" ry="4.81"/>
	<ellipse class="st8" cx="57.49" cy="14.46" rx="6.58" ry="5.35"/>
	<ellipse class="st8" cx="45.79" cy="17.12" rx="6.49" ry="5.28"/>
	<ellipse class="st8" cx="53.61" cy="18.43" rx="4.88" ry="3.96"/>
</g>
<g>
	<ellipse class="st8" cx="756.41" cy="16.45" rx="11.13" ry="9.66"/>
	<ellipse class="st8" cx="741.58" cy="18.89" rx="8.76" ry="7.6"/>
	<ellipse class="st8" cx="767.55" cy="20.61" rx="9.76" ry="8.47"/>
	<ellipse class="st8" cx="750.2" cy="24.81" rx="9.62" ry="8.35"/>
	<ellipse class="st8" cx="761.79" cy="26.89" rx="7.23" ry="6.27"/>
</g>
<g>
	<ellipse class="st5" cx="1356.47" cy="18.84" rx="8.16" ry="8.51"/>
	<ellipse class="st5" cx="1365.02" cy="20.9" rx="6.35" ry="6.62"/>
	<ellipse class="st5" cx="1348.88" cy="18.84" rx="7.59" ry="6.62"/>
	<ellipse class="st5" cx="1343.49" cy="21.69" rx="5.89" ry="5.66"/>
	<ellipse class="st5" cx="1359.98" cy="24.87" rx="5.89" ry="5.44"/>
	<ellipse class="st5" cx="1351.99" cy="24.26" rx="7.99" ry="6.8"/>
</g>
<g>
	<ellipse class="st5" cx="375.34" cy="14.13" rx="8.16" ry="8.51"/>
	<ellipse class="st5" cx="383.88" cy="16.19" rx="6.35" ry="6.62"/>
	<ellipse class="st5" cx="367.74" cy="14.13" rx="7.59" ry="6.62"/>
	<ellipse class="st5" cx="362.35" cy="16.99" rx="5.89" ry="5.66"/>
	<ellipse class="st5" cx="378.84" cy="20.16" rx="5.89" ry="5.44"/>
	<ellipse class="st5" cx="370.85" cy="19.55" rx="7.99" ry="6.8"/>
</g>
<g>
	<path class="st3" d="M39.95,33.34c1.54,0.83,1.05,8.89-4.99,11.9c-1.31,0.65-4.44,1.83-5.31,0.94
		C27.69,44.15,37.72,32.13,39.95,33.34z"/>
	<path class="st3" d="M21.1,33.34c-1.54,0.83-1.05,8.89,4.99,11.9c1.31,0.65,4.44,1.83,5.31,0.94
		C33.36,44.15,23.34,32.13,21.1,33.34z"/>
</g>
<g>
	<path class="st9" d="M1380.7,21.45c-0.07-0.41,6.44-2.09,8.48,1.4c0.37,0.64,0.45,1.64,0,1.92c-0.68,0.42-0.46-1.21-2.67-2.34
		C1382.24,20.28,1380.73,21.69,1380.7,21.45z"/>
	<path class="st9" d="M1389.46,5.94L1389.46,5.94c-0.46,0-0.25,0.32-0.25,0.72l-0.58,61.22h1.66l-0.6-61.22
		C1389.69,6.26,1389.92,5.94,1389.46,5.94z"/>
	<g>
		<path class="st10" d="M1389.47,17.24c-0.66,0.38-3.05-1.59-3.37-3.88c-0.05-0.33-0.14-1.03,0.18-1.21
			c0.52-0.3,1.93,0.79,2.66,2.05C1389.58,15.3,1389.97,16.96,1389.47,17.24z"/>
		<path class="st7" d="M1384.79,15.2c0.04,0.02,0.37-0.87,0.83-0.88c0.26-0.01,0.45,0.27,0.65,0.55c1.12,1.65,1.28,2.26,1.85,2.48
			c0.46,0.18,1.13,0.13,1.3-0.16c0.48-0.81-2.67-3.85-3.88-3.27c-0.14,0.07-0.24,0.18-0.3,0.27
			C1384.87,14.94,1384.77,15.19,1384.79,15.2z"/>
		<path class="st6" d="M1390.13,12.54c-0.01,0.04-0.94-0.21-1.22,0.14c-0.16,0.2-0.04,0.51,0.08,0.83c0.72,1.85,1.14,2.34,0.99,2.91
			c-0.12,0.47-0.55,0.97-0.89,0.94c-0.95-0.09-1.66-4.36-0.47-4.98c0.14-0.07,0.29-0.09,0.4-0.08
			C1389.88,12.46,1390.14,12.52,1390.13,12.54z"/>
	</g>
	<g>
		<path class="st10" d="M1388.73,28.94c-0.61,0.57-3.34-1.55-4-4.39c-0.1-0.41-0.3-1.27,0-1.55c0.48-0.45,2.07,0.71,3.01,2.19
			C1388.55,26.48,1389.19,28.51,1388.73,28.94z"/>
		<path class="st7" d="M1383.67,27.04c0.04,0.02,0.25-1.15,0.71-1.23c0.26-0.05,0.5,0.27,0.74,0.6c1.38,1.91,1.64,2.66,2.24,2.85
			c0.5,0.16,1.17,0,1.3-0.39c0.36-1.08-3.28-4.46-4.43-3.55c-0.13,0.11-0.22,0.26-0.27,0.39
			C1383.72,26.72,1383.65,27.04,1383.67,27.04z"/>
		<path class="st6" d="M1388.7,22.94c0,0.05-0.99-0.13-1.22,0.35c-0.13,0.27,0.03,0.65,0.21,1.03c1.01,2.22,1.51,2.77,1.44,3.51
			c-0.05,0.61-0.41,1.3-0.76,1.31c-0.98,0.02-2.33-5.24-1.22-6.19c0.13-0.11,0.28-0.15,0.4-0.16
			C1388.42,22.87,1388.7,22.91,1388.7,22.94z"/>
	</g>
	<g>
		<path class="st10" d="M1390.5,21.12c-0.76-0.03-0.91-2.71,0.67-4.63c0.23-0.28,0.7-0.86,1.08-0.85c0.6,0.02,0.74,1.55,0.27,2.87
			C1392.11,19.67,1391.07,21.14,1390.5,21.12z"/>
		<path class="st7" d="M1388.81,17.27c0.01,0.03,0.94-0.49,1.28-0.28c0.19,0.12,0.11,0.43,0.02,0.74c-0.5,1.82-0.87,2.37-0.65,2.81
			c0.19,0.36,0.69,0.65,1.04,0.51c0.97-0.39,1.14-4.27-0.17-4.41c-0.15-0.02-0.31,0.02-0.43,0.06
			C1389.06,17.11,1388.8,17.25,1388.81,17.27z"/>
		<path class="st6" d="M1394.66,17.82c-0.04,0.03-0.5-0.62-0.97-0.49c-0.27,0.08-0.43,0.38-0.6,0.68c-0.94,1.78-1.03,2.36-1.58,2.72
			c-0.45,0.3-1.15,0.48-1.37,0.29c-0.6-0.53,2.25-4.17,3.58-4.07c0.16,0.01,0.27,0.07,0.35,0.13
			C1394.54,17.63,1394.67,17.81,1394.66,17.82z"/>
	</g>
	<g>
		<path class="st10" d="M1390.32,34.63c-0.86-0.04-1.03-3.16,0.76-5.4c0.26-0.33,0.8-1,1.22-0.99c0.68,0.02,0.84,1.8,0.3,3.35
			C1392.14,32.94,1390.97,34.66,1390.32,34.63z"/>
		<path class="st7" d="M1388.4,30.14c0.01,0.04,1.07-0.57,1.45-0.32c0.21,0.14,0.13,0.5,0.03,0.86c-0.57,2.11-0.99,2.76-0.73,3.27
			c0.21,0.42,0.79,0.76,1.18,0.6c1.1-0.45,1.3-4.97-0.19-5.14c-0.17-0.02-0.35,0.02-0.48,0.07
			C1388.69,29.96,1388.39,30.12,1388.4,30.14z"/>
		<path class="st6" d="M1395.03,30.78c-0.04,0.03-0.56-0.72-1.1-0.57c-0.3,0.09-0.49,0.44-0.67,0.79c-1.07,2.07-1.17,2.74-1.79,3.17
			c-0.51,0.35-1.3,0.56-1.55,0.34c-0.68-0.62,2.55-4.85,4.06-4.74c0.18,0.01,0.3,0.09,0.39,0.16
			C1394.9,30.56,1395.05,30.77,1395.03,30.78z"/>
	</g>
	<g>
		<path class="st10" d="M1389.05,41.36c-0.61,0.54-3.33-1.46-4-4.14c-0.1-0.39-0.3-1.2,0-1.46c0.48-0.43,2.07,0.67,3.01,2.07
			C1388.87,39.03,1389.51,40.95,1389.05,41.36z"/>
		<path class="st7" d="M1384,39.57c0.04,0.01,0.25-1.08,0.71-1.16c0.26-0.05,0.5,0.25,0.74,0.56c1.38,1.8,1.64,2.51,2.24,2.69
			c0.49,0.15,1.17,0,1.3-0.36c0.36-1.02-3.28-4.2-4.42-3.35c-0.13,0.1-0.22,0.24-0.27,0.36C1384.04,39.26,1383.98,39.56,1384,39.57z
			"/>
		<path class="st6" d="M1389.02,35.7c0,0.05-0.99-0.12-1.22,0.33c-0.13,0.26,0.03,0.62,0.21,0.98c1.01,2.09,1.51,2.61,1.44,3.31
			c-0.05,0.57-0.41,1.23-0.76,1.24c-0.98,0.02-2.33-4.94-1.22-5.84c0.13-0.11,0.28-0.14,0.4-0.15
			C1388.75,35.63,1389.02,35.67,1389.02,35.7z"/>
	</g>
	<path class="st9" d="M1389.42,13.35c0.4,0.27,2.61-2.69,4.56-2.37c0.97,0.16,1.48,1.06,1.55,1.01c0.09-0.06-0.58-1.5-2-1.84
		c-2.18-0.52-3.97,2.06-4.1,2.34c-0.03,0.06-0.04,0.12-0.04,0.12C1389.29,12.89,1389.3,13.27,1389.42,13.35z"/>
	<path class="st9" d="M1389.41,10.06c0.3,0.25,2-2.48,3.49-2.19c0.74,0.14,1.14,0.98,1.19,0.93c0.07-0.06-0.44-1.38-1.53-1.7
		c-1.67-0.48-3.04,1.9-3.14,2.17c-0.02,0.05-0.03,0.11-0.03,0.11C1389.31,9.64,1389.32,9.99,1389.41,10.06z"/>
	<path class="st9" d="M1389.52,11.21c-0.34,0.21-1.58-2.71-3.1-2.61c-0.76,0.05-1.28,0.83-1.33,0.77c-0.06-0.07,0.66-1.31,1.79-1.49
		c1.73-0.27,2.7,2.26,2.76,2.54c0.01,0.05,0.02,0.11,0.02,0.11C1389.68,10.8,1389.62,11.15,1389.52,11.21z"/>
	<path class="st9" d="M1389.13,19.06c-0.64,0.22-2.29-4.4-4.99-4.63c-1.34-0.12-2.41,0.9-2.48,0.81c-0.09-0.11,1.4-1.78,3.42-1.75
		c3.1,0.04,4.35,4.02,4.4,4.44c0.01,0.08,0.01,0.17,0.01,0.17C1389.49,18.49,1389.32,18.99,1389.13,19.06z"/>
	<path class="st9" d="M1389.37,28.34c0.7,0.48,4.58-4.84,7.99-4.27c1.7,0.28,2.61,2.72,2.74,2.62c0.15-0.12-1.03-3.51-3.53-4.12
		c-3.83-0.94-6.96,3.71-7.19,4.22c-0.05,0.1-0.08,0.21-0.08,0.21C1389.16,27.51,1389.17,28.2,1389.37,28.34z"/>
	<path class="st9" d="M1389.26,34.15c-0.79,0.34-3.33-5.58-6.8-5.66c-1.73-0.04-3.2,2.18-3.3,2.06c-0.12-0.14,1.84-3.24,4.43-3.38
		c3.97-0.21,5.92,4.91,6.02,5.46c0.02,0.11,0.03,0.22,0.03,0.22C1389.67,33.38,1389.49,34.05,1389.26,34.15z"/>
	<path class="st9" d="M1389.38,22.48c1.37,0.73,4.08-4.05,5.39-4c1.3,0.06,2.55,2.63,2.64,2.54c0.11-0.1-0.77-3.1-2.64-3.64
		c-2.87-0.83-5.21,3.28-5.38,3.73c-0.03,0.09-0.06,0.19-0.06,0.19C1389.22,21.75,1389.2,22.39,1389.38,22.48z"/>
	<path class="st9" d="M1389.62,37.77c-0.59-0.74,0.99-3.15,3.16-3.88c1.45-0.49,1.97,0.17,3.87-0.31c2-0.51,2.99-1.64,3.15-1.51
		c0.22,0.18-1.38,2.6-3.87,3.22c-1.64,0.41-1.74,0.09-2.77,0.73c-1.17,0.73-1.73,1.81-2.64,2.01
		C1390.17,38.11,1389.79,37.98,1389.62,37.77z"/>
	<path class="st9" d="M1389.38,45.66c-0.76-0.97,1.24-3.3,3.81-4.14c1.72-0.56,2.16-0.35,4.43-0.88c2.38-0.56,4-3.01,4.2-2.84
		c0.28,0.23-2,4.31-4.97,4.98c-1.95,0.44-2.1,0.04-3.3,0.81c-1.37,0.88-1.99,2.23-3.07,2.44
		C1390.07,46.12,1389.6,45.94,1389.38,45.66z"/>
	<path class="st9" d="M1389.66,42.91c-0.5,0.79-3.64,0.59-5.33-0.8c-1.13-0.93-0.69-1.64-2.02-2.93c-1.4-1.36-2.98-1.65-2.92-1.83
		c0.08-0.25,3.26-0.05,4.98,1.66c1.13,1.12,0.86,1.34,1.96,1.88c1.26,0.61,2.61,0.58,3.2,1.21
		C1389.77,42.33,1389.81,42.69,1389.66,42.91z"/>
</g>
<g>
	<path class="st9" d="M1407.91,21.45c-0.07-0.41,6.44-2.09,8.48,1.4c0.37,0.64,0.45,1.64,0,1.92c-0.68,0.42-0.46-1.21-2.67-2.34
		C1409.45,20.28,1407.95,21.69,1407.91,21.45z"/>
	<path class="st9" d="M1416.67,5.94L1416.67,5.94c-0.46,0-0.25,0.32-0.25,0.72l-0.58,61.22h1.66l-0.6-61.22
		C1416.9,6.26,1417.13,5.94,1416.67,5.94z"/>
	<g>
		<path class="st10" d="M1416.68,17.24c-0.66,0.38-3.05-1.59-3.37-3.88c-0.05-0.33-0.14-1.03,0.18-1.21
			c0.52-0.3,1.93,0.79,2.66,2.05C1416.8,15.3,1417.18,16.96,1416.68,17.24z"/>
		<path class="st7" d="M1412,15.2c0.04,0.02,0.37-0.87,0.83-0.88c0.26-0.01,0.45,0.27,0.65,0.55c1.12,1.65,1.28,2.26,1.84,2.48
			c0.46,0.18,1.13,0.13,1.3-0.16c0.48-0.81-2.67-3.85-3.88-3.27c-0.14,0.07-0.24,0.18-0.3,0.27
			C1412.08,14.94,1411.98,15.19,1412,15.2z"/>
		<path class="st6" d="M1417.35,12.54c-0.01,0.04-0.94-0.21-1.22,0.14c-0.16,0.2-0.04,0.51,0.08,0.83c0.72,1.85,1.14,2.34,0.99,2.91
			c-0.12,0.47-0.55,0.97-0.89,0.94c-0.95-0.09-1.66-4.36-0.47-4.98c0.14-0.07,0.29-0.09,0.4-0.08
			C1417.09,12.46,1417.35,12.52,1417.35,12.54z"/>
	</g>
	<g>
		<path class="st10" d="M1415.94,28.94c-0.61,0.57-3.34-1.55-4-4.39c-0.1-0.41-0.3-1.27,0-1.55c0.48-0.45,2.07,0.71,3.01,2.19
			C1415.76,26.48,1416.4,28.51,1415.94,28.94z"/>
		<path class="st7" d="M1410.89,27.04c0.04,0.02,0.25-1.15,0.71-1.23c0.26-0.05,0.5,0.27,0.74,0.6c1.38,1.91,1.64,2.66,2.24,2.85
			c0.5,0.16,1.17,0,1.3-0.39c0.36-1.08-3.28-4.46-4.43-3.55c-0.13,0.11-0.22,0.26-0.27,0.39
			C1410.93,26.72,1410.87,27.04,1410.89,27.04z"/>
		<path class="st6" d="M1415.91,22.94c0,0.05-0.99-0.13-1.22,0.35c-0.13,0.27,0.03,0.65,0.21,1.03c1.01,2.22,1.51,2.77,1.44,3.51
			c-0.05,0.61-0.41,1.3-0.76,1.31c-0.98,0.02-2.33-5.24-1.22-6.19c0.13-0.11,0.28-0.15,0.4-0.16
			C1415.64,22.87,1415.91,22.91,1415.91,22.94z"/>
	</g>
	<g>
		<path class="st10" d="M1417.71,21.12c-0.76-0.03-0.91-2.71,0.67-4.63c0.23-0.28,0.7-0.86,1.08-0.85c0.6,0.02,0.74,1.55,0.27,2.87
			C1419.32,19.67,1418.29,21.14,1417.71,21.12z"/>
		<path class="st7" d="M1416.02,17.27c0.01,0.03,0.94-0.49,1.28-0.28c0.19,0.12,0.11,0.43,0.02,0.74c-0.5,1.82-0.87,2.37-0.65,2.81
			c0.19,0.36,0.69,0.65,1.04,0.51c0.97-0.39,1.14-4.27-0.17-4.41c-0.15-0.02-0.31,0.02-0.43,0.06
			C1416.28,17.11,1416.02,17.25,1416.02,17.27z"/>
		<path class="st6" d="M1421.87,17.82c-0.04,0.03-0.5-0.62-0.97-0.49c-0.27,0.08-0.43,0.38-0.6,0.68c-0.94,1.78-1.03,2.36-1.58,2.72
			c-0.45,0.3-1.15,0.48-1.37,0.29c-0.6-0.53,2.25-4.17,3.58-4.07c0.16,0.01,0.27,0.07,0.35,0.13
			C1421.75,17.63,1421.89,17.81,1421.87,17.82z"/>
	</g>
	<g>
		<path class="st10" d="M1417.53,34.63c-0.86-0.04-1.03-3.16,0.76-5.4c0.26-0.33,0.8-1,1.22-0.99c0.68,0.02,0.84,1.8,0.3,3.35
			C1419.35,32.94,1418.18,34.66,1417.53,34.63z"/>
		<path class="st7" d="M1415.61,30.14c0.01,0.04,1.07-0.57,1.45-0.32c0.21,0.14,0.13,0.5,0.03,0.86c-0.57,2.11-0.99,2.76-0.73,3.27
			c0.21,0.42,0.79,0.76,1.18,0.6c1.1-0.45,1.3-4.97-0.19-5.14c-0.17-0.02-0.35,0.02-0.48,0.07
			C1415.9,29.96,1415.61,30.12,1415.61,30.14z"/>
		<path class="st6" d="M1422.24,30.78c-0.04,0.03-0.56-0.72-1.1-0.57c-0.3,0.09-0.49,0.44-0.67,0.79c-1.07,2.07-1.17,2.74-1.79,3.17
			c-0.51,0.35-1.31,0.56-1.55,0.34c-0.68-0.62,2.55-4.85,4.06-4.74c0.18,0.01,0.3,0.09,0.39,0.16
			C1422.11,30.56,1422.26,30.77,1422.24,30.78z"/>
	</g>
	<g>
		<path class="st10" d="M1416.27,41.36c-0.61,0.54-3.33-1.46-4-4.14c-0.1-0.39-0.3-1.2,0-1.46c0.48-0.43,2.07,0.67,3.01,2.07
			C1416.09,39.03,1416.73,40.95,1416.27,41.36z"/>
		<path class="st7" d="M1411.21,39.57c0.04,0.01,0.25-1.08,0.71-1.16c0.26-0.05,0.5,0.25,0.74,0.56c1.38,1.8,1.64,2.51,2.24,2.69
			c0.49,0.15,1.17,0,1.3-0.36c0.36-1.02-3.28-4.2-4.42-3.35c-0.13,0.1-0.22,0.24-0.27,0.36
			C1411.26,39.26,1411.19,39.56,1411.21,39.57z"/>
		<path class="st6" d="M1416.23,35.7c0,0.05-0.99-0.12-1.22,0.33c-0.13,0.26,0.03,0.62,0.21,0.98c1.01,2.09,1.51,2.61,1.44,3.31
			c-0.05,0.57-0.41,1.23-0.76,1.24c-0.98,0.02-2.33-4.94-1.22-5.84c0.13-0.11,0.28-0.14,0.4-0.15
			C1415.96,35.63,1416.23,35.67,1416.23,35.7z"/>
	</g>
	<path class="st9" d="M1416.63,13.35c0.4,0.27,2.61-2.69,4.56-2.37c0.97,0.16,1.48,1.06,1.55,1.01c0.09-0.06-0.58-1.5-2-1.84
		c-2.18-0.52-3.97,2.06-4.1,2.34c-0.03,0.06-0.04,0.12-0.04,0.12C1416.5,12.89,1416.51,13.27,1416.63,13.35z"/>
	<path class="st9" d="M1416.62,10.06c0.3,0.25,2-2.48,3.49-2.19c0.74,0.14,1.14,0.98,1.19,0.93c0.07-0.06-0.44-1.38-1.53-1.7
		c-1.67-0.48-3.04,1.9-3.14,2.17c-0.02,0.05-0.03,0.11-0.03,0.11C1416.53,9.64,1416.53,9.99,1416.62,10.06z"/>
	<path class="st9" d="M1416.74,11.21c-0.34,0.21-1.58-2.71-3.1-2.61c-0.76,0.05-1.28,0.83-1.33,0.77c-0.06-0.07,0.66-1.31,1.79-1.49
		c1.73-0.27,2.7,2.26,2.76,2.54c0.01,0.05,0.02,0.11,0.02,0.11C1416.9,10.8,1416.83,11.15,1416.74,11.21z"/>
	<path class="st9" d="M1416.35,19.06c-0.64,0.22-2.29-4.4-4.99-4.63c-1.34-0.12-2.41,0.9-2.48,0.81c-0.09-0.11,1.4-1.78,3.42-1.75
		c3.1,0.04,4.35,4.02,4.4,4.44c0.01,0.08,0.01,0.17,0.01,0.17C1416.7,18.49,1416.53,18.99,1416.35,19.06z"/>
	<path class="st9" d="M1416.59,28.34c0.7,0.48,4.58-4.84,7.99-4.27c1.7,0.28,2.61,2.72,2.74,2.62c0.15-0.12-1.03-3.51-3.53-4.12
		c-3.83-0.94-6.96,3.71-7.19,4.22c-0.05,0.1-0.08,0.21-0.08,0.21C1416.37,27.51,1416.38,28.2,1416.59,28.34z"/>
	<path class="st9" d="M1416.47,34.15c-0.79,0.34-3.33-5.58-6.8-5.66c-1.73-0.04-3.2,2.18-3.3,2.06c-0.12-0.14,1.84-3.24,4.43-3.38
		c3.97-0.21,5.92,4.91,6.02,5.46c0.02,0.11,0.03,0.22,0.03,0.22C1416.88,33.38,1416.71,34.05,1416.47,34.15z"/>
	<path class="st9" d="M1416.59,22.48c1.37,0.73,4.08-4.05,5.39-4c1.3,0.06,2.55,2.63,2.64,2.54c0.11-0.1-0.77-3.1-2.64-3.64
		c-2.87-0.83-5.21,3.28-5.38,3.73c-0.03,0.09-0.06,0.19-0.06,0.19C1416.43,21.75,1416.42,22.39,1416.59,22.48z"/>
	<path class="st9" d="M1416.83,37.77c-0.59-0.74,0.99-3.15,3.16-3.88c1.45-0.49,1.97,0.17,3.87-0.31c2-0.51,2.99-1.64,3.15-1.51
		c0.22,0.18-1.38,2.6-3.87,3.22c-1.64,0.41-1.74,0.09-2.77,0.73c-1.17,0.73-1.73,1.81-2.64,2.01
		C1417.39,38.11,1417,37.98,1416.83,37.77z"/>
	<path class="st9" d="M1416.6,45.66c-0.76-0.97,1.24-3.3,3.81-4.14c1.72-0.56,2.16-0.35,4.43-0.88c2.38-0.56,4-3.01,4.2-2.84
		c0.28,0.23-2,4.31-4.97,4.98c-1.95,0.44-2.1,0.04-3.3,0.81c-1.37,0.88-1.99,2.23-3.07,2.44
		C1417.28,46.12,1416.81,45.94,1416.6,45.66z"/>
	<path class="st9" d="M1416.88,42.91c-0.5,0.79-3.64,0.59-5.33-0.8c-1.13-0.93-0.69-1.64-2.02-2.93c-1.4-1.36-2.98-1.65-2.92-1.83
		c0.08-0.25,3.26-0.05,4.98,1.66c1.13,1.12,0.86,1.34,1.96,1.88c1.26,0.61,2.61,0.58,3.2,1.21
		C1416.98,42.33,1417.02,42.69,1416.88,42.91z"/>
</g>
<g>
	<path class="st9" d="M1435.12,21.45c-0.07-0.41,6.44-2.09,8.48,1.4c0.37,0.64,0.45,1.64,0,1.92c-0.68,0.42-0.46-1.21-2.67-2.34
		C1436.67,20.28,1435.16,21.69,1435.12,21.45z"/>
	<path class="st9" d="M1443.88,5.94L1443.88,5.94c-0.46,0-0.25,0.32-0.25,0.72l-0.58,61.22h1.66l-0.6-61.22
		C1444.12,6.26,1444.34,5.94,1443.88,5.94z"/>
	<g>
		<path class="st10" d="M1443.9,17.24c-0.66,0.38-3.05-1.59-3.37-3.88c-0.05-0.33-0.14-1.03,0.18-1.21c0.52-0.3,1.93,0.79,2.66,2.05
			C1444.01,15.3,1444.39,16.96,1443.9,17.24z"/>
		<path class="st7" d="M1439.22,15.2c0.04,0.02,0.37-0.87,0.83-0.88c0.26-0.01,0.45,0.27,0.65,0.55c1.12,1.65,1.28,2.26,1.84,2.48
			c0.46,0.18,1.13,0.13,1.3-0.16c0.48-0.81-2.67-3.85-3.88-3.27c-0.14,0.07-0.24,0.18-0.3,0.27
			C1439.29,14.94,1439.2,15.19,1439.22,15.2z"/>
		<path class="st6" d="M1444.56,12.54c-0.01,0.04-0.94-0.21-1.22,0.14c-0.16,0.2-0.04,0.51,0.08,0.83c0.72,1.85,1.14,2.34,0.99,2.91
			c-0.12,0.47-0.55,0.97-0.89,0.94c-0.95-0.09-1.66-4.36-0.47-4.98c0.14-0.07,0.29-0.09,0.4-0.08
			C1444.3,12.46,1444.56,12.52,1444.56,12.54z"/>
	</g>
	<g>
		<path class="st10" d="M1443.15,28.94c-0.61,0.57-3.34-1.55-4-4.39c-0.1-0.41-0.3-1.27,0-1.55c0.48-0.45,2.07,0.71,3.01,2.19
			C1442.98,26.48,1443.62,28.51,1443.15,28.94z"/>
		<path class="st7" d="M1438.1,27.04c0.04,0.02,0.25-1.15,0.71-1.23c0.26-0.05,0.5,0.27,0.74,0.6c1.38,1.91,1.64,2.66,2.24,2.85
			c0.5,0.16,1.17,0,1.3-0.39c0.36-1.08-3.28-4.46-4.43-3.55c-0.13,0.11-0.22,0.26-0.27,0.39
			C1438.14,26.72,1438.08,27.04,1438.1,27.04z"/>
		<path class="st6" d="M1443.12,22.94c0,0.05-0.99-0.13-1.22,0.35c-0.13,0.27,0.03,0.65,0.21,1.03c1.01,2.22,1.51,2.77,1.44,3.51
			c-0.05,0.61-0.41,1.3-0.76,1.31c-0.98,0.02-2.33-5.24-1.22-6.19c0.13-0.11,0.28-0.15,0.4-0.16
			C1442.85,22.87,1443.12,22.91,1443.12,22.94z"/>
	</g>
	<g>
		<path class="st10" d="M1444.93,21.12c-0.76-0.03-0.91-2.71,0.67-4.63c0.23-0.28,0.7-0.86,1.08-0.85c0.6,0.02,0.74,1.55,0.27,2.87
			C1446.53,19.67,1445.5,21.14,1444.93,21.12z"/>
		<path class="st7" d="M1443.24,17.27c0.01,0.03,0.94-0.49,1.28-0.28c0.19,0.12,0.11,0.43,0.02,0.74c-0.5,1.82-0.87,2.37-0.65,2.81
			c0.19,0.36,0.69,0.65,1.04,0.51c0.97-0.39,1.14-4.27-0.17-4.41c-0.15-0.02-0.31,0.02-0.43,0.06
			C1443.49,17.11,1443.23,17.25,1443.24,17.27z"/>
		<path class="st6" d="M1449.08,17.82c-0.04,0.03-0.5-0.62-0.97-0.49c-0.27,0.08-0.43,0.38-0.6,0.68c-0.94,1.78-1.03,2.36-1.58,2.72
			c-0.45,0.3-1.15,0.48-1.37,0.29c-0.6-0.53,2.25-4.17,3.58-4.07c0.16,0.01,0.27,0.07,0.35,0.13
			C1448.97,17.63,1449.1,17.81,1449.08,17.82z"/>
	</g>
	<g>
		<path class="st10" d="M1444.74,34.63c-0.86-0.04-1.03-3.16,0.76-5.4c0.26-0.33,0.8-1,1.22-0.99c0.68,0.02,0.84,1.8,0.3,3.35
			C1446.57,32.94,1445.39,34.66,1444.74,34.63z"/>
		<path class="st7" d="M1442.83,30.14c0.01,0.04,1.07-0.57,1.45-0.32c0.21,0.14,0.13,0.5,0.03,0.86c-0.57,2.11-0.99,2.76-0.73,3.27
			c0.21,0.42,0.79,0.76,1.18,0.6c1.1-0.45,1.3-4.97-0.19-5.14c-0.17-0.02-0.35,0.02-0.48,0.07
			C1443.11,29.96,1442.82,30.12,1442.83,30.14z"/>
		<path class="st6" d="M1449.46,30.78c-0.04,0.03-0.56-0.72-1.1-0.57c-0.3,0.09-0.49,0.44-0.67,0.79c-1.07,2.07-1.17,2.74-1.79,3.17
			c-0.51,0.35-1.31,0.56-1.55,0.34c-0.68-0.62,2.55-4.85,4.06-4.74c0.18,0.01,0.3,0.09,0.39,0.16
			C1449.33,30.56,1449.48,30.77,1449.46,30.78z"/>
	</g>
	<g>
		<path class="st10" d="M1443.48,41.36c-0.61,0.54-3.33-1.46-4-4.14c-0.1-0.39-0.3-1.2,0-1.46c0.48-0.43,2.07,0.67,3.01,2.07
			C1443.3,39.03,1443.94,40.95,1443.48,41.36z"/>
		<path class="st7" d="M1438.43,39.57c0.04,0.01,0.25-1.08,0.71-1.16c0.26-0.05,0.5,0.25,0.74,0.56c1.38,1.8,1.64,2.51,2.24,2.69
			c0.49,0.15,1.17,0,1.3-0.36c0.36-1.02-3.28-4.2-4.42-3.35c-0.13,0.1-0.22,0.24-0.27,0.36
			C1438.47,39.26,1438.41,39.56,1438.43,39.57z"/>
		<path class="st6" d="M1443.45,35.7c0,0.05-0.99-0.12-1.22,0.33c-0.13,0.26,0.03,0.62,0.21,0.98c1.01,2.09,1.51,2.61,1.44,3.31
			c-0.05,0.57-0.41,1.23-0.76,1.24c-0.98,0.02-2.33-4.94-1.22-5.84c0.13-0.11,0.28-0.14,0.4-0.15
			C1443.17,35.63,1443.45,35.67,1443.45,35.7z"/>
	</g>
	<path class="st9" d="M1443.84,13.35c0.4,0.27,2.61-2.69,4.56-2.37c0.97,0.16,1.48,1.06,1.55,1.01c0.09-0.06-0.58-1.5-2-1.84
		c-2.18-0.52-3.97,2.06-4.1,2.34c-0.03,0.06-0.04,0.12-0.04,0.12C1443.72,12.89,1443.73,13.27,1443.84,13.35z"/>
	<path class="st9" d="M1443.83,10.06c0.3,0.25,2-2.48,3.49-2.19c0.74,0.14,1.14,0.98,1.19,0.93c0.07-0.06-0.44-1.38-1.53-1.7
		c-1.67-0.48-3.04,1.9-3.14,2.17c-0.02,0.05-0.03,0.11-0.03,0.11C1443.74,9.64,1443.75,9.99,1443.83,10.06z"/>
	<path class="st9" d="M1443.95,11.21c-0.34,0.21-1.58-2.71-3.1-2.61c-0.76,0.05-1.28,0.83-1.33,0.77c-0.06-0.07,0.66-1.31,1.79-1.49
		c1.73-0.27,2.7,2.26,2.76,2.54c0.01,0.05,0.02,0.11,0.02,0.11C1444.11,10.8,1444.05,11.15,1443.95,11.21z"/>
	<path class="st9" d="M1443.56,19.06c-0.64,0.22-2.29-4.4-4.99-4.63c-1.34-0.12-2.41,0.9-2.48,0.81c-0.09-0.11,1.4-1.78,3.42-1.75
		c3.1,0.04,4.35,4.02,4.4,4.44c0.01,0.08,0.01,0.17,0.01,0.17C1443.92,18.49,1443.74,18.99,1443.56,19.06z"/>
	<path class="st9" d="M1443.8,28.34c0.7,0.48,4.58-4.84,7.99-4.27c1.7,0.28,2.61,2.72,2.74,2.62c0.15-0.12-1.03-3.51-3.53-4.12
		c-3.83-0.94-6.96,3.71-7.19,4.22c-0.05,0.1-0.08,0.21-0.08,0.21C1443.58,27.51,1443.6,28.2,1443.8,28.34z"/>
	<path class="st9" d="M1443.69,34.15c-0.79,0.34-3.33-5.58-6.8-5.66c-1.73-0.04-3.2,2.18-3.3,2.06c-0.12-0.14,1.84-3.24,4.43-3.38
		c3.97-0.21,5.92,4.91,6.02,5.46c0.02,0.11,0.03,0.22,0.03,0.22C1444.1,33.38,1443.92,34.05,1443.69,34.15z"/>
	<path class="st9" d="M1443.8,22.48c1.37,0.73,4.08-4.05,5.39-4c1.3,0.06,2.55,2.63,2.64,2.54c0.11-0.1-0.77-3.1-2.64-3.64
		c-2.87-0.83-5.21,3.28-5.38,3.73c-0.03,0.09-0.06,0.19-0.06,0.19C1443.64,21.75,1443.63,22.39,1443.8,22.48z"/>
	<path class="st9" d="M1444.05,37.77c-0.59-0.74,0.99-3.15,3.16-3.88c1.45-0.49,1.97,0.17,3.87-0.31c2-0.51,2.99-1.64,3.15-1.51
		c0.22,0.18-1.38,2.6-3.87,3.22c-1.64,0.41-1.74,0.09-2.77,0.73c-1.17,0.73-1.73,1.81-2.64,2.01
		C1444.6,38.11,1444.21,37.98,1444.05,37.77z"/>
	<path class="st9" d="M1443.81,45.66c-0.76-0.97,1.24-3.3,3.81-4.14c1.72-0.56,2.16-0.35,4.43-0.88c2.38-0.56,4-3.01,4.2-2.84
		c0.28,0.23-2,4.31-4.97,4.98c-1.95,0.44-2.1,0.04-3.3,0.81c-1.37,0.88-1.99,2.23-3.07,2.44
		C1444.5,46.12,1444.02,45.94,1443.81,45.66z"/>
	<path class="st9" d="M1444.09,42.91c-0.5,0.79-3.64,0.59-5.33-0.8c-1.13-0.93-0.69-1.64-2.02-2.93c-1.4-1.36-2.98-1.65-2.92-1.83
		c0.08-0.25,3.26-0.05,4.98,1.66c1.13,1.12,0.86,1.34,1.96,1.88c1.26,0.61,2.61,0.58,3.2,1.21
		C1444.19,42.33,1444.23,42.69,1444.09,42.91z"/>
</g>
<g>
	<path class="st9" d="M1462.33,21.45c-0.07-0.41,6.44-2.09,8.48,1.4c0.37,0.64,0.45,1.64,0,1.92c-0.68,0.42-0.46-1.21-2.67-2.34
		C1463.88,20.28,1462.37,21.69,1462.33,21.45z"/>
	<path class="st9" d="M1471.1,5.94L1471.1,5.94c-0.46,0-0.25,0.32-0.25,0.72l-0.58,61.22h1.66l-0.6-61.22
		C1471.33,6.26,1471.55,5.94,1471.1,5.94z"/>
	<g>
		<path class="st10" d="M1471.11,17.24c-0.66,0.38-3.05-1.59-3.37-3.88c-0.05-0.33-0.14-1.03,0.18-1.21
			c0.52-0.3,1.93,0.79,2.66,2.05C1471.22,15.3,1471.61,16.96,1471.11,17.24z"/>
		<path class="st7" d="M1466.43,15.2c0.04,0.02,0.37-0.87,0.83-0.88c0.26-0.01,0.45,0.27,0.65,0.55c1.12,1.65,1.28,2.26,1.85,2.48
			c0.46,0.18,1.13,0.13,1.3-0.16c0.48-0.81-2.67-3.85-3.88-3.27c-0.14,0.07-0.24,0.18-0.3,0.27
			C1466.51,14.94,1466.41,15.19,1466.43,15.2z"/>
		<path class="st6" d="M1471.77,12.54c-0.01,0.04-0.94-0.21-1.22,0.14c-0.16,0.2-0.04,0.51,0.08,0.83c0.72,1.85,1.14,2.34,0.99,2.91
			c-0.12,0.47-0.55,0.97-0.89,0.94c-0.95-0.09-1.66-4.36-0.47-4.98c0.14-0.07,0.29-0.09,0.4-0.08
			C1471.52,12.46,1471.78,12.52,1471.77,12.54z"/>
	</g>
	<g>
		<path class="st10" d="M1470.37,28.94c-0.61,0.57-3.34-1.55-4-4.39c-0.1-0.41-0.3-1.27,0-1.55c0.48-0.45,2.07,0.71,3.01,2.19
			C1470.19,26.48,1470.83,28.51,1470.37,28.94z"/>
		<path class="st7" d="M1465.31,27.04c0.04,0.02,0.25-1.15,0.71-1.23c0.26-0.05,0.5,0.27,0.74,0.6c1.38,1.91,1.64,2.66,2.24,2.85
			c0.5,0.16,1.17,0,1.3-0.39c0.36-1.08-3.28-4.46-4.43-3.55c-0.13,0.11-0.22,0.26-0.27,0.39
			C1465.35,26.72,1465.29,27.04,1465.31,27.04z"/>
		<path class="st6" d="M1470.33,22.94c0,0.05-0.99-0.13-1.22,0.35c-0.13,0.27,0.03,0.65,0.21,1.03c1.01,2.22,1.51,2.77,1.44,3.51
			c-0.05,0.61-0.41,1.3-0.76,1.31c-0.98,0.02-2.33-5.24-1.22-6.19c0.13-0.11,0.28-0.15,0.4-0.16
			C1470.06,22.87,1470.34,22.91,1470.33,22.94z"/>
	</g>
	<g>
		<path class="st10" d="M1472.14,21.12c-0.76-0.03-0.91-2.71,0.67-4.63c0.23-0.28,0.7-0.86,1.08-0.85c0.6,0.02,0.74,1.55,0.27,2.87
			C1473.75,19.67,1472.71,21.14,1472.14,21.12z"/>
		<path class="st7" d="M1470.45,17.27c0.01,0.03,0.94-0.49,1.28-0.28c0.19,0.12,0.11,0.43,0.02,0.74c-0.5,1.82-0.87,2.37-0.65,2.81
			c0.19,0.36,0.69,0.65,1.04,0.51c0.97-0.39,1.14-4.27-0.17-4.41c-0.15-0.02-0.31,0.02-0.43,0.06
			C1470.7,17.11,1470.44,17.25,1470.45,17.27z"/>
		<path class="st6" d="M1476.29,17.82c-0.04,0.03-0.5-0.62-0.97-0.49c-0.27,0.08-0.43,0.38-0.6,0.68c-0.94,1.78-1.03,2.36-1.58,2.72
			c-0.45,0.3-1.15,0.48-1.37,0.29c-0.6-0.53,2.25-4.17,3.58-4.07c0.16,0.01,0.27,0.07,0.35,0.13
			C1476.18,17.63,1476.31,17.81,1476.29,17.82z"/>
	</g>
	<g>
		<path class="st10" d="M1471.96,34.63c-0.86-0.04-1.03-3.16,0.76-5.4c0.26-0.33,0.8-1,1.22-0.99c0.68,0.02,0.84,1.8,0.3,3.35
			C1473.78,32.94,1472.61,34.66,1471.96,34.63z"/>
		<path class="st7" d="M1470.04,30.14c0.01,0.04,1.07-0.57,1.45-0.32c0.21,0.14,0.13,0.5,0.03,0.86c-0.57,2.11-0.99,2.76-0.73,3.27
			c0.21,0.42,0.79,0.76,1.18,0.6c1.1-0.45,1.3-4.97-0.19-5.14c-0.17-0.02-0.35,0.02-0.48,0.07
			C1470.33,29.96,1470.03,30.12,1470.04,30.14z"/>
		<path class="st6" d="M1476.67,30.78c-0.04,0.03-0.56-0.72-1.1-0.57c-0.3,0.09-0.49,0.44-0.67,0.79c-1.07,2.07-1.17,2.74-1.79,3.17
			c-0.51,0.35-1.31,0.56-1.55,0.34c-0.68-0.62,2.55-4.85,4.06-4.74c0.18,0.01,0.3,0.09,0.39,0.16
			C1476.54,30.56,1476.69,30.77,1476.67,30.78z"/>
	</g>
	<g>
		<path class="st10" d="M1470.69,41.36c-0.61,0.54-3.33-1.46-4-4.14c-0.1-0.39-0.3-1.2,0-1.46c0.48-0.43,2.07,0.67,3.01,2.07
			C1470.51,39.03,1471.15,40.95,1470.69,41.36z"/>
		<path class="st7" d="M1465.64,39.57c0.04,0.01,0.25-1.08,0.71-1.16c0.26-0.05,0.5,0.25,0.74,0.56c1.38,1.8,1.64,2.51,2.24,2.69
			c0.49,0.15,1.17,0,1.3-0.36c0.36-1.02-3.28-4.2-4.42-3.35c-0.13,0.1-0.21,0.24-0.27,0.36
			C1465.68,39.26,1465.62,39.56,1465.64,39.57z"/>
		<path class="st6" d="M1470.66,35.7c0,0.05-0.99-0.12-1.22,0.33c-0.13,0.26,0.03,0.62,0.21,0.98c1.01,2.09,1.51,2.61,1.44,3.31
			c-0.05,0.57-0.41,1.23-0.76,1.24c-0.98,0.02-2.33-4.94-1.22-5.84c0.13-0.11,0.28-0.14,0.4-0.15
			C1470.39,35.63,1470.66,35.67,1470.66,35.7z"/>
	</g>
	<path class="st9" d="M1471.05,13.35c0.4,0.27,2.61-2.69,4.56-2.37c0.97,0.16,1.48,1.06,1.55,1.01c0.09-0.06-0.58-1.5-2-1.84
		c-2.18-0.52-3.97,2.06-4.1,2.34c-0.03,0.06-0.04,0.12-0.04,0.12C1470.93,12.89,1470.94,13.27,1471.05,13.35z"/>
	<path class="st9" d="M1471.05,10.06c0.3,0.25,2-2.48,3.49-2.19c0.74,0.14,1.14,0.98,1.19,0.93c0.07-0.06-0.44-1.38-1.53-1.7
		c-1.67-0.48-3.04,1.9-3.14,2.17c-0.02,0.05-0.03,0.11-0.03,0.11C1470.95,9.64,1470.96,9.99,1471.05,10.06z"/>
	<path class="st9" d="M1471.16,11.21c-0.34,0.21-1.58-2.71-3.1-2.61c-0.76,0.05-1.28,0.83-1.33,0.77c-0.06-0.07,0.66-1.31,1.79-1.49
		c1.73-0.27,2.7,2.26,2.76,2.54c0.01,0.05,0.02,0.11,0.02,0.11C1471.32,10.8,1471.26,11.15,1471.16,11.21z"/>
	<path class="st9" d="M1470.77,19.06c-0.64,0.22-2.29-4.4-4.99-4.63c-1.34-0.12-2.41,0.9-2.48,0.81c-0.09-0.11,1.4-1.78,3.42-1.75
		c3.1,0.04,4.35,4.02,4.4,4.44c0.01,0.08,0.01,0.17,0.01,0.17C1471.13,18.49,1470.96,18.99,1470.77,19.06z"/>
	<path class="st9" d="M1471.01,28.34c0.7,0.48,4.58-4.84,7.99-4.27c1.7,0.28,2.61,2.72,2.74,2.62c0.15-0.12-1.03-3.51-3.53-4.12
		c-3.83-0.94-6.96,3.71-7.19,4.22c-0.05,0.1-0.08,0.21-0.08,0.21C1470.8,27.51,1470.81,28.2,1471.01,28.34z"/>
	<path class="st9" d="M1470.9,34.15c-0.79,0.34-3.33-5.58-6.8-5.66c-1.73-0.04-3.2,2.18-3.3,2.06c-0.12-0.14,1.84-3.24,4.43-3.38
		c3.97-0.21,5.92,4.91,6.02,5.46c0.02,0.11,0.03,0.22,0.03,0.22C1471.31,33.38,1471.13,34.05,1470.9,34.15z"/>
	<path class="st9" d="M1471.02,22.48c1.37,0.73,4.08-4.05,5.39-4c1.3,0.06,2.55,2.63,2.64,2.54c0.11-0.1-0.77-3.1-2.64-3.64
		c-2.87-0.83-5.21,3.28-5.38,3.73c-0.03,0.09-0.06,0.19-0.06,0.19C1470.86,21.75,1470.84,22.39,1471.02,22.48z"/>
	<path class="st9" d="M1471.26,37.77c-0.59-0.74,0.99-3.15,3.16-3.88c1.45-0.49,1.97,0.17,3.87-0.31c2-0.51,2.99-1.64,3.15-1.51
		c0.22,0.18-1.38,2.6-3.87,3.22c-1.64,0.41-1.74,0.09-2.77,0.73c-1.17,0.73-1.73,1.81-2.64,2.01
		C1471.81,38.11,1471.43,37.98,1471.26,37.77z"/>
	<path class="st9" d="M1471.02,45.66c-0.76-0.97,1.24-3.3,3.81-4.14c1.72-0.56,2.16-0.35,4.43-0.88c2.38-0.56,4-3.01,4.2-2.84
		c0.28,0.23-2,4.31-4.97,4.98c-1.95,0.44-2.1,0.04-3.3,0.81c-1.37,0.88-1.99,2.23-3.07,2.44
		C1471.71,46.12,1471.24,45.94,1471.02,45.66z"/>
	<path class="st9" d="M1471.3,42.91c-0.5,0.79-3.64,0.59-5.33-0.8c-1.13-0.93-0.69-1.64-2.02-2.93c-1.4-1.36-2.98-1.65-2.92-1.83
		c0.08-0.25,3.26-0.05,4.98,1.66c1.13,1.12,0.86,1.34,1.96,1.88c1.26,0.61,2.61,0.58,3.2,1.21
		C1471.41,42.33,1471.44,42.69,1471.3,42.91z"/>
</g>
<g>
	<path class="st9" d="M1489.55,21.45c-0.07-0.41,6.44-2.09,8.48,1.4c0.37,0.64,0.45,1.64,0,1.92c-0.68,0.42-0.46-1.21-2.67-2.34
		C1491.09,20.28,1489.59,21.69,1489.55,21.45z"/>
	<path class="st9" d="M1498.31,5.94L1498.31,5.94c-0.46,0-0.25,0.32-0.25,0.72l-0.58,61.22h1.66l-0.6-61.22
		C1498.54,6.26,1498.77,5.94,1498.31,5.94z"/>
	<g>
		<path class="st10" d="M1498.32,17.24c-0.66,0.38-3.05-1.59-3.37-3.88c-0.05-0.33-0.14-1.03,0.18-1.21
			c0.52-0.3,1.93,0.79,2.66,2.05C1498.43,15.3,1498.82,16.96,1498.32,17.24z"/>
		<path class="st7" d="M1493.64,15.2c0.04,0.02,0.37-0.87,0.83-0.88c0.26-0.01,0.45,0.27,0.65,0.55c1.12,1.65,1.28,2.26,1.85,2.48
			c0.46,0.18,1.13,0.13,1.3-0.16c0.48-0.81-2.67-3.85-3.88-3.27c-0.14,0.07-0.24,0.18-0.3,0.27
			C1493.72,14.94,1493.62,15.19,1493.64,15.2z"/>
		<path class="st6" d="M1498.99,12.54c-0.01,0.04-0.94-0.21-1.22,0.14c-0.16,0.2-0.04,0.51,0.08,0.83c0.72,1.85,1.14,2.34,0.99,2.91
			c-0.12,0.47-0.55,0.97-0.89,0.94c-0.95-0.09-1.66-4.36-0.47-4.98c0.14-0.07,0.29-0.09,0.4-0.08
			C1498.73,12.46,1498.99,12.52,1498.99,12.54z"/>
	</g>
	<g>
		<path class="st10" d="M1497.58,28.94c-0.61,0.57-3.34-1.55-4-4.39c-0.1-0.41-0.3-1.27,0-1.55c0.48-0.45,2.07,0.71,3.01,2.19
			C1497.4,26.48,1498.04,28.51,1497.58,28.94z"/>
		<path class="st7" d="M1492.53,27.04c0.04,0.02,0.25-1.15,0.71-1.23c0.26-0.05,0.5,0.27,0.74,0.6c1.38,1.91,1.64,2.66,2.24,2.85
			c0.5,0.16,1.17,0,1.3-0.39c0.36-1.08-3.28-4.46-4.43-3.55c-0.13,0.11-0.22,0.26-0.27,0.39
			C1492.57,26.72,1492.5,27.04,1492.53,27.04z"/>
		<path class="st6" d="M1497.55,22.94c0,0.05-0.99-0.13-1.22,0.35c-0.13,0.27,0.03,0.65,0.21,1.03c1.01,2.22,1.51,2.77,1.44,3.51
			c-0.05,0.61-0.41,1.3-0.76,1.31c-0.98,0.02-2.33-5.24-1.22-6.19c0.13-0.11,0.28-0.15,0.4-0.16
			C1497.28,22.87,1497.55,22.91,1497.55,22.94z"/>
	</g>
	<g>
		<path class="st10" d="M1499.35,21.12c-0.76-0.03-0.91-2.71,0.67-4.63c0.23-0.28,0.7-0.86,1.08-0.85c0.6,0.02,0.74,1.55,0.27,2.87
			C1500.96,19.67,1499.93,21.14,1499.35,21.12z"/>
		<path class="st7" d="M1497.66,17.27c0.01,0.03,0.94-0.49,1.28-0.28c0.19,0.12,0.11,0.43,0.02,0.74c-0.5,1.82-0.87,2.37-0.65,2.81
			c0.19,0.36,0.69,0.65,1.04,0.51c0.97-0.39,1.14-4.27-0.17-4.41c-0.15-0.02-0.31,0.02-0.43,0.06
			C1497.91,17.11,1497.66,17.25,1497.66,17.27z"/>
		<path class="st6" d="M1503.51,17.82c-0.04,0.03-0.5-0.62-0.97-0.49c-0.27,0.08-0.43,0.38-0.6,0.68c-0.94,1.78-1.03,2.36-1.58,2.72
			c-0.45,0.3-1.15,0.48-1.37,0.29c-0.6-0.53,2.25-4.17,3.58-4.07c0.16,0.01,0.27,0.07,0.35,0.13
			C1503.39,17.63,1503.53,17.81,1503.51,17.82z"/>
	</g>
	<g>
		<path class="st10" d="M1499.17,34.63c-0.86-0.04-1.03-3.16,0.76-5.4c0.26-0.33,0.8-1,1.22-0.99c0.68,0.02,0.84,1.8,0.3,3.35
			C1500.99,32.94,1499.82,34.66,1499.17,34.63z"/>
		<path class="st7" d="M1497.25,30.14c0.01,0.04,1.07-0.57,1.45-0.32c0.21,0.14,0.13,0.5,0.03,0.86c-0.57,2.11-0.99,2.76-0.73,3.27
			c0.21,0.42,0.79,0.76,1.18,0.6c1.1-0.45,1.3-4.97-0.19-5.14c-0.17-0.02-0.35,0.02-0.48,0.07
			C1497.54,29.96,1497.25,30.12,1497.25,30.14z"/>
		<path class="st6" d="M1503.88,30.78c-0.04,0.03-0.56-0.72-1.1-0.57c-0.3,0.09-0.49,0.44-0.67,0.79c-1.07,2.07-1.17,2.74-1.79,3.17
			c-0.51,0.35-1.31,0.56-1.55,0.34c-0.68-0.62,2.55-4.85,4.06-4.74c0.18,0.01,0.3,0.09,0.39,0.16
			C1503.75,30.56,1503.9,30.77,1503.88,30.78z"/>
	</g>
	<g>
		<path class="st10" d="M1497.9,41.36c-0.61,0.54-3.33-1.46-4-4.14c-0.1-0.39-0.3-1.2,0-1.46c0.48-0.43,2.07,0.67,3.01,2.07
			C1497.73,39.03,1498.37,40.95,1497.9,41.36z"/>
		<path class="st7" d="M1492.85,39.57c0.04,0.01,0.25-1.08,0.71-1.16c0.26-0.05,0.5,0.25,0.74,0.56c1.38,1.8,1.64,2.51,2.24,2.69
			c0.49,0.15,1.17,0,1.3-0.36c0.36-1.02-3.28-4.2-4.42-3.35c-0.13,0.1-0.21,0.24-0.27,0.36
			C1492.9,39.26,1492.83,39.56,1492.85,39.57z"/>
		<path class="st6" d="M1497.87,35.7c0,0.05-0.99-0.12-1.22,0.33c-0.13,0.26,0.03,0.62,0.21,0.98c1.01,2.09,1.51,2.61,1.44,3.31
			c-0.05,0.57-0.41,1.23-0.76,1.24c-0.98,0.02-2.33-4.94-1.22-5.84c0.13-0.11,0.28-0.14,0.4-0.15
			C1497.6,35.63,1497.87,35.67,1497.87,35.7z"/>
	</g>
	<path class="st9" d="M1498.27,13.35c0.4,0.27,2.61-2.69,4.56-2.37c0.97,0.16,1.48,1.06,1.55,1.01c0.09-0.06-0.58-1.5-2-1.84
		c-2.18-0.52-3.97,2.06-4.1,2.34c-0.03,0.06-0.04,0.12-0.04,0.12C1498.14,12.89,1498.15,13.27,1498.27,13.35z"/>
	<path class="st9" d="M1498.26,10.06c0.3,0.25,2-2.48,3.49-2.19c0.74,0.14,1.14,0.98,1.19,0.93c0.07-0.06-0.44-1.38-1.53-1.7
		c-1.67-0.48-3.04,1.9-3.14,2.17c-0.02,0.05-0.03,0.11-0.03,0.11C1498.17,9.64,1498.17,9.99,1498.26,10.06z"/>
	<path class="st9" d="M1498.37,11.21c-0.34,0.21-1.58-2.71-3.1-2.61c-0.76,0.05-1.28,0.83-1.33,0.77c-0.06-0.07,0.66-1.31,1.79-1.49
		c1.73-0.27,2.7,2.26,2.76,2.54c0.01,0.05,0.02,0.11,0.02,0.11C1498.54,10.8,1498.47,11.15,1498.37,11.21z"/>
	<path class="st9" d="M1497.98,19.06c-0.64,0.22-2.29-4.4-4.99-4.63c-1.34-0.12-2.41,0.9-2.48,0.81c-0.09-0.11,1.4-1.78,3.42-1.75
		c3.1,0.04,4.35,4.02,4.4,4.44c0.01,0.08,0.01,0.17,0.01,0.17C1498.34,18.49,1498.17,18.99,1497.98,19.06z"/>
	<path class="st9" d="M1498.23,28.34c0.7,0.48,4.58-4.84,7.99-4.27c1.7,0.28,2.61,2.72,2.74,2.62c0.15-0.12-1.03-3.51-3.53-4.12
		c-3.83-0.94-6.96,3.71-7.19,4.22c-0.05,0.1-0.08,0.21-0.08,0.21C1498.01,27.51,1498.02,28.2,1498.23,28.34z"/>
	<path class="st9" d="M1498.11,34.15c-0.79,0.34-3.33-5.58-6.8-5.66c-1.73-0.04-3.2,2.18-3.3,2.06c-0.12-0.14,1.84-3.24,4.43-3.38
		c3.97-0.21,5.92,4.91,6.02,5.46c0.02,0.11,0.03,0.22,0.03,0.22C1498.52,33.38,1498.34,34.05,1498.11,34.15z"/>
	<path class="st9" d="M1498.23,22.48c1.37,0.73,4.08-4.05,5.39-4c1.3,0.06,2.55,2.63,2.64,2.54c0.12-0.1-0.77-3.1-2.64-3.64
		c-2.87-0.83-5.21,3.28-5.38,3.73c-0.03,0.09-0.06,0.19-0.06,0.19C1498.07,21.75,1498.05,22.39,1498.23,22.48z"/>
	<path class="st9" d="M1498.47,37.77c-0.59-0.74,0.99-3.15,3.16-3.88c1.45-0.49,1.97,0.17,3.87-0.31c2-0.51,2.99-1.64,3.15-1.51
		c0.22,0.18-1.38,2.6-3.87,3.22c-1.64,0.41-1.74,0.09-2.77,0.73c-1.17,0.73-1.73,1.81-2.64,2.01
		C1499.02,38.11,1498.64,37.98,1498.47,37.77z"/>
	<path class="st9" d="M1498.24,45.66c-0.76-0.97,1.24-3.3,3.81-4.14c1.72-0.56,2.16-0.35,4.43-0.88c2.38-0.56,4-3.01,4.2-2.84
		c0.28,0.23-2,4.31-4.97,4.98c-1.95,0.44-2.1,0.04-3.3,0.81c-1.37,0.88-1.99,2.23-3.07,2.44
		C1498.92,46.12,1498.45,45.94,1498.24,45.66z"/>
	<path class="st9" d="M1498.52,42.91c-0.5,0.79-3.64,0.59-5.33-0.8c-1.13-0.93-0.69-1.64-2.02-2.93c-1.4-1.36-2.98-1.65-2.92-1.83
		c0.08-0.25,3.26-0.05,4.98,1.66c1.13,1.12,0.86,1.34,1.96,1.88c1.26,0.61,2.61,0.58,3.2,1.21
		C1498.62,42.33,1498.66,42.69,1498.52,42.91z"/>
</g>
<g>
	<path class="st9" d="M1516.76,21.45c-0.07-0.41,6.44-2.09,8.48,1.4c0.37,0.64,0.45,1.64,0,1.92c-0.68,0.42-0.46-1.21-2.67-2.34
		C1518.3,20.28,1516.8,21.69,1516.76,21.45z"/>
	<path class="st9" d="M1525.52,5.94L1525.52,5.94c-0.46,0-0.25,0.32-0.25,0.72l-0.58,61.22h1.66l-0.6-61.22
		C1525.76,6.26,1525.98,5.94,1525.52,5.94z"/>
	<g>
		<path class="st10" d="M1525.54,17.24c-0.66,0.38-3.05-1.59-3.37-3.88c-0.05-0.33-0.14-1.03,0.18-1.21
			c0.52-0.3,1.93,0.79,2.66,2.05C1525.65,15.3,1526.03,16.96,1525.54,17.24z"/>
		<path class="st7" d="M1520.85,15.2c0.04,0.02,0.37-0.87,0.83-0.88c0.26-0.01,0.45,0.27,0.65,0.55c1.12,1.65,1.28,2.26,1.85,2.48
			c0.46,0.18,1.13,0.13,1.3-0.16c0.48-0.81-2.67-3.85-3.88-3.27c-0.14,0.07-0.24,0.18-0.3,0.27
			C1520.93,14.94,1520.84,15.19,1520.85,15.2z"/>
		<path class="st6" d="M1526.2,12.54c-0.01,0.04-0.94-0.21-1.22,0.14c-0.16,0.2-0.04,0.51,0.08,0.83c0.72,1.85,1.14,2.34,0.99,2.91
			c-0.12,0.47-0.55,0.97-0.89,0.94c-0.95-0.09-1.66-4.36-0.47-4.98c0.14-0.07,0.29-0.09,0.4-0.08
			C1525.94,12.46,1526.2,12.52,1526.2,12.54z"/>
	</g>
	<g>
		<path class="st10" d="M1524.79,28.94c-0.61,0.57-3.34-1.55-4-4.39c-0.1-0.41-0.3-1.27,0-1.55c0.48-0.45,2.07,0.71,3.01,2.19
			C1524.61,26.48,1525.26,28.51,1524.79,28.94z"/>
		<path class="st7" d="M1519.74,27.04c0.04,0.02,0.25-1.15,0.71-1.23c0.26-0.05,0.5,0.27,0.74,0.6c1.38,1.91,1.64,2.66,2.24,2.85
			c0.5,0.16,1.17,0,1.3-0.39c0.36-1.08-3.28-4.46-4.43-3.55c-0.13,0.11-0.22,0.26-0.27,0.39
			C1519.78,26.72,1519.72,27.04,1519.74,27.04z"/>
		<path class="st6" d="M1524.76,22.94c0,0.05-0.99-0.13-1.22,0.35c-0.13,0.27,0.03,0.65,0.21,1.03c1.01,2.22,1.51,2.77,1.44,3.51
			c-0.05,0.61-0.41,1.3-0.76,1.31c-0.98,0.02-2.33-5.24-1.22-6.19c0.13-0.11,0.28-0.15,0.4-0.16
			C1524.49,22.87,1524.76,22.91,1524.76,22.94z"/>
	</g>
	<g>
		<path class="st10" d="M1526.57,21.12c-0.76-0.03-0.91-2.71,0.67-4.63c0.23-0.28,0.7-0.86,1.08-0.85c0.6,0.02,0.74,1.55,0.27,2.87
			C1528.17,19.67,1527.14,21.14,1526.57,21.12z"/>
		<path class="st7" d="M1524.87,17.27c0.01,0.03,0.94-0.49,1.28-0.28c0.19,0.12,0.11,0.43,0.02,0.74c-0.5,1.82-0.87,2.37-0.65,2.81
			c0.19,0.36,0.69,0.65,1.04,0.51c0.97-0.39,1.14-4.27-0.17-4.41c-0.15-0.02-0.31,0.02-0.43,0.06
			C1525.13,17.11,1524.87,17.25,1524.87,17.27z"/>
		<path class="st6" d="M1530.72,17.82c-0.04,0.03-0.5-0.62-0.97-0.49c-0.27,0.08-0.43,0.38-0.6,0.68c-0.94,1.78-1.03,2.36-1.58,2.72
			c-0.45,0.3-1.15,0.48-1.37,0.29c-0.6-0.53,2.25-4.17,3.58-4.07c0.16,0.01,0.27,0.07,0.35,0.13
			C1530.61,17.63,1530.74,17.81,1530.72,17.82z"/>
	</g>
	<g>
		<path class="st10" d="M1526.38,34.63c-0.86-0.04-1.03-3.16,0.76-5.4c0.26-0.33,0.8-1,1.22-0.99c0.68,0.02,0.84,1.8,0.3,3.35
			C1528.2,32.94,1527.03,34.66,1526.38,34.63z"/>
		<path class="st7" d="M1524.47,30.14c0.01,0.04,1.07-0.57,1.45-0.32c0.21,0.14,0.13,0.5,0.03,0.86c-0.57,2.11-0.99,2.76-0.73,3.27
			c0.21,0.42,0.79,0.76,1.18,0.6c1.1-0.45,1.3-4.97-0.19-5.14c-0.17-0.02-0.35,0.02-0.48,0.07
			C1524.75,29.96,1524.46,30.12,1524.47,30.14z"/>
		<path class="st6" d="M1531.09,30.78c-0.04,0.03-0.56-0.72-1.1-0.57c-0.3,0.09-0.49,0.44-0.67,0.79c-1.07,2.07-1.17,2.74-1.79,3.17
			c-0.51,0.35-1.31,0.56-1.55,0.34c-0.68-0.62,2.55-4.85,4.06-4.74c0.18,0.01,0.3,0.09,0.39,0.16
			C1530.97,30.56,1531.12,30.77,1531.09,30.78z"/>
	</g>
	<g>
		<path class="st10" d="M1525.12,41.36c-0.61,0.54-3.33-1.46-4-4.14c-0.1-0.39-0.3-1.2,0-1.46c0.48-0.43,2.07,0.67,3.01,2.07
			C1524.94,39.03,1525.58,40.95,1525.12,41.36z"/>
		<path class="st7" d="M1520.07,39.57c0.04,0.01,0.25-1.08,0.71-1.16c0.26-0.05,0.5,0.25,0.74,0.56c1.38,1.8,1.64,2.51,2.24,2.69
			c0.49,0.15,1.17,0,1.3-0.36c0.36-1.02-3.28-4.2-4.42-3.35c-0.13,0.1-0.22,0.24-0.27,0.36
			C1520.11,39.26,1520.05,39.56,1520.07,39.57z"/>
		<path class="st6" d="M1525.08,35.7c0,0.05-0.99-0.12-1.22,0.33c-0.13,0.26,0.03,0.62,0.21,0.98c1.01,2.09,1.51,2.61,1.44,3.31
			c-0.05,0.57-0.41,1.23-0.76,1.24c-0.98,0.02-2.33-4.94-1.22-5.84c0.13-0.11,0.28-0.14,0.4-0.15
			C1524.81,35.63,1525.09,35.67,1525.08,35.7z"/>
	</g>
	<path class="st9" d="M1525.48,13.35c0.4,0.27,2.61-2.69,4.56-2.37c0.97,0.16,1.48,1.06,1.55,1.01c0.09-0.06-0.58-1.5-2-1.84
		c-2.18-0.52-3.97,2.06-4.1,2.34c-0.03,0.06-0.04,0.12-0.04,0.12C1525.36,12.89,1525.36,13.27,1525.48,13.35z"/>
	<path class="st9" d="M1525.47,10.06c0.3,0.25,2-2.48,3.49-2.19c0.74,0.14,1.14,0.98,1.19,0.93c0.07-0.06-0.44-1.38-1.53-1.7
		c-1.67-0.48-3.04,1.9-3.14,2.17c-0.02,0.05-0.03,0.11-0.03,0.11C1525.38,9.64,1525.39,9.99,1525.47,10.06z"/>
	<path class="st9" d="M1525.59,11.21c-0.34,0.21-1.58-2.71-3.1-2.61c-0.76,0.05-1.28,0.83-1.33,0.77c-0.06-0.07,0.66-1.31,1.79-1.49
		c1.73-0.27,2.7,2.26,2.76,2.54c0.01,0.05,0.02,0.11,0.02,0.11C1525.75,10.8,1525.69,11.15,1525.59,11.21z"/>
	<path class="st9" d="M1525.2,19.06c-0.64,0.22-2.29-4.4-4.99-4.63c-1.34-0.12-2.41,0.9-2.48,0.81c-0.09-0.11,1.4-1.78,3.42-1.75
		c3.1,0.04,4.35,4.02,4.4,4.44c0.01,0.08,0.01,0.17,0.01,0.17C1525.56,18.49,1525.38,18.99,1525.2,19.06z"/>
	<path class="st9" d="M1525.44,28.34c0.7,0.48,4.58-4.84,7.99-4.27c1.7,0.28,2.61,2.72,2.74,2.62c0.15-0.12-1.03-3.51-3.53-4.12
		c-3.83-0.94-6.96,3.71-7.19,4.22c-0.05,0.1-0.08,0.21-0.08,0.21C1525.22,27.51,1525.24,28.2,1525.44,28.34z"/>
	<path class="st9" d="M1525.33,34.15c-0.79,0.34-3.33-5.58-6.8-5.66c-1.73-0.04-3.2,2.18-3.3,2.06c-0.12-0.14,1.84-3.24,4.43-3.38
		c3.97-0.21,5.92,4.91,6.02,5.46c0.02,0.11,0.03,0.22,0.03,0.22C1525.74,33.38,1525.56,34.05,1525.33,34.15z"/>
	<path class="st9" d="M1525.44,22.48c1.37,0.73,4.08-4.05,5.39-4c1.3,0.06,2.55,2.63,2.64,2.54c0.12-0.1-0.77-3.1-2.64-3.64
		c-2.87-0.83-5.21,3.28-5.38,3.73c-0.03,0.09-0.06,0.19-0.06,0.19C1525.28,21.75,1525.27,22.39,1525.44,22.48z"/>
	<path class="st9" d="M1525.68,37.77c-0.59-0.74,0.99-3.15,3.16-3.88c1.45-0.49,1.97,0.17,3.87-0.31c2-0.51,2.99-1.64,3.15-1.51
		c0.22,0.18-1.38,2.6-3.87,3.22c-1.64,0.41-1.74,0.09-2.77,0.73c-1.17,0.73-1.73,1.81-2.64,2.01
		C1526.24,38.11,1525.85,37.98,1525.68,37.77z"/>
	<path class="st9" d="M1525.45,45.66c-0.76-0.97,1.24-3.3,3.81-4.14c1.72-0.56,2.16-0.35,4.43-0.88c2.38-0.56,4-3.01,4.2-2.84
		c0.28,0.23-2,4.31-4.97,4.98c-1.95,0.44-2.1,0.04-3.3,0.81c-1.37,0.88-1.99,2.23-3.07,2.44
		C1526.13,46.12,1525.66,45.94,1525.45,45.66z"/>
	<path class="st9" d="M1525.73,42.91c-0.5,0.79-3.64,0.59-5.33-0.8c-1.13-0.93-0.69-1.64-2.02-2.93c-1.4-1.36-2.98-1.65-2.92-1.83
		c0.08-0.25,3.26-0.05,4.98,1.66c1.13,1.12,0.86,1.34,1.96,1.88c1.26,0.61,2.61,0.58,3.2,1.21
		C1525.83,42.33,1525.87,42.69,1525.73,42.91z"/>
</g>
<g>
	<path class="st9" d="M1543.97,21.45c-0.07-0.41,6.44-2.09,8.48,1.4c0.37,0.64,0.45,1.64,0,1.92c-0.68,0.42-0.46-1.21-2.67-2.34
		C1545.52,20.28,1544.01,21.69,1543.97,21.45z"/>
	<path class="st9" d="M1552.74,5.94L1552.74,5.94c-0.46,0-0.25,0.32-0.25,0.72l-0.58,61.22h1.66l-0.6-61.22
		C1552.97,6.26,1553.19,5.94,1552.74,5.94z"/>
	<g>
		<path class="st10" d="M1552.75,17.24c-0.66,0.38-3.05-1.59-3.37-3.88c-0.05-0.33-0.14-1.03,0.18-1.21
			c0.52-0.3,1.93,0.79,2.66,2.05C1552.86,15.3,1553.25,16.96,1552.75,17.24z"/>
		<path class="st7" d="M1548.07,15.2c0.04,0.02,0.37-0.87,0.83-0.88c0.26-0.01,0.45,0.27,0.65,0.55c1.12,1.65,1.28,2.26,1.85,2.48
			c0.46,0.18,1.13,0.13,1.3-0.16c0.48-0.81-2.67-3.85-3.88-3.27c-0.14,0.07-0.24,0.18-0.3,0.27
			C1548.15,14.94,1548.05,15.19,1548.07,15.2z"/>
		<path class="st6" d="M1553.41,12.54c-0.01,0.04-0.94-0.21-1.22,0.14c-0.16,0.2-0.04,0.51,0.08,0.83c0.72,1.85,1.14,2.34,0.99,2.91
			c-0.12,0.47-0.55,0.97-0.89,0.94c-0.95-0.09-1.66-4.36-0.47-4.98c0.14-0.07,0.29-0.09,0.4-0.08
			C1553.16,12.46,1553.42,12.52,1553.41,12.54z"/>
	</g>
	<g>
		<path class="st10" d="M1552.01,28.94c-0.61,0.57-3.34-1.55-4-4.39c-0.1-0.41-0.3-1.27,0-1.55c0.48-0.45,2.07,0.71,3.01,2.19
			C1551.83,26.48,1552.47,28.51,1552.01,28.94z"/>
		<path class="st7" d="M1546.95,27.04c0.04,0.02,0.25-1.15,0.71-1.23c0.26-0.05,0.5,0.27,0.74,0.6c1.38,1.91,1.64,2.66,2.24,2.85
			c0.5,0.16,1.17,0,1.3-0.39c0.36-1.08-3.28-4.46-4.43-3.55c-0.13,0.11-0.22,0.26-0.27,0.39
			C1546.99,26.72,1546.93,27.04,1546.95,27.04z"/>
		<path class="st6" d="M1551.97,22.94c0,0.05-0.99-0.13-1.22,0.35c-0.13,0.27,0.03,0.65,0.21,1.03c1.01,2.22,1.51,2.77,1.44,3.51
			c-0.05,0.61-0.41,1.3-0.76,1.31c-0.98,0.02-2.33-5.24-1.22-6.19c0.13-0.11,0.28-0.15,0.4-0.16
			C1551.7,22.87,1551.97,22.91,1551.97,22.94z"/>
	</g>
	<g>
		<path class="st10" d="M1553.78,21.12c-0.76-0.03-0.91-2.71,0.67-4.63c0.23-0.28,0.7-0.86,1.08-0.85c0.6,0.02,0.74,1.55,0.27,2.87
			C1555.39,19.67,1554.35,21.14,1553.78,21.12z"/>
		<path class="st7" d="M1552.09,17.27c0.01,0.03,0.94-0.49,1.28-0.28c0.19,0.12,0.11,0.43,0.02,0.74c-0.5,1.82-0.87,2.37-0.65,2.81
			c0.19,0.36,0.69,0.65,1.04,0.51c0.97-0.39,1.14-4.27-0.17-4.41c-0.15-0.02-0.31,0.02-0.43,0.06
			C1552.34,17.11,1552.08,17.25,1552.09,17.27z"/>
		<path class="st6" d="M1557.93,17.82c-0.04,0.03-0.5-0.62-0.97-0.49c-0.27,0.08-0.43,0.38-0.6,0.68c-0.94,1.78-1.03,2.36-1.58,2.72
			c-0.45,0.3-1.15,0.48-1.37,0.29c-0.6-0.53,2.25-4.17,3.58-4.07c0.16,0.01,0.27,0.07,0.35,0.13
			C1557.82,17.63,1557.95,17.81,1557.93,17.82z"/>
	</g>
	<g>
		<path class="st10" d="M1553.6,34.63c-0.86-0.04-1.03-3.16,0.76-5.4c0.26-0.33,0.8-1,1.22-0.99c0.68,0.02,0.84,1.8,0.3,3.35
			C1555.42,32.94,1554.25,34.66,1553.6,34.63z"/>
		<path class="st7" d="M1551.68,30.14c0.01,0.04,1.07-0.57,1.45-0.32c0.21,0.14,0.13,0.5,0.03,0.86c-0.57,2.11-0.99,2.76-0.73,3.27
			c0.21,0.42,0.79,0.76,1.18,0.6c1.1-0.45,1.3-4.97-0.19-5.14c-0.17-0.02-0.35,0.02-0.48,0.07
			C1551.97,29.96,1551.67,30.12,1551.68,30.14z"/>
		<path class="st6" d="M1558.31,30.78c-0.04,0.03-0.56-0.72-1.1-0.57c-0.3,0.09-0.49,0.44-0.67,0.79c-1.07,2.07-1.17,2.74-1.79,3.17
			c-0.51,0.35-1.3,0.56-1.55,0.34c-0.68-0.62,2.55-4.85,4.06-4.74c0.18,0.01,0.3,0.09,0.39,0.16
			C1558.18,30.56,1558.33,30.77,1558.31,30.78z"/>
	</g>
	<g>
		<path class="st10" d="M1552.33,41.36c-0.61,0.54-3.33-1.46-4-4.14c-0.1-0.39-0.3-1.2,0-1.46c0.48-0.43,2.07,0.67,3.01,2.07
			C1552.15,39.03,1552.79,40.95,1552.33,41.36z"/>
		<path class="st7" d="M1547.28,39.57c0.04,0.01,0.25-1.08,0.71-1.16c0.26-0.05,0.5,0.25,0.74,0.56c1.38,1.8,1.64,2.51,2.24,2.69
			c0.49,0.15,1.17,0,1.3-0.36c0.36-1.02-3.28-4.2-4.42-3.35c-0.13,0.1-0.22,0.24-0.27,0.36
			C1547.32,39.26,1547.26,39.56,1547.28,39.57z"/>
		<path class="st6" d="M1552.3,35.7c0,0.05-0.99-0.12-1.22,0.33c-0.13,0.26,0.03,0.62,0.21,0.98c1.01,2.09,1.51,2.61,1.44,3.31
			c-0.05,0.57-0.41,1.23-0.76,1.24c-0.98,0.02-2.33-4.94-1.22-5.84c0.13-0.11,0.28-0.14,0.4-0.15
			C1552.03,35.63,1552.3,35.67,1552.3,35.7z"/>
	</g>
	<path class="st9" d="M1552.69,13.35c0.4,0.27,2.61-2.69,4.56-2.37c0.97,0.16,1.48,1.06,1.55,1.01c0.09-0.06-0.58-1.5-2-1.84
		c-2.18-0.52-3.97,2.06-4.1,2.34c-0.03,0.06-0.04,0.12-0.04,0.12C1552.57,12.89,1552.58,13.27,1552.69,13.35z"/>
	<path class="st9" d="M1552.69,10.06c0.3,0.25,2-2.48,3.49-2.19c0.74,0.14,1.14,0.98,1.19,0.93c0.07-0.06-0.44-1.38-1.53-1.7
		c-1.67-0.48-3.04,1.9-3.14,2.17c-0.02,0.05-0.03,0.11-0.03,0.11C1552.59,9.64,1552.6,9.99,1552.69,10.06z"/>
	<path class="st9" d="M1552.8,11.21c-0.34,0.21-1.58-2.71-3.1-2.61c-0.76,0.05-1.28,0.83-1.33,0.77c-0.06-0.07,0.66-1.31,1.79-1.49
		c1.73-0.27,2.7,2.26,2.76,2.54c0.01,0.05,0.02,0.11,0.02,0.11C1552.96,10.8,1552.9,11.15,1552.8,11.21z"/>
	<path class="st9" d="M1552.41,19.06c-0.64,0.22-2.29-4.4-4.99-4.63c-1.34-0.12-2.41,0.9-2.48,0.81c-0.09-0.11,1.4-1.78,3.42-1.75
		c3.1,0.04,4.35,4.02,4.4,4.44c0.01,0.08,0.01,0.17,0.01,0.17C1552.77,18.49,1552.6,18.99,1552.41,19.06z"/>
	<path class="st9" d="M1552.65,28.34c0.7,0.48,4.58-4.84,7.99-4.27c1.7,0.28,2.61,2.72,2.74,2.62c0.15-0.12-1.03-3.51-3.53-4.12
		c-3.83-0.94-6.96,3.71-7.19,4.22c-0.05,0.1-0.08,0.21-0.08,0.21C1552.43,27.51,1552.45,28.2,1552.65,28.34z"/>
	<path class="st9" d="M1552.54,34.15c-0.79,0.34-3.33-5.58-6.8-5.66c-1.73-0.04-3.2,2.18-3.3,2.06c-0.12-0.14,1.84-3.24,4.43-3.38
		c3.97-0.21,5.92,4.91,6.02,5.46c0.02,0.11,0.03,0.22,0.03,0.22C1552.95,33.38,1552.77,34.05,1552.54,34.15z"/>
	<path class="st9" d="M1552.66,22.48c1.37,0.73,4.08-4.05,5.39-4c1.3,0.06,2.55,2.63,2.64,2.54c0.11-0.1-0.77-3.1-2.64-3.64
		c-2.87-0.83-5.21,3.28-5.38,3.73c-0.03,0.09-0.06,0.19-0.06,0.19C1552.49,21.75,1552.48,22.39,1552.66,22.48z"/>
	<path class="st9" d="M1552.9,37.77c-0.59-0.74,0.99-3.15,3.16-3.88c1.45-0.49,1.97,0.17,3.87-0.31c2-0.51,2.99-1.64,3.15-1.51
		c0.22,0.18-1.38,2.6-3.87,3.22c-1.64,0.41-1.74,0.09-2.77,0.73c-1.17,0.73-1.73,1.81-2.64,2.01
		C1553.45,38.11,1553.06,37.98,1552.9,37.77z"/>
	<path class="st9" d="M1552.66,45.66c-0.76-0.97,1.24-3.3,3.81-4.14c1.72-0.56,2.16-0.35,4.43-0.88c2.38-0.56,4-3.01,4.2-2.84
		c0.28,0.23-2,4.31-4.97,4.98c-1.95,0.44-2.1,0.04-3.3,0.81c-1.37,0.88-1.99,2.23-3.07,2.44
		C1553.35,46.12,1552.88,45.94,1552.66,45.66z"/>
	<path class="st9" d="M1552.94,42.91c-0.5,0.79-3.64,0.59-5.33-0.8c-1.13-0.93-0.69-1.64-2.02-2.93c-1.4-1.36-2.98-1.65-2.92-1.83
		c0.08-0.25,3.26-0.05,4.98,1.66c1.13,1.12,0.86,1.34,1.96,1.88c1.26,0.61,2.61,0.58,3.2,1.21
		C1553.05,42.33,1553.08,42.69,1552.94,42.91z"/>
</g>
<g>
	<path class="st9" d="M1570.43,21.45c-0.07-0.41,6.44-2.09,8.48,1.4c0.37,0.64,0.45,1.64,0,1.92c-0.68,0.42-0.46-1.21-2.67-2.34
		C1571.97,20.28,1570.47,21.69,1570.43,21.45z"/>
	<path class="st9" d="M1579.19,5.94L1579.19,5.94c-0.46,0-0.25,0.32-0.25,0.72l-0.58,61.22h1.66l-0.6-61.22
		C1579.42,6.26,1579.65,5.94,1579.19,5.94z"/>
	<g>
		<path class="st10" d="M1579.2,17.24c-0.66,0.38-3.05-1.59-3.37-3.88c-0.05-0.33-0.14-1.03,0.18-1.21c0.52-0.3,1.93,0.79,2.66,2.05
			C1579.32,15.3,1579.7,16.96,1579.2,17.24z"/>
		<path class="st7" d="M1574.52,15.2c0.04,0.02,0.37-0.87,0.83-0.88c0.26-0.01,0.45,0.27,0.65,0.55c1.12,1.65,1.28,2.26,1.84,2.48
			c0.46,0.18,1.13,0.13,1.3-0.16c0.48-0.81-2.67-3.85-3.88-3.27c-0.14,0.07-0.24,0.18-0.3,0.27
			C1574.6,14.94,1574.5,15.19,1574.52,15.2z"/>
		<path class="st6" d="M1579.87,12.54c-0.01,0.04-0.94-0.21-1.22,0.14c-0.16,0.2-0.04,0.51,0.08,0.83c0.72,1.85,1.14,2.34,0.99,2.91
			c-0.12,0.47-0.55,0.97-0.89,0.94c-0.95-0.09-1.66-4.36-0.47-4.98c0.14-0.07,0.29-0.09,0.4-0.08
			C1579.61,12.46,1579.87,12.52,1579.87,12.54z"/>
	</g>
	<g>
		<path class="st10" d="M1578.46,28.94c-0.61,0.57-3.34-1.55-4-4.39c-0.1-0.41-0.3-1.27,0-1.55c0.48-0.45,2.07,0.71,3.01,2.19
			C1578.28,26.48,1578.92,28.51,1578.46,28.94z"/>
		<path class="st7" d="M1573.41,27.04c0.04,0.02,0.25-1.15,0.71-1.23c0.26-0.05,0.5,0.27,0.74,0.6c1.38,1.91,1.64,2.66,2.24,2.85
			c0.5,0.16,1.17,0,1.3-0.39c0.36-1.08-3.28-4.46-4.43-3.55c-0.13,0.11-0.22,0.26-0.27,0.39
			C1573.45,26.72,1573.39,27.04,1573.41,27.04z"/>
		<path class="st6" d="M1578.43,22.94c0,0.05-0.99-0.13-1.22,0.35c-0.13,0.27,0.03,0.65,0.21,1.03c1.01,2.22,1.51,2.77,1.44,3.51
			c-0.05,0.61-0.41,1.3-0.76,1.31c-0.98,0.02-2.33-5.24-1.22-6.19c0.13-0.11,0.28-0.15,0.4-0.16
			C1578.16,22.87,1578.43,22.91,1578.43,22.94z"/>
	</g>
	<g>
		<path class="st10" d="M1580.23,21.12c-0.76-0.03-0.91-2.71,0.67-4.63c0.23-0.28,0.7-0.86,1.08-0.85c0.6,0.02,0.74,1.55,0.27,2.87
			C1581.84,19.67,1580.81,21.14,1580.23,21.12z"/>
		<path class="st7" d="M1578.54,17.27c0.01,0.03,0.94-0.49,1.28-0.28c0.19,0.12,0.11,0.43,0.02,0.74c-0.5,1.82-0.87,2.37-0.65,2.81
			c0.19,0.36,0.69,0.65,1.04,0.51c0.97-0.39,1.14-4.27-0.17-4.41c-0.15-0.02-0.31,0.02-0.43,0.06
			C1578.8,17.11,1578.54,17.25,1578.54,17.27z"/>
		<path class="st6" d="M1584.39,17.82c-0.04,0.03-0.5-0.62-0.97-0.49c-0.27,0.08-0.43,0.38-0.6,0.68c-0.94,1.78-1.03,2.36-1.58,2.72
			c-0.45,0.3-1.15,0.48-1.37,0.29c-0.6-0.53,2.25-4.17,3.58-4.07c0.16,0.01,0.27,0.07,0.35,0.13
			C1584.28,17.63,1584.41,17.81,1584.39,17.82z"/>
	</g>
	<g>
		<path class="st10" d="M1580.05,34.63c-0.86-0.04-1.03-3.16,0.76-5.4c0.26-0.33,0.8-1,1.22-0.99c0.68,0.02,0.84,1.8,0.3,3.35
			C1581.87,32.94,1580.7,34.66,1580.05,34.63z"/>
		<path class="st7" d="M1578.13,30.14c0.01,0.04,1.07-0.57,1.45-0.32c0.21,0.14,0.13,0.5,0.03,0.86c-0.57,2.11-0.99,2.76-0.73,3.27
			c0.21,0.42,0.79,0.76,1.18,0.6c1.1-0.45,1.3-4.97-0.19-5.14c-0.17-0.02-0.35,0.02-0.48,0.07
			C1578.42,29.96,1578.13,30.12,1578.13,30.14z"/>
		<path class="st6" d="M1584.76,30.78c-0.04,0.03-0.56-0.72-1.1-0.57c-0.3,0.09-0.49,0.44-0.67,0.79c-1.07,2.07-1.17,2.74-1.79,3.17
			c-0.51,0.35-1.31,0.56-1.55,0.34c-0.68-0.62,2.55-4.85,4.06-4.74c0.18,0.01,0.3,0.09,0.39,0.16
			C1584.63,30.56,1584.78,30.77,1584.76,30.78z"/>
	</g>
	<g>
		<path class="st10" d="M1578.79,41.36c-0.61,0.54-3.33-1.46-4-4.14c-0.1-0.39-0.3-1.2,0-1.46c0.48-0.43,2.07,0.67,3.01,2.07
			C1578.61,39.03,1579.25,40.95,1578.79,41.36z"/>
		<path class="st7" d="M1573.74,39.57c0.04,0.01,0.25-1.08,0.71-1.16c0.26-0.05,0.5,0.25,0.74,0.56c1.38,1.8,1.64,2.51,2.24,2.69
			c0.49,0.15,1.17,0,1.3-0.36c0.36-1.02-3.28-4.2-4.42-3.35c-0.13,0.1-0.22,0.24-0.27,0.36
			C1573.78,39.26,1573.71,39.56,1573.74,39.57z"/>
		<path class="st6" d="M1578.75,35.7c0,0.05-0.99-0.12-1.22,0.33c-0.13,0.26,0.03,0.62,0.21,0.98c1.01,2.09,1.51,2.61,1.44,3.31
			c-0.05,0.57-0.41,1.23-0.76,1.24c-0.98,0.02-2.33-4.94-1.22-5.84c0.13-0.11,0.28-0.14,0.4-0.15
			C1578.48,35.63,1578.75,35.67,1578.75,35.7z"/>
	</g>
	<path class="st9" d="M1579.15,13.35c0.4,0.27,2.61-2.69,4.56-2.37c0.97,0.16,1.48,1.06,1.55,1.01c0.09-0.06-0.58-1.5-2-1.84
		c-2.18-0.52-3.97,2.06-4.1,2.34c-0.03,0.06-0.04,0.12-0.04,0.12C1579.03,12.89,1579.03,13.27,1579.15,13.35z"/>
	<path class="st9" d="M1579.14,10.06c0.3,0.25,2-2.48,3.49-2.19c0.74,0.14,1.14,0.98,1.19,0.93c0.07-0.06-0.44-1.38-1.53-1.7
		c-1.67-0.48-3.04,1.9-3.14,2.17c-0.02,0.05-0.03,0.11-0.03,0.11C1579.05,9.64,1579.05,9.99,1579.14,10.06z"/>
	<path class="st9" d="M1579.26,11.21c-0.34,0.21-1.58-2.71-3.1-2.61c-0.76,0.05-1.28,0.83-1.33,0.77c-0.06-0.07,0.66-1.31,1.79-1.49
		c1.73-0.27,2.7,2.26,2.76,2.54c0.01,0.05,0.02,0.11,0.02,0.11C1579.42,10.8,1579.36,11.15,1579.26,11.21z"/>
	<path class="st9" d="M1578.87,19.06c-0.64,0.22-2.29-4.4-4.99-4.63c-1.34-0.12-2.41,0.9-2.48,0.81c-0.09-0.11,1.4-1.78,3.42-1.75
		c3.1,0.04,4.35,4.02,4.4,4.44c0.01,0.08,0.01,0.17,0.01,0.17C1579.23,18.49,1579.05,18.99,1578.87,19.06z"/>
	<path class="st9" d="M1579.11,28.34c0.7,0.48,4.58-4.84,7.99-4.27c1.7,0.28,2.61,2.72,2.74,2.62c0.15-0.12-1.03-3.51-3.53-4.12
		c-3.83-0.94-6.96,3.71-7.19,4.22c-0.05,0.1-0.08,0.21-0.08,0.21C1578.89,27.51,1578.91,28.2,1579.11,28.34z"/>
	<path class="st9" d="M1579,34.15c-0.79,0.34-3.33-5.58-6.8-5.66c-1.73-0.04-3.2,2.18-3.3,2.06c-0.12-0.14,1.84-3.24,4.43-3.38
		c3.97-0.21,5.92,4.91,6.02,5.46c0.02,0.11,0.03,0.22,0.03,0.22C1579.4,33.38,1579.23,34.05,1579,34.15z"/>
	<path class="st9" d="M1579.11,22.48c1.37,0.73,4.08-4.05,5.39-4c1.3,0.06,2.55,2.63,2.64,2.54c0.11-0.1-0.77-3.1-2.64-3.64
		c-2.87-0.83-5.21,3.28-5.38,3.73c-0.03,0.09-0.06,0.19-0.06,0.19C1578.95,21.75,1578.94,22.39,1579.11,22.48z"/>
	<path class="st9" d="M1579.35,37.77c-0.59-0.74,0.99-3.15,3.16-3.88c1.45-0.49,1.97,0.17,3.87-0.31c2-0.51,2.99-1.64,3.15-1.51
		c0.22,0.18-1.38,2.6-3.87,3.22c-1.64,0.41-1.74,0.09-2.77,0.73c-1.17,0.73-1.73,1.81-2.64,2.01
		C1579.91,38.11,1579.52,37.98,1579.35,37.77z"/>
	<path class="st9" d="M1579.12,45.66c-0.76-0.97,1.24-3.3,3.81-4.14c1.72-0.56,2.16-0.35,4.43-0.88c2.38-0.56,4-3.01,4.2-2.84
		c0.28,0.23-2,4.31-4.97,4.98c-1.95,0.44-2.1,0.04-3.3,0.81c-1.37,0.88-1.99,2.23-3.07,2.44
		C1579.8,46.12,1579.33,45.94,1579.12,45.66z"/>
	<path class="st9" d="M1579.4,42.91c-0.5,0.79-3.64,0.59-5.33-0.8c-1.13-0.93-0.69-1.64-2.02-2.93c-1.4-1.36-2.98-1.65-2.92-1.83
		c0.08-0.25,3.26-0.05,4.98,1.66c1.13,1.12,0.86,1.34,1.96,1.88c1.26,0.61,2.61,0.58,3.2,1.21
		C1579.5,42.33,1579.54,42.69,1579.4,42.91z"/>
</g>
<g>
	<path class="st9" d="M1596.7,20.93c-0.07-0.41,6.44-2.09,8.48,1.4c0.37,0.64,0.45,1.64,0,1.92c-0.68,0.42-0.46-1.21-2.67-2.34
		C1598.25,19.75,1596.74,21.16,1596.7,20.93z"/>
	<path class="st9" d="M1605.46,5.42L1605.46,5.42c-0.46,0-0.25,0.32-0.25,0.72l-0.58,61.22h1.66l-0.6-61.22
		C1605.7,5.74,1605.92,5.42,1605.46,5.42z"/>
	<g>
		<path class="st10" d="M1605.48,16.72c-0.66,0.38-3.05-1.59-3.37-3.88c-0.05-0.33-0.14-1.03,0.18-1.21
			c0.52-0.3,1.93,0.79,2.66,2.05C1605.59,14.77,1605.97,16.44,1605.48,16.72z"/>
		<path class="st7" d="M1600.79,14.67c0.04,0.02,0.37-0.87,0.83-0.88c0.26-0.01,0.45,0.27,0.65,0.55c1.12,1.65,1.28,2.26,1.84,2.48
			c0.46,0.18,1.13,0.13,1.3-0.16c0.48-0.81-2.67-3.85-3.88-3.27c-0.14,0.07-0.24,0.18-0.3,0.27
			C1600.87,14.42,1600.78,14.66,1600.79,14.67z"/>
		<path class="st6" d="M1606.14,12.02c-0.01,0.04-0.94-0.21-1.22,0.14c-0.16,0.2-0.04,0.51,0.08,0.83c0.72,1.85,1.14,2.34,0.99,2.91
			c-0.12,0.47-0.55,0.97-0.89,0.94c-0.95-0.09-1.66-4.36-0.47-4.98c0.14-0.07,0.29-0.09,0.4-0.08
			C1605.88,11.93,1606.14,12,1606.14,12.02z"/>
	</g>
	<g>
		<path class="st10" d="M1604.73,28.42c-0.61,0.57-3.34-1.55-4-4.39c-0.1-0.41-0.3-1.27,0-1.55c0.48-0.45,2.07,0.71,3.01,2.19
			C1604.55,25.95,1605.2,27.99,1604.73,28.42z"/>
		<path class="st7" d="M1599.68,26.52c0.04,0.02,0.25-1.15,0.71-1.23c0.26-0.05,0.5,0.27,0.74,0.6c1.38,1.91,1.64,2.66,2.24,2.85
			c0.5,0.16,1.17,0,1.3-0.39c0.36-1.08-3.28-4.46-4.43-3.55c-0.13,0.11-0.22,0.26-0.27,0.39
			C1599.72,26.19,1599.66,26.51,1599.68,26.52z"/>
		<path class="st6" d="M1604.7,22.41c0,0.05-0.99-0.13-1.22,0.35c-0.13,0.27,0.03,0.65,0.21,1.03c1.01,2.22,1.51,2.77,1.44,3.51
			c-0.05,0.61-0.41,1.3-0.76,1.31c-0.98,0.02-2.33-5.24-1.22-6.19c0.13-0.11,0.28-0.15,0.4-0.16
			C1604.43,22.34,1604.7,22.38,1604.7,22.41z"/>
	</g>
	<g>
		<path class="st10" d="M1606.51,20.6c-0.76-0.03-0.91-2.71,0.67-4.63c0.23-0.28,0.7-0.86,1.08-0.85c0.6,0.02,0.74,1.55,0.27,2.87
			C1608.11,19.15,1607.08,20.62,1606.51,20.6z"/>
		<path class="st7" d="M1604.82,16.74c0.01,0.03,0.94-0.49,1.28-0.28c0.19,0.12,0.11,0.43,0.02,0.74c-0.5,1.82-0.87,2.37-0.65,2.81
			c0.19,0.36,0.69,0.65,1.04,0.51c0.97-0.39,1.14-4.27-0.17-4.41c-0.15-0.02-0.31,0.02-0.43,0.06
			C1605.07,16.58,1604.81,16.72,1604.82,16.74z"/>
		<path class="st6" d="M1610.66,17.29c-0.04,0.03-0.5-0.62-0.97-0.49c-0.27,0.08-0.43,0.38-0.6,0.68c-0.94,1.78-1.03,2.36-1.58,2.72
			c-0.45,0.3-1.15,0.48-1.37,0.29c-0.6-0.53,2.25-4.17,3.58-4.07c0.16,0.01,0.27,0.07,0.35,0.13
			C1610.55,17.1,1610.68,17.28,1610.66,17.29z"/>
	</g>
	<g>
		<path class="st10" d="M1606.32,34.11c-0.86-0.04-1.03-3.16,0.76-5.4c0.26-0.33,0.8-1,1.22-0.99c0.68,0.02,0.84,1.8,0.3,3.35
			C1608.15,32.42,1606.97,34.13,1606.32,34.11z"/>
		<path class="st7" d="M1604.41,29.61c0.01,0.04,1.07-0.57,1.45-0.32c0.21,0.14,0.13,0.5,0.03,0.86c-0.57,2.11-0.99,2.76-0.73,3.27
			c0.21,0.42,0.79,0.76,1.18,0.6c1.1-0.45,1.3-4.97-0.19-5.14c-0.17-0.02-0.35,0.02-0.48,0.07
			C1604.69,29.43,1604.4,29.59,1604.41,29.61z"/>
		<path class="st6" d="M1611.03,30.26c-0.04,0.03-0.56-0.72-1.1-0.57c-0.3,0.09-0.49,0.44-0.67,0.79c-1.07,2.07-1.17,2.74-1.79,3.17
			c-0.51,0.35-1.31,0.56-1.55,0.34c-0.68-0.62,2.55-4.85,4.06-4.74c0.18,0.01,0.3,0.09,0.39,0.16
			C1610.91,30.04,1611.06,30.24,1611.03,30.26z"/>
	</g>
	<g>
		<path class="st10" d="M1605.06,40.83c-0.61,0.54-3.33-1.46-4-4.14c-0.1-0.39-0.3-1.2,0-1.46c0.48-0.43,2.07,0.67,3.01,2.07
			C1604.88,38.51,1605.52,40.43,1605.06,40.83z"/>
		<path class="st7" d="M1600.01,39.04c0.04,0.01,0.25-1.08,0.71-1.16c0.26-0.05,0.5,0.25,0.74,0.56c1.38,1.8,1.64,2.51,2.24,2.69
			c0.49,0.15,1.17,0,1.3-0.36c0.36-1.02-3.28-4.2-4.42-3.35c-0.13,0.1-0.22,0.24-0.27,0.36
			C1600.05,38.73,1599.99,39.04,1600.01,39.04z"/>
		<path class="st6" d="M1605.03,35.17c0,0.05-0.99-0.12-1.22,0.33c-0.13,0.26,0.03,0.62,0.21,0.98c1.01,2.09,1.51,2.61,1.44,3.31
			c-0.05,0.57-0.41,1.23-0.76,1.24c-0.98,0.02-2.33-4.94-1.22-5.84c0.13-0.11,0.28-0.14,0.4-0.15
			C1604.75,35.1,1605.03,35.15,1605.03,35.17z"/>
	</g>
	<path class="st9" d="M1605.42,12.82c0.4,0.27,2.61-2.69,4.56-2.37c0.97,0.16,1.48,1.06,1.55,1.01c0.09-0.06-0.58-1.5-2-1.84
		c-2.18-0.52-3.97,2.06-4.1,2.34c-0.03,0.06-0.04,0.12-0.04,0.12C1605.3,12.36,1605.31,12.74,1605.42,12.82z"/>
	<path class="st9" d="M1605.41,9.54c0.3,0.25,2-2.48,3.49-2.19c0.74,0.14,1.14,0.98,1.19,0.93c0.07-0.06-0.44-1.38-1.53-1.7
		c-1.67-0.48-3.04,1.9-3.14,2.17c-0.02,0.05-0.03,0.11-0.03,0.11C1605.32,9.11,1605.33,9.46,1605.41,9.54z"/>
	<path class="st9" d="M1605.53,10.68c-0.34,0.21-1.58-2.71-3.1-2.61c-0.76,0.05-1.28,0.83-1.33,0.77c-0.06-0.07,0.66-1.31,1.79-1.49
		c1.73-0.27,2.7,2.26,2.76,2.54c0.01,0.05,0.02,0.11,0.02,0.11C1605.69,10.28,1605.63,10.62,1605.53,10.68z"/>
	<path class="st9" d="M1605.14,18.53c-0.64,0.22-2.29-4.4-4.99-4.63c-1.34-0.12-2.41,0.9-2.48,0.81c-0.09-0.11,1.4-1.78,3.42-1.75
		c3.1,0.04,4.35,4.02,4.4,4.44c0.01,0.08,0.01,0.17,0.01,0.17C1605.5,17.97,1605.32,18.47,1605.14,18.53z"/>
	<path class="st9" d="M1605.38,27.81c0.7,0.48,4.58-4.84,7.99-4.27c1.7,0.28,2.61,2.72,2.74,2.62c0.15-0.12-1.03-3.51-3.53-4.12
		c-3.83-0.94-6.96,3.71-7.19,4.22c-0.05,0.1-0.08,0.21-0.08,0.21C1605.16,26.98,1605.18,27.67,1605.38,27.81z"/>
	<path class="st9" d="M1605.27,33.63c-0.79,0.34-3.33-5.58-6.8-5.66c-1.73-0.04-3.2,2.18-3.3,2.06c-0.12-0.14,1.84-3.24,4.43-3.38
		c3.97-0.21,5.92,4.91,6.02,5.46c0.02,0.11,0.03,0.22,0.03,0.22C1605.68,32.86,1605.5,33.53,1605.27,33.63z"/>
	<path class="st9" d="M1605.38,21.96c1.37,0.73,4.08-4.05,5.39-4c1.3,0.06,2.55,2.63,2.64,2.54c0.11-0.1-0.77-3.1-2.64-3.64
		c-2.87-0.83-5.21,3.28-5.38,3.73c-0.03,0.09-0.06,0.19-0.06,0.19C1605.22,21.22,1605.21,21.86,1605.38,21.96z"/>
	<path class="st9" d="M1605.62,37.25c-0.59-0.74,0.99-3.15,3.16-3.88c1.45-0.49,1.97,0.17,3.87-0.31c2-0.51,2.99-1.64,3.15-1.51
		c0.22,0.18-1.38,2.6-3.87,3.22c-1.64,0.41-1.74,0.09-2.77,0.73c-1.17,0.73-1.73,1.81-2.64,2.01
		C1606.18,37.59,1605.79,37.46,1605.62,37.25z"/>
	<path class="st9" d="M1605.39,45.14c-0.76-0.97,1.24-3.3,3.81-4.14c1.72-0.56,2.16-0.35,4.43-0.88c2.38-0.56,4-3.01,4.2-2.84
		c0.28,0.23-2,4.31-4.97,4.98c-1.95,0.44-2.1,0.04-3.3,0.81c-1.37,0.88-1.99,2.23-3.07,2.44
		C1606.08,45.6,1605.6,45.41,1605.39,45.14z"/>
	<path class="st9" d="M1605.67,42.39c-0.5,0.79-3.64,0.59-5.33-0.8c-1.13-0.93-0.69-1.64-2.02-2.93c-1.4-1.36-2.98-1.65-2.92-1.83
		c0.08-0.25,3.26-0.05,4.98,1.66c1.13,1.12,0.86,1.34,1.96,1.88c1.26,0.61,2.61,0.58,3.2,1.21
		C1605.77,41.8,1605.81,42.16,1605.67,42.39z"/>
</g>
<g>
	<path class="st9" d="M1624.5,20.93c-0.07-0.41,6.44-2.09,8.48,1.4c0.37,0.64,0.45,1.64,0,1.92c-0.68,0.42-0.46-1.21-2.67-2.34
		C1626.05,19.75,1624.54,21.16,1624.5,20.93z"/>
	<path class="st9" d="M1633.26,5.42L1633.26,5.42c-0.46,0-0.25,0.32-0.25,0.72l-0.58,61.22h1.66l-0.6-61.22
		C1633.5,5.74,1633.72,5.42,1633.26,5.42z"/>
	<g>
		<path class="st10" d="M1633.28,16.72c-0.66,0.38-3.05-1.59-3.37-3.88c-0.05-0.33-0.14-1.03,0.18-1.21
			c0.52-0.3,1.93,0.79,2.66,2.05C1633.39,14.77,1633.77,16.44,1633.28,16.72z"/>
		<path class="st7" d="M1628.6,14.67c0.04,0.02,0.37-0.87,0.83-0.88c0.26-0.01,0.45,0.27,0.65,0.55c1.12,1.65,1.28,2.26,1.85,2.48
			c0.46,0.18,1.13,0.13,1.3-0.16c0.48-0.81-2.67-3.85-3.88-3.27c-0.14,0.07-0.24,0.18-0.3,0.27
			C1628.67,14.42,1628.58,14.66,1628.6,14.67z"/>
		<path class="st6" d="M1633.94,12.02c-0.01,0.04-0.94-0.21-1.22,0.14c-0.16,0.2-0.04,0.51,0.08,0.83c0.72,1.85,1.14,2.34,0.99,2.91
			c-0.12,0.47-0.55,0.97-0.89,0.94c-0.95-0.09-1.66-4.36-0.47-4.98c0.14-0.07,0.29-0.09,0.4-0.08
			C1633.68,11.93,1633.94,12,1633.94,12.02z"/>
	</g>
	<g>
		<path class="st10" d="M1632.53,28.42c-0.61,0.57-3.34-1.55-4-4.39c-0.1-0.41-0.3-1.27,0-1.55c0.48-0.45,2.07,0.71,3.01,2.19
			C1632.36,25.95,1633,27.99,1632.53,28.42z"/>
		<path class="st7" d="M1627.48,26.52c0.04,0.02,0.25-1.15,0.71-1.23c0.26-0.05,0.5,0.27,0.74,0.6c1.38,1.91,1.64,2.66,2.24,2.85
			c0.5,0.16,1.17,0,1.3-0.39c0.36-1.08-3.28-4.46-4.43-3.55c-0.13,0.11-0.22,0.26-0.27,0.39
			C1627.52,26.19,1627.46,26.51,1627.48,26.52z"/>
		<path class="st6" d="M1632.5,22.41c0,0.05-0.99-0.13-1.22,0.35c-0.13,0.27,0.03,0.65,0.21,1.03c1.01,2.22,1.51,2.77,1.44,3.51
			c-0.05,0.61-0.41,1.3-0.76,1.31c-0.98,0.02-2.33-5.24-1.22-6.19c0.13-0.11,0.28-0.15,0.4-0.16
			C1632.23,22.34,1632.5,22.38,1632.5,22.41z"/>
	</g>
	<g>
		<path class="st10" d="M1634.31,20.6c-0.76-0.03-0.91-2.71,0.67-4.63c0.23-0.28,0.7-0.86,1.08-0.85c0.6,0.02,0.74,1.55,0.27,2.87
			C1635.91,19.15,1634.88,20.62,1634.31,20.6z"/>
		<path class="st7" d="M1632.62,16.74c0.01,0.03,0.94-0.49,1.28-0.28c0.19,0.12,0.11,0.43,0.02,0.74c-0.5,1.82-0.87,2.37-0.65,2.81
			c0.19,0.36,0.69,0.65,1.04,0.51c0.97-0.39,1.14-4.27-0.17-4.41c-0.15-0.02-0.31,0.02-0.43,0.06
			C1632.87,16.58,1632.61,16.72,1632.62,16.74z"/>
		<path class="st6" d="M1638.46,17.29c-0.04,0.03-0.5-0.62-0.97-0.49c-0.27,0.08-0.43,0.38-0.6,0.68c-0.94,1.78-1.03,2.36-1.58,2.72
			c-0.45,0.3-1.15,0.48-1.37,0.29c-0.6-0.53,2.25-4.17,3.58-4.07c0.16,0.01,0.27,0.07,0.35,0.13
			C1638.35,17.1,1638.48,17.28,1638.46,17.29z"/>
	</g>
	<g>
		<path class="st10" d="M1634.12,34.11c-0.86-0.04-1.03-3.16,0.76-5.4c0.26-0.33,0.8-1,1.22-0.99c0.68,0.02,0.84,1.8,0.3,3.35
			C1635.95,32.42,1634.77,34.13,1634.12,34.11z"/>
		<path class="st7" d="M1632.21,29.61c0.01,0.04,1.07-0.57,1.45-0.32c0.21,0.14,0.13,0.5,0.03,0.86c-0.57,2.11-0.99,2.76-0.73,3.27
			c0.21,0.42,0.79,0.76,1.18,0.6c1.1-0.45,1.3-4.97-0.19-5.14c-0.17-0.02-0.35,0.02-0.48,0.07
			C1632.49,29.43,1632.2,29.59,1632.21,29.61z"/>
		<path class="st6" d="M1638.84,30.26c-0.04,0.03-0.56-0.72-1.1-0.57c-0.3,0.09-0.49,0.44-0.67,0.79c-1.07,2.07-1.17,2.74-1.79,3.17
			c-0.51,0.35-1.31,0.56-1.55,0.34c-0.68-0.62,2.55-4.85,4.06-4.74c0.18,0.01,0.3,0.09,0.39,0.16
			C1638.71,30.04,1638.86,30.24,1638.84,30.26z"/>
	</g>
	<g>
		<path class="st10" d="M1632.86,40.83c-0.61,0.54-3.33-1.46-4-4.14c-0.1-0.39-0.3-1.2,0-1.46c0.48-0.43,2.07,0.67,3.01,2.07
			C1632.68,38.51,1633.32,40.43,1632.86,40.83z"/>
		<path class="st7" d="M1627.81,39.04c0.04,0.01,0.25-1.08,0.71-1.16c0.26-0.05,0.5,0.25,0.74,0.56c1.38,1.8,1.64,2.51,2.24,2.69
			c0.49,0.15,1.17,0,1.3-0.36c0.36-1.02-3.28-4.2-4.42-3.35c-0.13,0.1-0.22,0.24-0.27,0.36
			C1627.85,38.73,1627.79,39.04,1627.81,39.04z"/>
		<path class="st6" d="M1632.83,35.17c0,0.05-0.99-0.12-1.22,0.33c-0.13,0.26,0.03,0.62,0.21,0.98c1.01,2.09,1.51,2.61,1.44,3.31
			c-0.05,0.57-0.41,1.23-0.76,1.24c-0.98,0.02-2.33-4.94-1.22-5.84c0.13-0.11,0.28-0.14,0.4-0.15
			C1632.55,35.1,1632.83,35.15,1632.83,35.17z"/>
	</g>
	<path class="st9" d="M1633.22,12.82c0.4,0.27,2.61-2.69,4.56-2.37c0.97,0.16,1.48,1.06,1.55,1.01c0.09-0.06-0.58-1.5-2-1.84
		c-2.18-0.52-3.97,2.06-4.1,2.34c-0.03,0.06-0.04,0.12-0.04,0.12C1633.1,12.36,1633.11,12.74,1633.22,12.82z"/>
	<path class="st9" d="M1633.21,9.54c0.3,0.25,2-2.48,3.49-2.19c0.74,0.14,1.14,0.98,1.19,0.93c0.07-0.06-0.44-1.38-1.53-1.7
		c-1.67-0.48-3.04,1.9-3.14,2.17c-0.02,0.05-0.03,0.11-0.03,0.11C1633.12,9.11,1633.13,9.46,1633.21,9.54z"/>
	<path class="st9" d="M1633.33,10.68c-0.34,0.21-1.58-2.71-3.1-2.61c-0.76,0.05-1.28,0.83-1.33,0.77c-0.06-0.07,0.66-1.31,1.79-1.49
		c1.73-0.27,2.7,2.26,2.76,2.54c0.01,0.05,0.02,0.11,0.02,0.11C1633.49,10.28,1633.43,10.62,1633.33,10.68z"/>
	<path class="st9" d="M1632.94,18.53c-0.64,0.22-2.29-4.4-4.99-4.63c-1.34-0.12-2.41,0.9-2.48,0.81c-0.09-0.11,1.4-1.78,3.42-1.75
		c3.1,0.04,4.35,4.02,4.4,4.44c0.01,0.08,0.01,0.17,0.01,0.17C1633.3,17.97,1633.12,18.47,1632.94,18.53z"/>
	<path class="st9" d="M1633.18,27.81c0.7,0.48,4.58-4.84,7.99-4.27c1.7,0.28,2.61,2.72,2.74,2.62c0.15-0.12-1.03-3.51-3.53-4.12
		c-3.83-0.94-6.96,3.71-7.19,4.22c-0.05,0.1-0.08,0.21-0.08,0.21C1632.96,26.98,1632.98,27.67,1633.18,27.81z"/>
	<path class="st9" d="M1633.07,33.63c-0.79,0.34-3.33-5.58-6.8-5.66c-1.73-0.04-3.2,2.18-3.3,2.06c-0.12-0.14,1.84-3.24,4.43-3.38
		c3.97-0.21,5.92,4.91,6.02,5.46c0.02,0.11,0.03,0.22,0.03,0.22C1633.48,32.86,1633.3,33.53,1633.07,33.63z"/>
	<path class="st9" d="M1633.18,21.96c1.37,0.73,4.08-4.05,5.39-4c1.3,0.06,2.55,2.63,2.64,2.54c0.11-0.1-0.77-3.1-2.64-3.64
		c-2.87-0.83-5.21,3.28-5.38,3.73c-0.03,0.09-0.06,0.19-0.06,0.19C1633.02,21.22,1633.01,21.86,1633.18,21.96z"/>
	<path class="st9" d="M1633.43,37.25c-0.59-0.74,0.99-3.15,3.16-3.88c1.45-0.49,1.97,0.17,3.87-0.31c2-0.51,2.99-1.64,3.15-1.51
		c0.22,0.18-1.38,2.6-3.87,3.22c-1.64,0.41-1.74,0.09-2.77,0.73c-1.17,0.73-1.73,1.81-2.64,2.01
		C1633.98,37.59,1633.59,37.46,1633.43,37.25z"/>
	<path class="st9" d="M1633.19,45.14c-0.76-0.97,1.24-3.3,3.81-4.14c1.72-0.56,2.16-0.35,4.43-0.88c2.38-0.56,4-3.01,4.2-2.84
		c0.28,0.23-2,4.31-4.97,4.98c-1.95,0.44-2.1,0.04-3.3,0.81c-1.37,0.88-1.99,2.23-3.07,2.44
		C1633.88,45.6,1633.4,45.41,1633.19,45.14z"/>
	<path class="st9" d="M1633.47,42.39c-0.5,0.79-3.64,0.59-5.33-0.8c-1.13-0.93-0.69-1.64-2.02-2.93c-1.4-1.36-2.98-1.65-2.92-1.83
		c0.08-0.25,3.26-0.05,4.98,1.66c1.13,1.12,0.86,1.34,1.96,1.88c1.26,0.61,2.61,0.58,3.2,1.21
		C1633.57,41.8,1633.61,42.16,1633.47,42.39z"/>
</g>
<g>
	<rect x="1007.26" y="43.24" class="st11" width="20.41" height="3.78"/>
	<g>
		
			<ellipse transform="matrix(0.0413 -0.9991 0.9991 0.0413 914.518 993.3828)" class="st12" cx="974.92" cy="20.12" rx="6.41" ry="14.39"/>
		
			<ellipse transform="matrix(0.0413 -0.9991 0.9991 0.0413 927.9375 1015.0934)" class="st12" cx="992.95" cy="23.99" rx="5.21" ry="7.46"/>
		
			<ellipse transform="matrix(0.0413 -0.9991 0.9991 0.0413 901.4249 983.6458)" class="st12" cx="963.3" cy="22.08" rx="4.52" ry="15.55"/>
		
			<ellipse transform="matrix(0.0413 -0.9991 0.9991 0.0413 933.3309 1017.0934)" class="st12" cx="996.69" cy="22.18" rx="6.73" ry="13.99"/>
		
			<ellipse transform="matrix(0.0413 -0.9991 0.9991 0.0413 939.7614 1029.764)" class="st12" cx="1006.51" cy="25.16" rx="1.29" ry="0.14"/>
	</g>
	<polygon class="st13" points="1063.2,18.08 1032.64,18.08 1025.09,15.36 1061.14,15.36 	"/>
	<polygon class="st14" points="1069.61,35.79 1033.48,38.75 1033.48,17.55 1061.82,17.83 	"/>
	<g>
		<path class="st13" d="M1076.31,47.37v1.95h-12.27v0.09h34.88h0.07c-2.7-7.54-4.25-9.15-11.8-11.1l-23.15-3.34v12.4H1076.31z"/>
		<path class="st15" d="M1064.04,49.41v7.46h33.52l1.43-7.35c-0.02-0.04-0.04-0.07-0.07-0.11H1064.04z"/>
		<polygon class="st14" points="1063.92,47.37 1063.2,34.84 1064.04,34.97 1064.04,33.87 1037.13,36.66 1037.13,47.37 		"/>
		<polygon class="st15" points="1064.03,49.32 1037.13,49.32 1037.13,56.87 1064.04,56.87 1064.04,49.41 		"/>
		<polygon class="st14" points="1064.03,49.32 1064.04,49.41 1064.04,49.32 		"/>
		<polygon class="st14" points="1063.92,47.37 1064.04,47.37 1064.04,34.97 1063.2,34.84 		"/>
		<polygon class="st13" points="1032.51,49.78 1032.51,47.83 1033.48,47.83 1033.48,37.12 1033.48,17.18 1031.53,17.18 
			1031.53,57.34 1033.48,57.34 1033.48,49.78 		"/>
		<rect x="1064.04" y="47.37" class="st13" width="12.27" height="1.95"/>
		<polygon class="st13" points="1037.13,47.37 1037.13,49.32 1064.03,49.32 1063.92,47.37 		"/>
		<polygon class="st13" points="1064.04,47.37 1063.92,47.37 1064.03,49.32 1064.04,49.32 		"/>
		<rect x="1036.15" y="47.37" class="st13" width="0.98" height="1.95"/>
		<g>
			<path class="st16" d="M1036.71,38.75c-8.95,0-16.2,7.25-16.2,16.2s7.25,16.2,16.2,16.2c8.95,0,16.2-7.25,16.2-16.2
				S1045.66,38.75,1036.71,38.75z M1036.71,66.16c-6.19,0-11.22-5.02-11.22-11.22c0-6.19,5.02-11.22,11.22-11.22
				c6.19,0,11.22,5.02,11.22,11.22C1047.93,61.14,1042.9,66.16,1036.71,66.16z"/>
			<path class="st17" d="M1036.71,43.73c-6.19,0-11.22,5.02-11.22,11.22c0,6.19,5.02,11.22,11.22,11.22
				c6.19,0,11.22-5.02,11.22-11.22C1047.93,48.75,1042.9,43.73,1036.71,43.73z M1036.71,58.69c-2.06,0-3.74-1.67-3.74-3.74
				c0-2.06,1.67-3.74,3.74-3.74c2.06,0,3.74,1.67,3.74,3.74C1040.45,57.01,1038.77,58.69,1036.71,58.69z"/>
			<circle class="st16" cx="1036.71" cy="54.95" r="3.74"/>
		</g>
		<path class="st13" d="M1020.99,41.36c-0.42-1.88,15.7-8.73,27.75-2.48c2.82,1.46,10.1,9.36,6.59,11.48
			c-1.22,0.73-2.83,0.12-3.51-1.22c-0.55-1.08-1.42-2.56-2.67-4.14C1040.26,33.72,1021.41,43.27,1020.99,41.36z"/>
		<path class="st13" d="M1093.24,50.18c0.36-1.06-8.52-6.36-15.61-3.26c-1.66,0.73-6.24,5.14-4,7.06c0.59,0.51,1.56,0.18,2.03-0.56
			c0.38-0.59,0.96-1.4,1.76-2.26C1083.08,45.06,1092.87,51.26,1093.24,50.18z"/>
	</g>
	<polygon class="st13" points="1066.32,39.53 1064.4,39.58 1057.57,16.77 1059.49,16.72 	"/>
	<g>
		<circle class="st16" cx="1086.63" cy="58.82" r="11.79"/>
		<circle class="st17" cx="1086.63" cy="58.82" r="8.17"/>
		<circle class="st16" cx="1086.63" cy="58.82" r="2.72"/>
	</g>
	
		<ellipse transform="matrix(0.8412 -0.5407 0.5407 0.8412 149.8369 598.1585)" class="st17" cx="1093.33" cy="43.97" rx="0.97" ry="1.86"/>
	<polygon class="st13" points="1010.37,54.05 949.33,54.05 942.61,22.61 1016.51,22.61 	"/>
	
		<rect x="956.05" y="28.74" transform="matrix(0.9923 -0.124 0.124 0.9923 2.6295 118.9176)" class="st18" width="1.2" height="19.18"/>
	
		<rect x="1001.71" y="28.74" transform="matrix(-0.9923 -0.124 0.124 -0.9923 1992.1268 200.656)" class="st18" width="1.2" height="19.18"/>
	<rect x="971.99" y="28.74" class="st18" width="1.2" height="19.18"/>
	<rect x="987.01" y="28.74" class="st18" width="1.2" height="19.18"/>
	<rect x="940.67" y="21.53" class="st18" width="77.09" height="4.32"/>
	<g>
		<circle class="st16" cx="952.46" cy="58.9" r="11.79"/>
		<circle class="st17" cx="952.46" cy="58.9" r="8.17"/>
		<circle class="st16" cx="952.46" cy="58.9" r="2.72"/>
	</g>
	<g>
		<circle class="st16" cx="1005.31" cy="58.9" r="11.79"/>
		<circle class="st17" cx="1005.31" cy="58.9" r="8.17"/>
		<circle class="st16" cx="1005.31" cy="58.9" r="2.72"/>
	</g>
</g>
</svg>
