<?xml version="1.0" encoding="utf-8"?>
<!-- Generator: Adobe Illustrator 25.2.0, SVG Export Plug-In . SVG Version: 6.00 Build 0)  -->
<svg version="1.1" id="레이어_1" xmlns="http://www.w3.org/2000/svg" xmlns:xlink="http://www.w3.org/1999/xlink" x="0px"
	 y="0px" viewBox="0 0 1920 108" style="enable-background:new 0 0 1920 108;" xml:space="preserve">
<style type="text/css">
	.st0{fill:#C2E3DE;}
	.st1{fill:#A8B476;}
	.st2{fill:#6F8646;}
	.st3{fill:#AFC366;}
	.st4{fill:#D7E592;}
	.st5{fill:#8BA146;}
	.st6{fill:#A4B567;}
	.st7{fill:#E3EEEB;}
	.st8{fill:#FAFAF9;}
	.st9{fill:#8A9B4B;}
	.st10{fill:#E7C670;}
	.st11{fill:#9BB350;}
	.st12{fill:#E6D17D;}
	.st13{fill:#BC6D4F;}
	.st14{fill:#D1CCC8;}
	.st15{fill:#EFEAE7;}
	.st16{fill:#674845;}
	.st17{fill:#B1D3D6;stroke:#F7F8F8;stroke-width:2;stroke-miterlimit:10;}
	.st18{fill:none;stroke:#EFEAE7;stroke-width:2;stroke-miterlimit:10;}
	.st19{fill:#674945;}
	.st20{fill:#8CA247;}
	.st21{fill:#A4B667;}
	.st22{fill:#7D9342;}
	.st23{fill:#B8946F;}
</style>
<rect class="st0" width="1920" height="56.67"/>
<g>
	<circle class="st1" cx="557.23" cy="29.28" r="15.29"/>
	<circle class="st1" cx="536.43" cy="36.25" r="11.65"/>
	<circle class="st1" cx="571.66" cy="39.36" r="8.89"/>
	<ellipse class="st1" cx="557.23" cy="45.62" rx="15.29" ry="9.37"/>
	<ellipse class="st1" cx="575.7" cy="47.87" rx="10.35" ry="7.12"/>
</g>
<g>
	<circle class="st2" cx="1632.75" cy="52.51" r="15.29"/>
	<circle class="st2" cx="1611.95" cy="59.48" r="11.65"/>
	<circle class="st2" cx="1647.18" cy="62.59" r="8.89"/>
	<ellipse class="st2" cx="1632.75" cy="68.85" rx="15.29" ry="9.37"/>
	<ellipse class="st2" cx="1651.22" cy="71.1" rx="10.35" ry="7.12"/>
</g>
<path class="st3" d="M213.49,54c-16.67-10.16-69.4-39.35-137.26-28.96C41.91,30.3,15.94,43.81,0,54"/>
<g>
	<circle class="st4" cx="209.51" cy="41.65" r="10.26"/>
	<ellipse class="st4" cx="195.26" cy="48.78" rx="8.89" ry="7.12"/>
	<circle class="st4" cx="224.52" cy="49.16" r="7.51"/>
	<circle class="st4" cx="218.01" cy="42.29" r="6.51"/>
	<ellipse class="st4" cx="209.51" cy="52.22" rx="10.26" ry="6.74"/>
</g>
<rect y="71" class="st5" width="1920" height="41.06"/>
<path class="st3" d="M276,51.56c54.1-23.41,181.92-69.67,278.48-10.27c6.11,3.76,12.15,7.97,18.1,12.71"/>
<path class="st3" d="M639.98,50.78"/>
<path class="st6" d="M639.98,54c50.77-21.01,174.94-65.27,243.88-7.97c2.96,2.46,5.82,5.11,8.58,7.97"/>
<path class="st6" d="M1920,55.33c-22.74-13.64-92.63-51.47-182.6-37.99c-46.33,6.94-81.42,25-102.94,38.6"/>
<circle class="st1" cx="580.14" cy="45.18" r="1.32"/>
<g>
	<ellipse class="st7" cx="675.28" cy="14.19" rx="10.08" ry="10.52"/>
	<ellipse class="st7" cx="685.85" cy="16.74" rx="7.84" ry="8.18"/>
	<ellipse class="st7" cx="665.9" cy="14.19" rx="9.38" ry="8.18"/>
	<ellipse class="st7" cx="659.24" cy="17.72" rx="7.28" ry="6.99"/>
	<ellipse class="st7" cx="679.62" cy="21.64" rx="7.28" ry="6.72"/>
	<ellipse class="st7" cx="669.74" cy="20.89" rx="9.87" ry="8.4"/>
</g>
<g>
	<ellipse class="st7" cx="299.32" cy="15.52" rx="10.08" ry="10.52"/>
	<ellipse class="st7" cx="309.89" cy="18.07" rx="7.84" ry="8.18"/>
	<ellipse class="st7" cx="289.94" cy="15.52" rx="9.38" ry="8.18"/>
	<ellipse class="st7" cx="283.28" cy="19.05" rx="7.28" ry="6.99"/>
	<ellipse class="st7" cx="303.65" cy="22.97" rx="7.28" ry="6.72"/>
	<ellipse class="st7" cx="293.78" cy="22.22" rx="9.87" ry="8.4"/>
</g>
<g>
	<ellipse class="st7" cx="1208" cy="14.45" rx="10.08" ry="10.52"/>
	<ellipse class="st7" cx="1218.57" cy="17" rx="7.84" ry="8.18"/>
	<ellipse class="st7" cx="1198.62" cy="14.45" rx="9.38" ry="8.18"/>
	<ellipse class="st7" cx="1191.96" cy="17.98" rx="7.28" ry="6.99"/>
	<ellipse class="st7" cx="1212.33" cy="21.9" rx="7.28" ry="6.72"/>
	<ellipse class="st7" cx="1202.46" cy="21.15" rx="9.87" ry="8.4"/>
</g>
<g>
	<circle class="st8" cx="652.77" cy="17.39" r="9.87"/>
	<circle class="st8" cx="639.62" cy="19.88" r="7.77"/>
	<circle class="st8" cx="662.64" cy="21.64" r="8.65"/>
	<circle class="st8" cx="647.26" cy="25.93" r="8.53"/>
	<circle class="st8" cx="657.54" cy="28.05" r="6.41"/>
</g>
<g>
	<circle class="st8" cx="5.6" cy="18.47" r="9.87"/>
	<circle class="st8" cx="-7.54" cy="20.96" r="7.77"/>
	<circle class="st8" cx="15.48" cy="22.72" r="8.65"/>
	<circle class="st8" cx="0.09" cy="27.01" r="8.53"/>
	<circle class="st8" cx="10.38" cy="29.13" r="6.41"/>
</g>
<g>
	
		<ellipse transform="matrix(0.9015 -0.4329 0.4329 0.9015 94.9503 511.4341)" class="st9" cx="1170.76" cy="47.17" rx="9.66" ry="11.67"/>
	
		<ellipse transform="matrix(0.9015 -0.4329 0.4329 0.9015 88.7122 509.1497)" class="st9" cx="1162.63" cy="59.73" rx="10.42" ry="12.59"/>
	
		<ellipse transform="matrix(0.9015 -0.4329 0.4329 0.9015 93.1364 516.1257)" class="st9" cx="1180.16" cy="53.5" rx="8.09" ry="9.77"/>
	
		<ellipse transform="matrix(0.9015 -0.4329 0.4329 0.9015 98.4319 517.3091)" class="st9" cx="1185.41" cy="42.46" rx="7.48" ry="9.04"/>
	
		<ellipse transform="matrix(0.9015 -0.4329 0.4329 0.9015 96.1479 520.6622)" class="st9" cx="1191.63" cy="49.16" rx="7.22" ry="8.73"/>
</g>
<g>
	<circle class="st8" cx="895.93" cy="14.51" r="7.14"/>
	<circle class="st8" cx="886.42" cy="16.31" r="5.62"/>
	<circle class="st8" cx="903.07" cy="17.59" r="6.26"/>
	<circle class="st8" cx="891.94" cy="20.69" r="6.17"/>
	<circle class="st8" cx="899.38" cy="22.22" r="4.64"/>
</g>
<g>
	<circle class="st8" cx="1227.01" cy="15.45" r="9.87"/>
	<circle class="st8" cx="1213.86" cy="17.94" r="7.77"/>
	<circle class="st8" cx="1236.88" cy="19.7" r="8.65"/>
	<circle class="st8" cx="1221.5" cy="23.99" r="8.53"/>
	<circle class="st8" cx="1231.78" cy="26.11" r="6.41"/>
</g>
<g>
	<circle class="st8" cx="1635.43" cy="17.28" r="8.03"/>
	<circle class="st8" cx="1624.72" cy="19.3" r="6.32"/>
	<circle class="st8" cx="1643.46" cy="20.74" r="7.04"/>
	<circle class="st8" cx="1630.94" cy="24.22" r="6.95"/>
	<circle class="st8" cx="1639.31" cy="25.95" r="5.22"/>
</g>
<g>
	<ellipse class="st7" cx="1908.77" cy="18.45" rx="10.08" ry="10.52"/>
	<ellipse class="st7" cx="1919.33" cy="21" rx="7.84" ry="8.18"/>
	<ellipse class="st7" cx="1899.39" cy="18.45" rx="9.38" ry="8.18"/>
	<ellipse class="st7" cx="1892.73" cy="21.98" rx="7.28" ry="6.99"/>
	<ellipse class="st7" cx="1913.1" cy="25.9" rx="7.28" ry="6.72"/>
	<ellipse class="st7" cx="1903.23" cy="25.14" rx="9.87" ry="8.4"/>
</g>
<circle class="st10" cx="1540.28" cy="21.54" r="8.72"/>
<g>
	<circle class="st4" cx="594.63" cy="40.41" r="10.26"/>
	<ellipse class="st4" cx="580.39" cy="47.53" rx="8.89" ry="7.12"/>
	<circle class="st4" cx="609.65" cy="47.92" r="7.51"/>
	<circle class="st4" cx="603.14" cy="41.05" r="6.51"/>
	<ellipse class="st4" cx="594.63" cy="50.98" rx="10.26" ry="6.74"/>
</g>
<g>
	<ellipse class="st2" cx="1244.6" cy="45.04" rx="9.98" ry="10.4"/>
	<ellipse class="st2" cx="1234.63" cy="48.05" rx="11.12" ry="11.6"/>
	<ellipse class="st2" cx="1253.27" cy="51.85" rx="8.43" ry="8.79"/>
	<ellipse class="st2" cx="1220.04" cy="53.36" rx="7.98" ry="8.32"/>
</g>
<path class="st3" d="M892.44,54c54.1-23.41,181.92-69.67,278.48-10.27c6.11,3.76,12.15,7.97,18.1,12.71"/>
<path class="st3" d="M1242.94,56.5c21.88-11.29,155.58-78.18,240.82-18.59c7.32,5.11,14.55,11.35,21.45,19"/>
<g>
	<circle class="st11" cx="1505.51" cy="44.89" r="10.26"/>
	<ellipse class="st11" cx="1491.26" cy="52.01" rx="8.89" ry="7.12"/>
	<circle class="st11" cx="1520.52" cy="52.4" r="7.51"/>
	<circle class="st11" cx="1514.01" cy="45.53" r="6.51"/>
	<ellipse class="st11" cx="1505.51" cy="55.46" rx="10.26" ry="6.74"/>
</g>
<path class="st12" d="M1920,71H0V54c146.13-2.07,370.89-4.22,648.56-2.61C774.35,52.12,862.5,53.35,915.07,54
	c214.72,2.66,540.02,4.51,1004.93,0C1920,59.67,1920,65.33,1920,71z"/>
<g>
	<rect x="406.69" y="32.56" class="st13" width="35" height="30.84"/>
	<path class="st14" d="M409.08,63.4h-14.81V16.74c0-4.09,3.32-7.41,7.41-7.41h0c4.09,0,7.41,3.32,7.41,7.41V63.4z"/>
	<polygon class="st15" points="405.27,36.63 338.42,36.63 342.64,14.99 371.85,8.14 401.96,14.99 	"/>
	<polygon class="st15" points="446.57,38.08 409.08,38.08 409.08,27.04 442.19,27.04 	"/>
	<rect x="357.01" y="36.63" class="st16" width="31.08" height="27.03"/>
	<rect x="415.12" y="43.61" class="st17" width="21.81" height="6.25"/>
	<circle class="st18" cx="372.55" cy="27.04" r="3.7"/>
	<path class="st18" d="M388.22,64.3"/>
	<path class="st18" d="M388.22,36.68"/>
	<path class="st18" d="M400.9,64.3"/>
	<path class="st18" d="M400.9,36.68"/>
	<g>
		<g>
			<g>
				<rect x="343.04" y="36.63" class="st13" width="13.97" height="27.61"/>
				<polygon class="st18" points="343.42,37.07 356.5,36.99 343.42,63.88 356.66,63.82 				"/>
			</g>
			<line class="st18" x1="357.01" y1="36.63" x2="357.01" y2="64.24"/>
		</g>
		<line class="st18" x1="343.18" y1="36.74" x2="343.18" y2="64.35"/>
	</g>
	<g>
		<g>
			<g>
				<rect x="387.7" y="36.58" class="st13" width="13.97" height="27.61"/>
				<polygon class="st18" points="388.08,37.01 401.16,36.94 388.08,63.83 401.32,63.77 				"/>
			</g>
			<line class="st18" x1="401.67" y1="36.58" x2="401.67" y2="64.19"/>
		</g>
		<line class="st18" x1="387.84" y1="36.68" x2="387.84" y2="64.3"/>
	</g>
	<polygon class="st16" points="403.85,36.63 339.84,36.63 343.88,17.2 371.85,11.05 400.68,17.2 	"/>
	<polygon class="st13" points="402.44,36.63 341.58,36.63 345.42,19.19 372.01,13.67 399.43,19.19 	"/>
	<circle class="st17" cx="372.55" cy="27.04" r="3.7"/>
</g>
<g>
	<path class="st15" d="M478.63,57.4h-30.12c-1.07,0-1.94-0.87-1.94-1.94v0c0-1.07,0.87-1.94,1.94-1.94h30.12
		c1.07,0,1.94,0.87,1.94,1.94v0C480.57,56.53,479.7,57.4,478.63,57.4z"/>
	<path class="st15" d="M454.8,64.5H451V50.74c0-1.05,0.85-1.9,1.9-1.9l0,0c1.05,0,1.9,0.85,1.9,1.9V64.5z"/>
	<path class="st15" d="M475.49,64.5h-3.8V50.74c0-1.05,0.85-1.9,1.9-1.9l0,0c1.05,0,1.9,0.85,1.9,1.9V64.5z"/>
</g>
<g>
	<path class="st15" d="M334.73,57.4H304.6c-1.07,0-1.94-0.87-1.94-1.94v0c0-1.07,0.87-1.94,1.94-1.94h30.12
		c1.07,0,1.94,0.87,1.94,1.94v0C336.66,56.53,335.8,57.4,334.73,57.4z"/>
	<path class="st15" d="M310.89,64.5h-3.8V50.74c0-1.05,0.85-1.9,1.9-1.9l0,0c1.05,0,1.9,0.85,1.9,1.9V64.5z"/>
	<path class="st15" d="M331.58,64.5h-3.8V50.74c0-1.05,0.85-1.9,1.9-1.9l0,0c1.05,0,1.9,0.85,1.9,1.9V64.5z"/>
</g>
<g>
	<path class="st15" d="M298.34,57.4h-30.12c-1.07,0-1.94-0.87-1.94-1.94v0c0-1.07,0.87-1.94,1.94-1.94h30.12
		c1.07,0,1.94,0.87,1.94,1.94v0C300.28,56.53,299.41,57.4,298.34,57.4z"/>
	<path class="st15" d="M274.5,64.5h-3.8V50.74c0-1.05,0.85-1.9,1.9-1.9l0,0c1.05,0,1.9,0.85,1.9,1.9V64.5z"/>
	<path class="st15" d="M295.2,64.5h-3.8V50.74c0-1.05,0.85-1.9,1.9-1.9l0,0c1.05,0,1.9,0.85,1.9,1.9V64.5z"/>
</g>
<path class="st19" d="M250.47,34.92"/>
<g>
	<path class="st19" d="M262.7,62.71h-7.32c1.13-6.6,1.13-13.2,1.13-19.81c0-1.9,0-4.95,0-6.85c2.97,0.63,2.27,10.56,4,9.73
		L262.7,62.71z"/>
	<path class="st19" d="M259.05,48.48c-0.8-0.6-1.66-1.38-2.52-2.4c-2.96-3.49-4.14-7.76-4.63-10.14c1.54,2.21,3.09,4.42,4.63,6.63"
		/>
	<path class="st19" d="M263.66,35.46c0.16,0.53,1.37,1-2.69,9.84c-0.78,1.69-2.56,4.48-3.1,4.05c-0.66-0.52,1.04-3.77,2.64-6.53"/>
</g>
<g>
	<path class="st19" d="M989.69,62.28h-7.32c1.13-6.6,1.13-13.2,1.13-19.81c0-1.9,0-4.95,0-6.85c2.97,0.63,2.27,10.56,4,9.73
		L989.69,62.28z"/>
	<path class="st19" d="M986.03,48.05c-0.8-0.6-1.66-1.38-2.52-2.4c-2.96-3.49-4.14-7.76-4.63-10.14c1.54,2.21,3.09,4.42,4.63,6.63"
		/>
	<path class="st19" d="M990.64,35.02c0.16,0.53,1.37,1-2.69,9.84c-0.78,1.69-2.56,4.48-3.1,4.05c-0.66-0.52,1.04-3.77,2.64-6.53"/>
</g>
<g>
	<g>
		<ellipse class="st20" cx="250.06" cy="15.37" rx="13.39" ry="10.68"/>
		<ellipse class="st20" cx="241.95" cy="20.64" rx="7.93" ry="6.33"/>
		<ellipse class="st20" cx="267.34" cy="25.17" rx="9.64" ry="7.69"/>
		<ellipse class="st20" cx="247.18" cy="32.87" rx="10.51" ry="8.39"/>
		<ellipse class="st20" cx="264.54" cy="13.87" rx="8.62" ry="6.88"/>
		<ellipse class="st20" cx="259.8" cy="32.84" rx="10.48" ry="8.36"/>
	</g>
	
		<ellipse transform="matrix(0.6418 -0.7668 0.7668 0.6418 70.1783 203.0578)" class="st20" cx="252.47" cy="26.4" rx="7.93" ry="7.71"/>
</g>
<g>
	<g>
		<ellipse class="st6" cx="976.79" cy="14.63" rx="14.02" ry="10.68"/>
		<ellipse class="st21" cx="968.3" cy="19.89" rx="8.3" ry="6.33"/>
		<ellipse class="st6" cx="994.88" cy="24.43" rx="10.09" ry="7.69"/>
		<ellipse class="st6" cx="973.78" cy="32.12" rx="11.01" ry="8.39"/>
		<ellipse class="st6" cx="991.94" cy="13.12" rx="9.03" ry="6.88"/>
		<ellipse class="st6" cx="986.99" cy="32.09" rx="10.97" ry="8.36"/>
	</g>
	
		<ellipse transform="matrix(0.9574 -0.2889 0.2889 0.9574 34.3344 283.9738)" class="st6" cx="979.31" cy="25.66" rx="8.2" ry="7.81"/>
</g>
<g>
	<path class="st19" d="M1332.35,63.8h-7.32c1.13-6.6,1.13-13.2,1.13-19.81c0-1.9,0-4.95,0-6.85c2.97,0.63,2.27,10.56,4,9.73
		L1332.35,63.8z"/>
	<path class="st19" d="M1328.69,49.57c-0.8-0.6-1.66-1.38-2.52-2.4c-2.96-3.49-4.14-7.76-4.63-10.14c1.54,2.21,3.09,4.42,4.63,6.63"
		/>
	<path class="st19" d="M1333.3,36.55c0.16,0.53,1.37,1-2.69,9.84c-0.78,1.69-2.56,4.48-3.1,4.05c-0.66-0.52,1.04-3.77,2.64-6.53"/>
</g>
<g>
	<g>
		<ellipse class="st6" cx="1319.01" cy="8.1" rx="16.7" ry="13.83"/>
		<ellipse class="st21" cx="1308.9" cy="14.92" rx="9.89" ry="8.19"/>
		<ellipse class="st6" cx="1340.57" cy="20.79" rx="12.03" ry="9.96"/>
		<ellipse class="st6" cx="1315.42" cy="30.75" rx="13.11" ry="10.86"/>
		<ellipse class="st6" cx="1337.07" cy="6.16" rx="10.76" ry="8.9"/>
		<ellipse class="st6" cx="1331.16" cy="30.71" rx="13.07" ry="10.82"/>
	</g>
	
		<ellipse transform="matrix(0.2829 -0.9592 0.9592 0.2829 926.574 1284.0648)" class="st6" cx="1322.02" cy="22.38" rx="10.19" ry="9.69"/>
</g>
<g>
	<path class="st19" d="M1746.37,69.08h7.32c-1.13-6.6-1.13-13.2-1.13-19.81c0-1.9,0-4.95,0-6.85c-2.97,0.63-2.27,10.56-4,9.73
		L1746.37,69.08z"/>
	<path class="st19" d="M1750.02,54.85c0.8-0.6,1.66-1.38,2.52-2.4c2.96-3.49,4.14-7.76,4.63-10.14c-1.54,2.21-3.09,4.42-4.63,6.63"
		/>
	<path class="st19" d="M1745.41,41.83c-0.16,0.53-1.37,1,2.69,9.84c0.78,1.69,2.56,4.48,3.1,4.05c0.66-0.52-1.04-3.77-2.64-6.53"/>
</g>
<g>
	<g>
		<ellipse class="st2" cx="1758.49" cy="14.39" rx="16.78" ry="13.83"/>
		<ellipse class="st2" cx="1768.65" cy="21.2" rx="9.94" ry="8.19"/>
		<ellipse class="st2" cx="1736.83" cy="27.07" rx="12.09" ry="9.96"/>
		<ellipse class="st2" cx="1762.1" cy="37.03" rx="13.18" ry="10.86"/>
		<ellipse class="st2" cx="1740.34" cy="12.44" rx="10.81" ry="8.9"/>
		<ellipse class="st2" cx="1746.28" cy="36.99" rx="13.13" ry="10.82"/>
	</g>
	
		<ellipse transform="matrix(0.9504 -0.3111 0.3111 0.9504 78.2117 547.603)" class="st2" cx="1755.47" cy="28.66" rx="9.73" ry="10.19"/>
</g>
<polygon class="st16" points="493.13,61.55 488.16,61.55 489.35,39.3 492.68,39.3 "/>
<g>
	<path class="st19" d="M514.11,62.34h-5.67c0.88-5.15,0.88-10.29,0.88-15.44c0-1.48,0-3.86,0-5.34c2.3,0.49,1.76,8.23,3.11,7.58
		L514.11,62.34z"/>
	<path class="st19" d="M511.27,51.24c-0.62-0.47-1.29-1.08-1.96-1.87c-2.3-2.72-3.21-6.05-3.59-7.9c1.2,1.72,2.39,3.45,3.59,5.17"/>
	<path class="st19" d="M514.85,41.09c0.12,0.41,1.06,0.78-2.09,7.67c-0.6,1.32-1.99,3.49-2.4,3.16c-0.51-0.41,0.81-2.94,2.05-5.09"
		/>
</g>
<g>
	<g>
		<ellipse class="st21" cx="506.45" cy="25.43" rx="9.31" ry="8.33"/>
		<ellipse class="st21" cx="500.82" cy="29.54" rx="5.52" ry="4.93"/>
		<ellipse class="st21" cx="518.47" cy="33.07" rx="6.71" ry="6"/>
		<ellipse class="st21" cx="504.45" cy="39.07" rx="7.31" ry="6.54"/>
		<ellipse class="st21" cx="516.52" cy="24.26" rx="6" ry="5.36"/>
		<ellipse class="st21" cx="513.23" cy="39.05" rx="7.29" ry="6.52"/>
	</g>
	
		<ellipse transform="matrix(0.1116 -0.9938 0.9938 0.1116 417.6181 535.191)" class="st21" cx="508.13" cy="34.03" rx="6.12" ry="5.42"/>
</g>
<g>
	<ellipse class="st22" cx="490.64" cy="36.37" rx="6.99" ry="14.06"/>
	
		<ellipse transform="matrix(0.9933 -0.1156 0.1156 0.9933 -1.3343 56.4308)" class="st22" cx="485.95" cy="39.72" rx="5.23" ry="12.06"/>
	
		<ellipse transform="matrix(0.0411 -0.9992 0.9992 0.0411 438.5197 532.2515)" class="st22" cx="496.55" cy="37.67" rx="12.45" ry="3.14"/>
	<ellipse class="st22" cx="490.64" cy="45.76" rx="7.26" ry="8.1"/>
</g>
<polygon class="st16" points="802.51,58 799.22,58 800.01,27.35 802.22,27.35 "/>
<g>
	<ellipse class="st22" cx="801.71" cy="23.31" rx="6.99" ry="19.36"/>
	
		<ellipse transform="matrix(0.9971 -0.0759 0.0759 0.9971 0.1783 60.5589)" class="st22" cx="797.02" cy="27.93" rx="5.25" ry="16.56"/>
	
		<ellipse transform="matrix(0.0289 -0.9996 0.9996 0.0289 759.1741 831.6567)" class="st22" cx="807.62" cy="25.1" rx="17.13" ry="3.14"/>
	<ellipse class="st22" cx="801.71" cy="36.25" rx="7.26" ry="11.15"/>
</g>
<polygon class="st16" points="1145.09,65.1 1141.8,65.1 1142.59,34.45 1144.8,34.45 "/>
<g>
	<ellipse class="st22" cx="1144.29" cy="30.41" rx="6.99" ry="19.36"/>
	
		<ellipse transform="matrix(0.9971 -0.0759 0.0759 0.9971 0.6271 86.5746)" class="st22" cx="1139.6" cy="35.03" rx="5.25" ry="16.56"/>
	
		<ellipse transform="matrix(0.0289 -0.9996 0.9996 0.0289 1084.7504 1180.9904)" class="st22" cx="1150.2" cy="32.2" rx="17.13" ry="3.14"/>
	<ellipse class="st22" cx="1144.29" cy="43.35" rx="7.26" ry="11.15"/>
</g>
<path class="st23" d="M509.36-109.77h-42.94c-8.52,0-15.42-6.9-15.42-15.42v-7.15c0-8.52,6.9-15.42,15.42-15.42h42.94
	c8.52,0,15.42,6.9,15.42,15.42v7.15C524.78-116.67,517.87-109.77,509.36-109.77z"/>
</svg>
