<svg xmlns="http://www.w3.org/2000/svg" viewBox="0 0 820 310"><defs><style>.cls-1{fill:#fff;}.cls-2{fill:#fdc300;}.cls-3{fill:#fd0;}.cls-4{fill:#f7a600;}.cls-5{fill:#001f44;}</style></defs><g id="Calque_2" data-name="Calque 2"><g id="Layer_1" data-name="Layer 1"><polygon class="cls-1" points="0 0 0 310 820 310 701.9 0 0 0"/><polygon class="cls-2" points="131.49 85.06 129.01 53.6 108.86 61.84 85.89 85.06 131.49 85.06"/><polygon class="cls-3" points="130.54 77.17 81.44 87.53 78.87 119.86 136.98 108.95 130.54 77.17"/><polygon class="cls-4" points="35.24 181.4 49.57 210.31 81.44 214.01 60.44 175.22 35.24 181.4"/><polygon class="cls-2" points="66.12 178.93 85.89 216.48 131.49 218.21 124.57 162.63 66.12 178.93"/><polygon class="cls-3" points="88.85 211.29 132.47 218.21 132.47 246.12 104.17 236.98 88.85 211.29"/><polygon class="cls-3" points="231.63 171.98 230.17 124.3 200.03 127.26 192.78 182.23 231.63 171.98"/><polygon class="cls-4" points="228.36 120.35 214.03 91.44 182.16 87.74 203.16 126.52 228.36 120.35"/><polygon class="cls-2" points="134.22 219.83 136.69 251.28 156.84 243.05 179.82 219.83 134.22 219.83"/><polygon class="cls-4" points="68.59 116.68 63.66 173.99 134.2 171.02 132.97 124.83 68.59 116.68"/><polygon class="cls-4" points="184.26 214.56 132.47 223.89 134.22 180.06 194.64 178.98 184.26 214.56"/><polygon class="cls-2" points="191.13 184.75 196.07 127.43 132.97 124.82 126.76 176.6 191.13 184.75"/><polygon class="cls-3" points="199.58 125.96 179.82 88.41 134.22 86.68 141.13 142.26 199.58 125.96"/><polygon class="cls-2" points="176.85 93.6 133.23 86.68 133.23 58.76 161.54 67.9 176.85 93.6"/><polygon class="cls-2" points="99.97 238.21 95.52 216.97 60.44 209.56 76.75 226.36 99.97 238.21"/><polygon class="cls-4" points="165.74 63.97 170.19 85.22 205.26 92.62 188.96 75.83 165.74 63.97"/><polygon class="cls-3" points="105.4 57.14 94.04 80.11 54.02 90.98 77.98 69.49 105.4 57.14"/><polygon class="cls-4" points="362.72 47.67 366.64 63.87 312.07 63.85 344.68 53.52 362.72 47.67"/><polygon class="cls-4" points="160.3 244.61 171.67 221.63 211.69 210.76 187.72 232.26 160.3 244.61"/><polygon class="cls-2" points="214.65 213.24 233.67 176.92 189.95 182.6 176.85 213.24 214.65 213.24"/><polygon class="cls-2" points="51.05 88.51 32.03 124.82 75.76 119.15 88.85 88.51 51.05 88.51"/><polygon class="cls-4" points="30.57 123.34 32.03 171.02 62.17 168.06 66.12 114.47 30.57 123.34"/><polygon class="cls-5" points="262.63 77.87 273.83 76.26 273.83 201.64 262.63 203.28 262.63 77.87"/><polygon class="cls-5" points="303.09 77.87 369.41 77.87 372.1 88.18 313.93 88.18 313.93 133.35 363.08 133.35 363.08 143.48 313.93 143.48 313.93 191.17 374.46 191.17 372.1 201.64 303.09 201.64 303.09 77.87"/><path class="cls-5" d="M427.57,193.53c16.26,0,27.64-10.49,27.64-24.22,0-19.16-15.54-22.05-34.32-27.84-19.15-5.78-29.27-15.35-29.27-32.69,0-17.7,14.65-33.43,37-33.43,13.21,0,23,4.34,33.44,14.64l-7.24,8.31c-9-8.5-16.63-12.47-26.92-12.47C414.2,85.83,403,96,403,109c0,8,3.79,13.92,11.37,18.07,6.51,3.62,15.19,5.25,24.94,8.49,18.23,6.15,27.46,17.17,27.46,32.72,0,19.5-15.53,36-39.39,36-15.71,0-29.62-8-38.48-22.05l8.86-6.5q11.12,17.9,29.8,17.9"/><polygon class="cls-5" points="490.62 77.87 556.94 77.87 559.63 88.18 501.45 88.18 501.45 133.35 550.61 133.35 550.61 143.48 501.45 143.48 501.45 191.17 561.99 191.17 559.63 201.64 490.62 201.64 490.62 77.87"/><path class="cls-5" d="M685.2,187c-11.92,11.38-27.1,17.33-44.44,17.33s-32.7-5.95-44.63-17.33a65,65,0,0,1-4-90.17c12.1-14.09,29.1-21.68,48.6-21.68,16.26,0,30.71,5.24,42.45,15.54l-7,8.13C665.69,90,653.76,85.47,640.76,85.47c-29.27,0-53.67,22.77-53.67,54.21,0,31.61,24.4,54.2,53.49,54.2a54.12,54.12,0,0,0,33.78-11.75V143.48H636l2.22-10.14H685.2Z"/><path class="cls-5" d="M264.49,240.68c1.44,1.95,3.18,3,4.87,3a4,4,0,0,0,4.21-4c0-2.62-1.67-3.4-4.91-4.58-4.5-1.62-6.53-3.36-6.53-7.34s3.21-7,7.61-7a9.36,9.36,0,0,1,7.19,3.47l-2.37,2.57c-1.65-1.8-3.14-2.69-4.87-2.69a3.5,3.5,0,0,0-3.8,3.51c0,2.39,1.66,3.17,4.54,4.24,4.65,1.73,6.9,3.55,6.9,7.94,0,4.08-3.25,7.37-7.89,7.37a9.07,9.07,0,0,1-7.79-4.17Z"/><path class="cls-5" d="M292.94,247.27a13.41,13.41,0,0,1-7.58-2.17,13.84,13.84,0,0,1-1.76-20.62,12.75,12.75,0,0,1,9.15-3.69,14.87,14.87,0,0,1,4.29.66l.55,3.94a9.29,9.29,0,0,0-4.69-1.21c-5.27,0-9.3,4.09-9.3,9.84a9.88,9.88,0,0,0,2.69,7.09,9.17,9.17,0,0,0,6.42,2.74,9.4,9.4,0,0,0,3.51-.6,14.17,14.17,0,0,0,1.7-.85l-.48,3.95a11,11,0,0,1-4.5.92"/><polygon class="cls-5" points="300.73 221.39 304.39 221.01 304.39 232.05 316.67 232.05 316.67 221.39 320.36 221.01 320.36 246.73 316.67 247.06 316.67 235.4 304.39 235.4 304.39 246.73 300.73 247.06 300.73 221.39"/><path class="cls-5" d="M327.15,224.48a14,14,0,0,1,19,0,13,13,0,0,1,3.79,9.55,13.12,13.12,0,0,1-3.79,9.6,14.1,14.1,0,0,1-19,0,13.25,13.25,0,0,1-3.8-9.6,13.08,13.08,0,0,1,3.8-9.55m19,9.55c0-5.83-4.07-9.91-9.53-9.91s-9.51,4.08-9.51,9.91,4.06,9.92,9.51,9.92,9.53-4.08,9.53-9.92"/><path class="cls-5" d="M355.59,224.48a14,14,0,0,1,19,0A12.93,12.93,0,0,1,378.4,234a13.09,13.09,0,0,1-3.81,9.6,14.1,14.1,0,0,1-19,0,13.33,13.33,0,0,1-3.8-9.6,13.16,13.16,0,0,1,3.8-9.55M374.64,234c0-5.83-4.07-9.91-9.53-9.91s-9.52,4.08-9.52,9.91,4.06,9.92,9.52,9.92,9.53-4.08,9.53-9.92"/><polygon class="cls-5" points="381.47 221.39 385.15 221.01 385.15 243.28 395.63 243.28 394.41 246.73 381.47 246.73 381.47 221.39"/><path class="cls-5" d="M409.77,224.48a14,14,0,0,1,19,0,13,13,0,0,1,3.8,9.55,13.13,13.13,0,0,1-3.8,9.6,14.09,14.09,0,0,1-19,0A13.21,13.21,0,0,1,406,234a13,13,0,0,1,3.81-9.55m19,9.55c0-5.83-4.05-9.91-9.5-9.91s-9.52,4.08-9.52,9.91,4.05,9.92,9.52,9.92,9.5-4.08,9.5-9.92"/><polygon class="cls-5" points="435.63 221.39 448.57 221.39 449.28 224.69 439.32 224.69 439.32 232.07 446.96 232.07 446.96 235.4 439.32 235.4 439.32 246.73 435.63 247.06 435.63 221.39"/><polygon class="cls-5" points="463.18 220.77 473.78 239.88 483.72 220.71 486.18 246.83 482.56 246.8 481.3 232.38 473.82 247.16 465.76 232.36 464.92 246.91 461.4 246.91 463.18 220.77"/><polygon class="cls-5" points="604.39 220.77 614.98 239.88 624.92 220.71 627.39 246.83 623.75 246.8 622.5 232.38 615.01 247.16 606.96 232.36 606.1 246.91 602.61 246.91 604.39 220.77"/><path class="cls-5" d="M499.38,220.6l13.2,26.26h-4l-4.31-8.66h-10l-4.32,8.63-3.61,0Zm3.4,14.53-3.54-7.23-3.5,7.23Z"/><polygon class="cls-5" points="512.96 220.71 529.42 238.3 529.42 221.39 533.11 221.01 533.11 247.35 516.62 229.74 516.67 246.8 512.96 246.83 512.96 220.71"/><path class="cls-5" d="M546.54,220.6l13.18,26.21-4,0-4.29-8.63h-10l-4.25,8.6h-3.79Zm3.39,14.53-3.54-7.23-3.5,7.23Z"/><path class="cls-5" d="M571.61,247.32a12.79,12.79,0,0,1-9.51-3.69,13.09,13.09,0,0,1-3.8-9.6,12.87,12.87,0,0,1,13.39-13.27,12,12,0,0,1,9,3.49l-2.36,2.51a9.07,9.07,0,0,0-6.72-2.65c-5.46,0-9.51,4.09-9.51,9.92s3.94,9.89,9.33,9.89a10,10,0,0,0,6.24-2.1v-6.21h-7.91l1.3-3.19h10.11v11.31a14.11,14.11,0,0,1-9.56,3.59"/><polygon class="cls-5" points="584.96 221.39 598.29 221.39 599.12 224.69 588.63 224.69 588.63 231.74 596.95 231.74 596.95 235.06 588.63 235.06 588.63 243.22 599.95 243.22 598.88 246.73 584.96 246.73 584.96 221.39"/><polygon class="cls-5" points="630.47 221.39 643.78 221.39 644.58 224.69 634.12 224.69 634.12 231.74 642.46 231.74 642.46 235.06 634.12 235.06 634.12 243.22 645.46 243.22 644.37 246.73 630.47 246.73 630.47 221.39"/><polygon class="cls-5" points="647.59 220.71 664.04 238.3 664.04 221.39 667.73 221.01 667.73 247.35 651.23 229.74 651.23 246.81 647.59 246.8 647.59 220.71"/><polygon class="cls-5" points="675.67 224.74 669.09 224.74 670.35 221.39 685.26 221.39 685.26 224.74 679.31 224.74 679.31 246.73 675.67 247.05 675.67 224.74"/></g></g></svg>